<svg width="513" height="512" viewBox="0 0 513 512" fill="none" xmlns="http://www.w3.org/2000/svg">
<path d="M347.161 225.308C346.737 224.035 346.312 222.621 346.454 221.207C346.454 218.378 346.595 215.549 346.736 212.862C346.878 209.043 347.02 204.942 347.161 201.123C347.161 193.627 347.161 186.13 346.595 178.776C346.454 175.381 346.029 172.128 345.605 168.592C345.464 167.178 345.181 165.764 345.039 164.208C345.039 164.208 345.039 164.208 344.898 164.208C344.615 164.208 344.474 164.349 344.332 164.491C336.412 169.582 328.915 175.098 322.126 180.897C318.166 184.292 314.206 187.828 310.388 191.222C309.256 192.354 307.983 193.344 306.852 194.334C305.437 195.607 303.74 196.173 301.76 196.173C271.634 196.173 241.65 196.173 211.524 196.173C209.543 196.173 207.846 195.465 206.432 194.192C202.613 190.656 198.936 187.262 195.966 184.716C187.621 177.22 178.852 170.572 169.8 164.915C169.376 164.632 168.951 164.491 168.668 164.208C168.668 164.208 168.385 164.208 168.244 164.066C168.244 164.349 168.244 164.491 168.244 164.632C168.102 166.329 167.82 168.027 167.678 169.724C167.254 173.543 166.829 177.503 166.546 181.322C165.839 193.344 166.405 205.649 166.83 216.256C166.83 216.539 166.83 216.822 166.83 217.105C166.83 219.651 167.112 222.48 166.122 225.025C165.981 225.45 165.839 226.016 165.698 226.44C165.698 226.581 165.698 226.864 165.557 227.006C163.294 234.926 162.021 242.281 161.314 249.07C160.889 254.161 160.465 259.536 160.182 266.184C160.182 268.729 160.182 271.417 160.182 274.104C160.182 275.235 160.182 276.367 160.182 277.498C160.182 277.498 160.182 277.498 160.323 277.498C160.606 277.498 160.889 277.498 161.172 277.498C163.152 277.498 165.273 277.498 167.254 277.64C170.931 277.64 174.891 277.923 178.568 278.064H179.134C181.68 278.064 184.367 278.206 186.913 278.488C189.176 278.771 191.157 280.61 191.581 282.732C192.005 285.136 191.015 287.54 189.035 288.813C187.62 289.803 185.923 289.662 184.509 289.662C180.266 289.662 176.164 289.379 171.921 289.238C168.385 289.238 164.849 288.955 161.172 288.813C160.889 288.813 160.606 288.813 160.323 288.813C160.323 288.813 160.182 288.813 160.04 288.813L160.747 301.825L164.283 301.118C167.112 300.553 169.8 299.987 172.487 299.421C174.043 299.138 175.457 298.855 177.013 298.431C179.841 297.865 182.953 297.158 185.923 296.592C188.752 296.027 190.874 296.592 192.288 298.572C193.561 300.128 193.844 302.108 193.137 303.947C192.43 305.927 190.732 307.342 188.611 307.766C184.792 308.614 180.973 309.463 177.296 310.17C176.306 310.312 175.315 310.595 174.325 310.736C171.497 311.302 168.809 311.867 165.981 312.433C164.849 312.716 163.576 312.858 162.303 313.14C162.586 314.13 162.728 315.121 163.01 316.111C164.283 321.768 165.415 327.143 167.819 332.376C170.224 337.609 174.043 341.003 179.276 342.418C184.226 343.691 189.459 345.105 194.834 345.812C203.744 347.085 212.513 347.934 220.999 348.641C229.768 349.348 238.821 349.631 247.448 349.772H248.863C254.096 349.914 259.471 349.914 265.269 349.772C273.473 349.49 282.807 349.348 292.001 348.782C299.497 348.358 306.993 347.509 314.772 346.661C321.42 345.954 327.501 344.681 333.3 342.984C339.382 341.145 343.484 337.892 345.747 332.8C348.575 326.435 349.99 319.788 351.263 313.423C350.555 313.282 349.707 312.999 348.999 312.858C347.302 312.433 345.464 312.009 343.625 311.585C340.655 310.877 337.684 310.312 334.714 309.746C331.461 309.039 328.208 308.332 324.955 307.624C323.258 307.2 321.844 306.21 320.995 304.796C320.147 303.381 320.146 301.684 320.712 300.128C321.702 297.441 324.531 296.027 327.642 296.592C330.895 297.3 334.29 297.865 337.543 298.572C339.24 298.855 340.796 299.28 342.493 299.563C344.898 300.128 347.444 300.553 349.848 301.118L352.96 301.825L353.526 288.955C353.243 288.955 352.96 288.955 352.677 288.955C351.97 288.955 351.263 288.955 350.697 288.955C347.868 288.955 345.181 289.096 342.352 289.238C337.543 289.379 332.593 289.521 327.784 289.662C325.097 289.662 322.834 287.965 322.126 285.277C321.419 282.732 322.692 280.044 324.955 279.054C325.945 278.63 327.218 278.347 328.491 278.347C332.451 278.206 336.411 278.064 340.372 277.923C342.635 277.923 344.756 277.923 347.019 277.64C348.575 277.64 350.131 277.64 351.687 277.357C352.394 277.357 352.96 277.357 353.667 277.357C353.667 277.216 353.667 277.074 353.667 276.933C353.667 267.881 353.384 258.97 352.394 250.343C351.404 241.432 349.707 232.946 347.303 224.884L347.161 225.308ZM209.685 267.174C206.007 266.608 202.896 264.769 200.916 261.799C198.653 258.546 197.945 254.161 199.077 249.353C198.511 249.353 197.804 249.353 197.238 249.353C195.683 249.353 193.985 249.07 192.43 249.211C190.874 249.211 189.318 248.787 188.327 247.655C187.196 246.665 186.489 245.109 186.489 243.695C186.489 240.442 188.611 238.321 192.147 238.321C195.682 238.321 199.218 238.321 202.754 238.321C207.705 238.462 211.947 238.745 216.049 239.169C221.282 239.735 226.374 240.442 230.618 243.837C234.295 246.807 236.416 250.767 237.123 256.142C237.264 257.556 237.265 259.112 237.406 260.526C237.406 261.375 237.406 262.082 237.406 262.93C237.406 263.779 237.406 264.345 236.982 264.628C236.558 265.052 236.133 265.193 235.285 265.193C233.729 265.193 232.032 265.193 230.334 265.193C229.627 265.193 228.92 265.193 228.213 265.193H227.93V264.911C227.93 263.921 227.789 262.93 227.789 262.082C227.647 258.546 227.506 255.01 224.96 252.04C225.243 257.556 223.828 261.516 220.292 264.203C217.746 266.325 214.776 267.315 211.806 267.315C208.836 267.315 210.533 267.315 209.826 267.174H209.685ZM295.678 300.835C292.991 308.756 287.475 313.848 279.413 316.252C277.15 316.959 274.887 317.242 272.624 317.242C266.825 317.242 261.451 314.979 256.642 310.312C256.076 310.736 255.651 311.16 255.086 311.443C253.813 312.433 252.54 313.423 251.126 314.13C242.64 318.939 231.325 317.666 224.111 310.877C220.575 307.483 218.313 304.23 217.181 300.694C216.474 298.572 216.898 296.309 218.312 294.754C219.585 293.339 221.566 292.632 223.546 293.056C225.384 293.339 226.657 294.612 227.364 296.734C228.354 299.704 230.193 302.108 232.597 303.806C235.285 305.644 238.679 306.352 241.932 305.786C245.044 305.22 247.731 303.523 249.428 300.977C250.418 299.421 250.419 297.865 250.419 295.885C250.419 295.885 250.277 295.461 249.428 295.178C246.317 293.481 242.356 291.076 239.528 287.258C236.982 283.722 237.123 280.893 237.83 279.196C238.82 276.508 241.508 274.387 244.902 273.538C246.175 273.255 247.448 273.255 248.438 273.255H248.58C253.671 273.255 259.046 273.255 264.279 273.255C265.976 273.255 267.532 273.538 268.946 273.963C271.916 274.953 274.038 277.074 274.745 279.479C275.452 282.024 274.745 284.712 272.624 287.54C270.502 290.369 267.674 292.632 263.572 294.895C263.148 295.037 262.865 295.319 262.441 295.461H262.016C261.875 298.29 262.723 300.835 264.421 302.674C266.259 304.796 269.088 305.927 272.058 306.069C277.716 306.21 282.666 302.674 285.071 296.734C286.202 293.764 288.04 292.491 290.869 292.915C292.566 293.056 293.981 294.047 294.83 295.319C295.82 296.875 295.961 298.714 295.254 300.694L295.678 300.835ZM326.653 243.837C326.228 247.09 324.248 248.928 321.137 248.928H320.854C320.288 248.928 319.722 248.928 319.156 248.928C317.883 248.928 316.611 249.07 315.338 249.211H314.065C314.772 255.152 313.782 259.96 311.236 263.072C309.398 265.476 306.71 266.749 303.316 267.174C302.75 267.174 302.184 267.174 301.618 267.174C297.941 267.174 294.546 265.759 291.718 263.072C288.889 260.385 287.616 256.849 287.899 251.898C286.202 253.171 285.919 254.727 284.929 264.628V264.911H284.646C284.08 264.911 283.373 264.911 282.807 264.911C280.969 264.911 278.989 264.911 277.15 264.911C276.584 264.911 275.736 264.062 275.736 263.496C275.311 257.414 275.453 251.191 279.837 245.817C282.383 242.705 285.919 240.725 290.586 239.876C297.658 238.462 305.013 238.321 311.943 238.179C313.216 238.179 314.489 238.179 315.62 238.179C317.742 238.179 320.147 238.179 322.268 238.462C325.097 239.028 326.794 241.149 326.37 243.837H326.653Z" fill="#E6E6E6"/>
<path d="M365.972 220.358C365.547 218.944 365.123 217.529 365.265 216.398C365.547 213.569 365.689 210.741 365.689 207.912C365.689 201.264 365.831 194.758 365.689 187.969C365.689 178.493 365.406 168.592 363.709 158.833C363.143 155.439 362.436 151.196 359.466 147.377C355.788 142.568 351.546 142.568 349.283 142.992C347.02 143.417 344.049 143.983 341.22 145.255C331.32 149.923 322.975 156.712 315.762 162.511C311.802 165.764 307.983 169.017 304.305 172.411C302.467 173.967 300.628 175.664 298.789 177.22C269.371 177.22 240.659 177.22 213.504 177.22C211.241 175.24 208.978 173.401 207.139 171.704C196.673 162.369 187.62 155.439 178.71 149.781C175.316 147.66 170.931 144.831 165.981 143.558C159.192 141.72 153.817 144.124 150.847 150.63C150.422 151.62 149.857 152.752 149.574 154.166C149.433 155.297 149.15 156.429 149.008 157.419C148.301 160.955 147.735 164.491 147.452 168.168C146.887 174.674 146.745 181.18 146.745 186.131C146.745 191.929 146.745 197.728 146.745 203.527C146.745 205.507 146.745 207.629 146.745 209.609C146.745 210.599 146.745 211.589 146.745 212.579C146.745 215.549 147.028 218.378 146.18 221.065C142.785 232.38 140.805 244.685 140.239 257.415C139.956 264.911 139.957 272.407 139.957 279.761V283.439C139.957 293.056 140.381 300.835 141.229 308.19C142.219 317.666 144.341 326.86 147.17 335.487C148.726 340.013 150.847 345.388 154.807 350.055C159.333 355.43 165.415 358.966 174.184 361.512C180.831 363.492 187.903 364.765 195.682 365.613L200.916 366.179C208.836 367.028 216.898 367.876 224.96 368.301C232.456 368.725 239.811 368.866 246.883 369.149H247.165C250.135 369.149 252.822 369.291 255.51 369.432H255.793C258.48 369.432 261.168 369.432 263.713 369.291H264.562C270.927 369.149 277.008 369.008 283.231 368.725C288.323 368.584 292.991 368.301 297.375 367.876C301.477 367.452 305.437 367.028 309.397 366.604H309.68C311.519 366.321 313.358 366.179 315.196 365.896C323.117 365.048 330.472 363.775 337.402 361.936C349.848 358.683 358.617 351.328 363.143 340.155C367.245 330.396 369.791 319.505 370.922 307.2C371.488 300.694 371.912 293.622 372.054 285.419V282.307C372.195 270.568 372.336 258.546 370.78 246.524C369.79 238.745 368.376 229.551 365.548 220.5L365.972 220.358ZM362.861 282.024V285.136C362.861 293.057 362.436 299.845 361.87 306.069C360.739 317.384 358.476 327.284 354.798 336.195C351.262 344.681 345.181 349.773 335.563 352.318C329.057 354.016 322.268 355.289 314.772 355.996C312.933 356.137 311.094 356.42 309.256 356.561H308.973C305.154 356.986 301.194 357.552 297.233 357.834C292.99 358.259 288.465 358.542 283.656 358.683C277.574 358.824 271.492 359.107 265.128 359.249H264.279C261.733 359.249 259.046 359.39 256.5 359.532C253.813 359.532 250.984 359.39 248.155 359.249H247.872C240.8 359.107 233.588 358.824 226.374 358.4C218.454 357.976 210.533 357.127 202.754 356.279L197.521 355.713C190.308 355.006 183.801 353.733 177.72 352.035C170.789 350.055 166.263 347.368 163.01 343.549C160.04 340.013 158.343 335.77 157.211 332.093C154.524 324.031 152.686 315.545 151.695 306.917C150.988 299.987 150.564 292.349 150.564 283.156V279.479C150.564 272.265 150.564 264.911 150.847 257.697C151.412 245.675 153.252 234.219 156.363 223.611C157.636 219.51 157.353 215.549 157.353 212.013C157.353 211.165 157.353 210.175 157.353 209.185C157.353 207.205 157.353 205.083 157.353 202.961C157.353 197.304 157.212 191.647 157.353 185.989C157.353 181.18 157.494 174.957 158.06 168.734C158.343 165.622 158.909 162.369 159.616 159.116C159.758 157.843 160.04 156.712 160.182 155.439C160.182 155.297 160.465 154.732 160.606 154.307C161.596 152.186 162.162 152.044 164.283 152.61C167.819 153.6 171.214 155.722 174.467 157.702C182.953 163.076 191.581 169.724 201.623 178.634C203.745 180.473 206.29 182.736 208.836 184.999C210.109 186.131 211.948 186.696 213.645 186.696C241.367 186.696 270.643 186.696 300.769 186.696C302.467 186.696 304.164 186.131 305.296 184.999C307.417 183.16 309.539 181.322 311.66 179.483C315.338 176.23 319.015 172.977 322.834 169.865C329.623 164.349 337.402 158.126 346.312 153.883C348.009 153.034 350.131 152.61 351.687 152.327C351.687 152.327 351.97 152.327 352.535 153.176C353.95 155.015 354.374 157.702 354.94 160.248C356.496 169.3 356.637 178.634 356.778 187.969C356.778 194.475 356.778 200.981 356.778 207.487C356.778 209.892 356.637 212.579 356.354 215.125C356.071 218.095 356.778 220.641 357.344 222.904C359.89 231.249 361.163 240.018 362.153 247.372C363.709 258.687 363.567 270.427 363.285 281.883L362.861 282.024Z" fill="#E6E6E6"/>
<path d="M469.362 270.426L479.404 267.032L469.645 262.789L469.362 270.426Z" fill="#E6E6E6"/>
<path d="M124.434 420.491L112.235 436.977L125.082 446.483L137.281 429.998L124.434 420.491Z" fill="#E6E6E6"/>
<path d="M250.958 28.7115L235.285 29.6152L236.449 49.8071L252.122 48.9034L250.958 28.7115Z" fill="#E6E6E6"/>
<path d="M438.387 355.147L456.774 364.057L463.704 349.631L445.318 340.862L438.387 355.147Z" fill="#E6E6E6"/>
<path d="M459.745 316.818L468.938 319.081C469.787 319.364 470.635 319.364 471.342 319.222C472.049 319.222 472.616 318.939 473.181 318.656C473.747 318.374 474.171 317.808 474.596 317.242C475.02 316.676 475.302 315.828 475.585 314.979L478.132 304.796L458.33 299.987L455.784 310.17C455.36 312.009 455.502 313.423 456.209 314.555C456.916 315.686 458.047 316.393 459.886 316.818H459.745Z" fill="#E6E6E6"/>
<path d="M31.8992 266.466L42.0822 270.002L41.7997 262.223L31.8992 266.466Z" fill="#E6E6E6"/>
<path d="M256.5 15.6997C123.974 15.6997 16.058 123.474 16.058 256.142C16.058 388.809 123.833 496.584 256.5 496.584C389.167 496.584 496.942 388.809 496.942 256.142C496.942 123.474 389.167 15.6997 256.5 15.6997ZM481.242 239.594L472.615 233.37L463.988 239.594L467.24 229.552L458.613 223.328H469.22L472.474 213.286L475.727 223.328H486.334L477.706 229.552L480.96 239.594H481.242ZM463.139 176.089L466.957 185.989L477.565 185.423L469.362 192.071L473.181 201.972L464.27 196.173L456.067 202.82L458.754 192.637L449.844 186.838L460.452 186.272L463.139 176.089ZM452.673 256C452.673 308.473 432.306 357.693 395.249 394.749C358.193 431.806 308.973 452.173 256.5 452.173C204.027 452.173 154.807 431.806 117.751 394.749C80.6943 357.693 60.3273 308.473 60.3273 256C60.3273 203.527 80.6943 154.307 117.751 117.251C154.807 80.1947 204.027 59.8279 256.5 59.8279C308.973 59.8279 358.193 80.1947 395.249 117.251C432.306 154.307 452.673 203.527 452.673 256ZM445.035 136.911L449.844 146.387L460.31 144.69L452.814 152.186L457.623 161.662L448.146 156.853L440.651 164.349L442.347 153.883L432.872 149.074L443.338 147.377L445.035 136.911ZM420.283 90.9439L410.383 99.9959L421.132 111.594L431.032 102.542L435.417 107.351L410.949 129.839L406.564 125.03L416.323 115.978L405.574 104.38L395.815 113.432L391.43 108.623L415.899 86.135L420.283 90.9439ZM377.145 60.2522C377.711 59.8279 378.418 59.6865 379.126 59.545C379.833 59.545 380.54 59.545 381.247 59.545C381.954 59.6865 382.661 59.9694 383.227 60.3937L396.946 70.1527C397.512 70.5771 398.078 71.1429 398.36 71.7086C398.785 72.2743 398.926 72.9815 399.068 73.6887C399.068 74.3958 399.068 75.103 399.068 75.8102C398.926 76.5174 398.644 77.2246 398.22 77.7904L395.249 81.892L390.016 78.0732L392.421 74.8201L380.257 66.1925L368.518 82.5991L380.681 91.2268L382.944 87.9738L388.177 91.7925L385.207 95.8942C384.783 96.4599 384.217 97.0257 383.651 97.3086C383.085 97.7329 382.378 97.8743 381.671 98.0157C381.388 98.0157 381.105 98.0157 380.823 98.0157C380.54 98.0157 379.974 98.0157 379.55 98.0157C378.843 97.8743 378.135 97.5915 377.57 97.1672L363.85 87.408C363.284 86.9837 362.719 86.418 362.436 85.8522C362.011 85.2865 361.87 84.5793 361.729 83.8721C361.729 83.1649 361.729 82.4577 361.729 81.7506C361.87 81.0434 362.153 80.3362 362.577 79.7704L375.448 61.6666C375.872 61.1008 376.438 60.5351 377.004 60.2522H377.145ZM340.372 37.9053L362.86 48.0887L360.173 54.029L343.483 46.5328L340.655 52.7561L354.798 59.2621L352.111 65.2025L337.968 58.6964L335.139 64.9196L351.828 72.4158L349.141 78.356L326.653 68.1727L340.372 37.9053ZM298.365 25.7417L324.531 32.2478L322.975 38.6124L313.075 36.0666L306.568 61.9495L300.204 60.3937L306.71 34.5107L296.809 31.9649L298.365 25.6003V25.7417ZM228.496 26.5903C228.779 25.8832 229.061 25.3174 229.627 24.7517C230.051 24.1859 230.617 23.7616 231.325 23.4787C232.032 23.1958 232.739 22.913 233.446 22.913L251.267 21.9229C251.974 21.9229 252.681 21.923 253.388 22.2058C254.095 22.4887 254.661 22.7716 255.227 23.3373C255.793 23.7616 256.217 24.3274 256.5 25.0346C256.783 25.7417 257.066 26.4489 257.066 27.1561L258.338 49.3616C258.338 50.0688 258.339 50.7759 258.056 51.4831C257.773 52.1903 257.49 52.7561 256.924 53.3219C256.5 53.8876 255.934 54.3119 255.227 54.5947C254.52 54.8776 253.813 55.1605 253.106 55.1605L235.285 56.1506H235.001C234.436 56.1506 233.729 56.1506 233.163 55.8677C232.456 55.5848 231.89 55.302 231.325 54.7362C230.759 54.3119 230.334 53.7462 230.051 53.039C229.768 52.3318 229.485 51.6246 229.485 50.9174L228.213 28.7119C228.213 28.0047 228.213 27.2975 228.496 26.5903ZM185.075 32.955L207.563 49.7859L201.623 28.429L207.846 26.7317L216.756 58.6964L210.957 60.2522L188.469 43.4213L194.41 64.7782L188.186 66.4754L179.276 34.5107L185.075 32.955ZM139.532 53.039L165.132 64.6368L154.807 44.9771L160.606 42.0069L176.164 71.4257L170.931 74.2544L145.331 62.6566L155.656 82.3163L149.857 85.2865L134.299 55.8677L139.532 53.039ZM110.255 73.4058L141.371 90.8025L136.279 95.0456L129.631 91.2268L119.872 99.2887L122.277 106.643L117.185 110.886L105.87 77.0832L110.396 73.4058H110.255ZM70.2279 114.847L80.6947 123.191L90.5953 110.886L80.1284 102.542L84.2306 97.45L110.113 118.241L106.012 123.333L95.5456 114.988L85.645 127.293L96.1112 135.638L92.0096 140.73L66.1264 119.938L70.2279 114.847ZM59.6201 150.064L64.4295 140.588L66.1264 151.054L76.5925 152.752L67.1167 157.56L68.8135 168.027L61.3177 160.531L51.8411 165.339L56.6505 155.863L49.154 148.367L59.6201 150.064ZM43.7797 185.989L47.598 176.089L50.2859 186.272L60.8936 186.838L51.9827 192.637L54.6699 202.82L46.4668 196.173L37.5566 201.972L41.375 192.071L33.1719 185.423L43.7797 185.989ZM36.0007 223.328L39.2534 213.286L42.5069 223.328H53.1146L44.4869 229.552L47.7396 239.594L39.1119 233.37L30.4848 239.594L33.7375 229.552L25.1098 223.328H35.7175H36.0007ZM22.1395 263.779L55.2362 249.636L55.5186 256.425L48.3052 259.536L48.7299 272.266L56.0842 274.811L56.3674 281.6L22.281 269.861V263.921L22.1395 263.779ZM25.3929 298.007L58.4889 291.925L59.6201 298.431L26.5241 304.513L25.3929 298.007ZM42.9309 347.934C42.2237 347.934 41.5165 347.651 40.8094 347.368C40.2436 347.085 39.6776 346.661 39.1119 346.095C38.5461 345.53 38.2635 344.964 37.9806 344.257L32.3232 328.133C32.0403 327.426 32.04 326.719 32.04 326.011C32.04 325.304 32.3235 324.597 32.6063 324.031C32.8892 323.324 33.3134 322.758 33.8791 322.334C34.0206 322.334 34.1617 322.051 34.3032 321.91C34.7275 321.627 35.1518 321.344 35.7175 321.202L40.5262 319.505L42.6478 325.728L38.8294 327.143L43.7797 341.286L63.0152 334.498L58.0649 320.354L52.8315 322.193L55.6602 330.254L49.4371 332.376L44.4869 318.091L56.933 313.706C57.6402 313.423 58.3474 313.423 59.0545 313.423C59.7617 313.423 60.4689 313.706 61.1761 313.989C61.8833 314.272 62.4493 314.696 62.8736 315.262C63.2979 315.828 63.7219 316.394 64.0048 317.101L69.6623 333.225C69.9451 333.932 69.9454 334.639 69.9454 335.346C69.9454 336.053 69.6627 336.76 69.3798 337.468C69.0969 338.175 68.6721 338.741 68.1063 339.165C67.5406 339.731 66.9751 340.014 66.2679 340.296L45.0525 347.793C44.3453 348.075 43.6381 348.075 42.9309 348.075V347.934ZM66.4095 390.648C65.7023 390.648 64.9951 390.648 64.288 390.648C63.5808 390.506 63.0152 390.223 62.308 389.799C61.7422 389.375 61.1764 388.809 60.752 388.243L51.4171 372.827C50.9928 372.12 50.7099 371.412 50.7099 370.705C50.7099 369.998 50.7099 369.291 50.7099 368.584C50.8514 367.877 51.1344 367.311 51.5587 366.604C51.8415 366.179 52.2657 365.755 52.8315 365.331C52.8315 365.331 53.1141 365.189 53.2555 365.048L72.491 353.309C73.1982 352.884 73.7639 352.601 74.6125 352.601C75.3197 352.601 76.0269 352.601 76.7341 352.601C77.4413 352.743 78.0069 353.026 78.7141 353.45C79.2798 353.874 79.8457 354.44 80.27 355.006L89.6049 370.422C90.0293 371.13 90.3121 371.695 90.3121 372.544C90.3121 373.251 90.3121 373.958 90.3121 374.665C90.1707 375.373 89.8877 375.938 89.4634 376.646C89.0391 377.211 88.4732 377.777 87.9074 378.201L68.6726 389.941C67.9654 390.365 67.3997 390.648 66.5511 390.648H66.4095ZM85.0787 418.369L105.021 400.124L94.1312 388.102L98.9399 383.717L114.215 400.548L89.3218 423.178L84.9378 418.369H85.0787ZM130.622 449.768C130.197 450.334 129.631 450.9 128.924 451.183C128.358 451.607 127.651 451.748 126.944 451.89C126.237 451.89 125.53 451.89 124.822 451.89C124.115 451.748 123.408 451.465 122.843 450.9L108.416 440.151C107.85 439.726 107.284 439.161 107.001 438.453C106.577 437.888 106.436 437.18 106.294 436.473C106.294 435.766 106.294 435.059 106.294 434.352C106.436 433.644 106.719 432.937 107.285 432.372L120.721 414.268C121.004 413.843 121.428 413.419 121.852 413.136C121.994 413.136 122.135 412.995 122.277 412.853C122.843 412.429 123.55 412.288 124.257 412.146C124.964 412.146 125.671 412.146 126.378 412.146C127.086 412.288 127.793 412.57 128.358 413.136L142.785 423.885C143.351 424.31 143.917 424.875 144.2 425.583C144.624 426.148 144.765 426.856 144.907 427.563C144.907 428.27 144.907 428.977 144.907 429.684C144.765 430.391 144.482 431.099 143.916 431.664L130.48 449.768H130.622ZM171.921 477.065L166.405 474.52L160.04 446.798L150.706 467.165L144.765 464.478L158.767 433.927L164.283 436.473L170.648 464.195L179.983 443.828L185.923 446.515L171.921 477.065ZM223.97 462.073L219.019 483.996C218.878 484.703 218.595 485.41 218.171 485.976C217.746 486.542 217.18 487.107 216.615 487.39C216.049 487.815 215.342 487.956 214.635 488.098C213.927 488.239 213.22 488.098 212.372 488.098L195.682 484.42C194.975 484.279 194.268 483.996 193.702 483.572C193.137 483.147 192.571 482.582 192.288 482.016C191.864 481.45 191.581 480.743 191.439 480.036C191.439 479.328 191.439 478.621 191.439 477.773L192.57 472.822L198.935 474.237L198.087 478.197L212.796 481.45L217.322 461.507L202.613 458.254L201.764 462.215L195.399 460.8L196.531 455.85C196.673 455.143 196.956 454.436 197.38 453.87C197.804 453.304 198.228 452.88 198.653 452.597C198.653 452.597 198.794 452.597 198.935 452.456C199.501 452.031 200.209 451.748 200.916 451.748C201.623 451.748 202.33 451.748 203.178 451.748L219.868 455.426C220.575 455.567 221.282 455.85 221.848 456.274C222.414 456.699 222.98 457.264 223.262 457.83C223.687 458.396 223.97 459.103 223.97 459.81C223.97 460.517 223.97 461.225 223.97 462.073ZM261.309 492.199L236.275 491.633V485.127C236.416 485.127 254.944 485.552 254.944 485.552V478.621C255.085 478.621 239.386 478.197 239.386 478.197V471.691C239.527 471.691 255.369 472.115 255.369 472.115V465.185C255.51 465.185 237.123 464.76 237.123 464.76V458.254C237.264 458.254 262.299 458.82 262.299 458.82L261.45 492.341L261.309 492.199ZM278.281 491.209L277.291 484.703L287.474 483.147L283.373 456.416L289.879 455.426L293.981 482.157L304.164 480.601L305.154 487.107L278.139 491.351L278.281 491.209ZM354.233 470.135L328.067 445.525L334.148 442.555L339.806 447.93L351.404 442.414L350.838 434.635L356.92 431.664L359.749 467.589L354.374 470.135H354.233ZM404.584 438.736L400.058 433.927L413.636 421.339L408.968 416.248L397.371 426.997L392.845 422.188L404.443 411.439L399.775 406.347L386.198 418.935L381.671 414.126L400.058 397.154L422.829 421.764L404.443 438.736H404.584ZM434.568 409.176L429.336 405.216L435.559 396.871L413.918 380.889L417.879 375.656L439.519 391.638L445.742 383.293L450.975 387.253L434.71 409.176H434.568ZM470.069 351.611L462.29 367.877C462.007 368.584 461.441 369.149 460.876 369.574C460.31 369.998 459.744 370.422 459.037 370.705C458.33 370.988 457.623 370.988 456.916 370.988C456.209 370.988 455.501 370.705 454.794 370.422L434.568 360.663C433.861 360.38 433.296 359.956 432.872 359.39C432.447 358.825 432.022 358.259 431.74 357.552C431.457 356.844 431.457 356.137 431.457 355.43C431.457 354.723 431.74 354.016 432.023 353.309L439.802 337.043C440.085 336.336 440.509 335.77 441.075 335.346C441.075 335.346 441.357 335.063 441.499 335.063C441.923 334.78 442.489 334.497 442.913 334.356C443.62 334.073 444.327 334.073 445.035 334.073C445.742 334.073 446.449 334.356 447.156 334.639L467.382 344.398C468.089 344.681 468.654 345.105 469.079 345.671C469.503 346.237 469.928 346.803 470.211 347.51C470.493 348.217 470.493 348.924 470.493 349.631C470.493 350.338 470.352 351.046 469.927 351.753L470.069 351.611ZM482.091 316.535C481.667 318.232 480.96 319.788 480.111 321.061C479.263 322.334 478.131 323.466 476.858 324.173C475.585 325.021 474.171 325.446 472.474 325.587C470.918 325.728 469.221 325.587 467.523 325.304L458.33 323.041C456.633 322.617 455.077 321.91 453.804 321.061C452.531 320.212 451.399 319.081 450.692 317.808C449.985 316.535 449.419 315.121 449.278 313.565C449.136 312.009 449.278 310.312 449.561 308.615L453.662 292.067L486.334 299.987L482.233 316.535H482.091ZM455.077 282.025L455.36 275.236L462.714 272.69L463.28 259.961L456.209 256.849L456.491 250.06L489.587 264.204L489.305 270.144L455.218 281.883L455.077 282.025Z" fill="#E6E6E6"/>
<path d="M74.5794 359.673L57.0746 370.358L65.4015 384L82.9064 373.315L74.5794 359.673Z" fill="#E6E6E6"/>
<path d="M123.408 87.8319L114.215 82.7402L117.609 92.7822L123.408 87.8319Z" fill="#E6E6E6"/>
<path d="M344.898 452.738L352.677 460.093L351.828 449.344L344.898 452.738Z" fill="#E6E6E6"/>
<path d="M256.5 0C115.346 0 0.5 114.846 0.5 256C0.5 397.154 115.346 512 256.5 512C397.654 512 512.5 397.154 512.5 256C512.5 114.846 397.654 0 256.5 0ZM256.5 506.484C118.458 506.484 6.15746 394.183 6.15746 256.141C6.15746 118.099 118.458 5.79886 256.5 5.79886C394.542 5.79886 506.843 118.099 506.843 256.141C506.843 394.183 394.542 506.484 256.5 506.484Z" fill="#E6E6E6"/>
</svg>
