<svg width="77" height="71" viewBox="0 0 77 71" fill="none" xmlns="http://www.w3.org/2000/svg">
<path d="M68.3173 25.6623C68.2007 25.2608 68.0453 24.8228 68.0842 24.4213C68.0842 23.5452 68.1619 22.6692 68.2007 21.8296C68.2396 20.6251 68.3173 19.384 68.3173 18.1795C68.3173 15.8433 68.2785 13.5072 68.1618 11.2441C68.1229 10.1856 67.9674 9.20001 67.8119 8.10496C67.7341 7.66694 67.6953 7.22892 67.6564 6.75439C67.6564 6.75439 67.6175 6.75439 67.5786 6.75439C67.5008 6.7909 67.423 6.8274 67.3842 6.8639C64.779 8.43347 62.2905 10.1491 60.0353 11.9741C58.7133 13.0327 57.4302 14.1278 56.1859 15.1863C55.7971 15.5148 55.4083 15.8433 55.0194 16.1719C54.5528 16.5734 54.0085 16.7559 53.3086 16.7559C43.3546 16.7559 33.4394 16.7559 23.4853 16.7559C22.8243 16.7559 22.28 16.5734 21.7745 16.1354C20.5303 15.0768 19.286 14.0182 18.314 13.2152C15.5533 10.8791 12.6369 8.83499 9.64294 7.08291C9.52629 7.0099 9.37076 6.9369 9.25411 6.8639C9.21523 6.8639 9.17642 6.8274 9.13754 6.7909C9.13754 6.7909 9.13754 6.7909 9.13754 6.8274C9.13754 6.9004 9.1375 6.9369 9.09862 7.00991C9.05974 7.52093 8.98197 8.06846 8.9042 8.57948C8.74867 9.74754 8.63206 10.9886 8.5543 12.1932C8.321 15.9163 8.47642 19.749 8.63195 23.0342C8.63195 23.1072 8.63195 23.1802 8.63195 23.2897C8.67083 24.0927 8.70987 24.9323 8.3988 25.7353C8.32104 25.8813 8.282 26.0273 8.24312 26.1733C8.24312 26.2463 8.24327 26.2828 8.20439 26.3559C7.46561 28.838 6.99898 31.0646 6.80456 33.2182C6.64903 34.7878 6.53238 36.4668 6.41573 38.5109C6.37685 39.314 6.41573 40.117 6.41573 40.9566C6.41573 41.2851 6.41573 41.6501 6.41573 42.0151C6.41573 42.0151 6.4545 42.0151 6.49338 42.0151C6.57115 42.0151 6.68791 42.0151 6.80456 42.0151C7.46557 42.0151 8.12662 42.0516 8.78763 42.0881C10.0319 42.1246 11.276 42.1611 12.5202 42.1976H12.6759C13.5314 42.1976 14.3866 42.2706 15.2421 42.3436C15.9808 42.4166 16.6418 43.0007 16.7974 43.6942C16.9529 44.4607 16.6031 45.1543 15.9421 45.5923C15.4755 45.8843 14.931 45.8843 14.4644 45.8478C13.0646 45.8113 11.7038 45.7748 10.304 45.7018C9.13754 45.6653 7.93213 45.6288 6.76564 45.5923C6.68788 45.5923 6.5713 45.5923 6.45465 45.5923C6.45465 45.5923 6.37677 45.5923 6.33789 45.5923L6.57123 49.6075L7.73772 49.3885C8.67091 49.206 9.56522 49.06 10.4595 48.8774C10.965 48.7679 11.4704 48.6949 11.937 48.5854C12.9091 48.4029 13.8811 48.2204 14.8532 48.0379C15.7864 47.8554 16.4863 48.0379 16.9918 48.6584C17.3806 49.1695 17.4973 49.7535 17.264 50.301C17.0307 50.8851 16.4475 51.3596 15.7476 51.5056C14.5034 51.7611 13.2202 52.0166 12.0148 52.2721C11.7038 52.3451 11.3538 52.3816 11.0428 52.4546C10.1485 52.6371 9.21523 52.7831 8.28204 52.9656C7.89321 53.0387 7.50434 53.1117 7.07663 53.1847C7.1544 53.4767 7.2322 53.8052 7.30996 54.0972C7.69879 55.8493 8.08766 57.5284 8.9042 59.1345C9.72075 60.777 10.9651 61.7991 12.6759 62.2371C14.309 62.6386 16.0586 63.0766 17.8084 63.2957C20.7635 63.6972 23.6409 63.9892 26.4405 64.1717C29.3567 64.3542 32.3118 64.4637 35.1891 64.5367H35.6556C37.3665 64.6097 39.1552 64.6097 41.0605 64.5367C43.7823 64.4637 46.8539 64.3907 49.8868 64.2082C52.3753 64.0622 54.864 63.8067 57.3913 63.5512C59.6077 63.3322 61.5906 62.9306 63.5348 62.4196C65.5567 61.8721 66.9176 60.8135 67.6564 59.244C68.5896 57.2729 69.0562 55.1923 69.4451 53.2212C69.2118 53.1482 68.9394 53.1117 68.7061 53.0387C68.1229 52.8927 67.5398 52.7831 66.9177 52.6371C65.9456 52.4546 64.9346 52.2356 63.9625 52.0531C62.9127 51.8341 61.8239 51.6151 60.7351 51.3961C60.1908 51.2866 59.6854 50.9581 59.4521 50.4835C59.1799 50.0455 59.1411 49.498 59.3355 49.0235C59.6854 48.1839 60.5797 47.7459 61.6296 47.9284C62.7183 48.1109 63.8458 48.3299 64.8957 48.5489C65.44 48.6584 65.9845 48.7679 66.5288 48.8774C67.3454 49.0235 68.1619 49.1695 68.9784 49.352L70.0283 49.5345L70.2227 45.5193C70.1061 45.5193 70.0282 45.5193 69.9115 45.5193C69.6782 45.5193 69.4839 45.5193 69.2507 45.5193C68.3175 45.5193 67.4231 45.5558 66.4899 45.5923C64.8957 45.6288 63.3016 45.7018 61.6685 45.7383C60.7742 45.7383 60.0353 45.2273 59.802 44.3877C59.5687 43.5847 59.9964 42.7817 60.7351 42.4531C61.0462 42.3071 61.4739 42.2341 61.9016 42.2341C63.2236 42.1976 64.5457 42.1611 65.8288 42.0881C66.5676 42.0881 67.3065 42.0516 68.0452 42.0151C68.5507 42.0151 69.0951 41.9786 69.6006 41.9421C69.795 41.9421 70.0283 41.9421 70.2227 41.9421C70.2227 41.9056 70.2227 41.8691 70.2227 41.8326C70.2616 39.022 70.106 36.2478 69.795 33.5467C69.4839 30.8091 68.9006 28.1444 68.1229 25.6623H68.3173ZM23.3687 40.0075C20.7247 40.0075 18.5083 38.4014 17.8473 36.0288C17.7306 35.5908 17.7307 35.1528 17.7307 34.6783C17.7307 34.5688 17.7306 34.4592 17.6529 34.4227C17.614 34.3862 17.5361 34.3862 17.3806 34.3862C16.8363 34.3862 16.3309 34.3862 15.7866 34.3862C15.6699 34.3862 15.5144 34.3862 15.3977 34.3862C14.8145 34.3862 14.3089 34.2037 13.959 33.8387C13.609 33.5102 13.4147 33.0722 13.4147 32.5612C13.4147 31.6121 14.2701 30.8456 15.3588 30.8456C20.8802 30.8456 26.0516 30.8456 31.1064 30.8456C31.6119 30.8456 32.1174 31.0281 32.4673 31.3566C32.8173 31.6851 32.9727 32.1231 32.9727 32.5612C32.9727 33.5467 32.1563 34.3497 31.1064 34.3497C30.6398 34.3497 30.1732 34.3497 29.7066 34.3497C29.5122 34.3497 29.3567 34.3497 29.1623 34.3497C29.1623 34.5322 29.1622 34.6783 29.1234 34.8608C29.1234 35.2623 29.0456 35.6638 28.9679 36.0288C28.3846 38.2554 26.4404 39.7885 23.8352 39.971C23.6797 39.971 23.4854 39.971 23.3298 39.971L23.3687 40.0075ZM52.2198 48.5124C51.6366 51.2866 49.8091 53.0752 46.8151 53.8417C45.9597 54.0607 45.1432 54.1702 44.3266 54.1702C42.1492 54.1702 40.205 53.3672 38.4553 51.7246C38.4553 51.7246 38.4163 51.6881 38.3774 51.6516C37.4053 52.6371 36.2389 53.3307 34.878 53.7322C33.206 54.2432 31.3785 54.2432 29.6677 53.7687C27.9568 53.2942 26.5182 52.3086 25.585 51.0676C24.8851 50.1185 24.4962 49.206 24.4185 48.2569C24.3407 47.3809 25.0018 46.5413 26.0127 46.3588C26.8681 46.1763 27.8013 46.6873 28.1513 47.4904C28.1902 47.6364 28.229 47.7459 28.2678 47.8919C28.3067 48.0379 28.3458 48.1839 28.4235 48.3299C28.929 49.498 29.9011 50.1915 31.3398 50.447C33.0506 50.739 34.3726 50.3375 35.4225 49.3155C35.9279 48.8044 36.2001 48.2569 36.2001 47.6364C36.2001 47.5269 36.1224 47.3444 36.0057 47.2349C35.5391 46.7968 35.1114 46.3953 34.6448 45.9938C34.1004 45.4828 33.517 44.9718 32.9338 44.4242C32.1173 43.6577 31.9228 42.7086 32.3506 41.6866C32.7394 40.7741 33.6727 40.2265 34.8003 40.2265H36.2778C38.1053 40.2265 39.9717 40.2265 41.7992 40.2265C42.9657 40.2265 43.7822 40.7011 44.2099 41.6136C44.6765 42.5261 44.5598 43.4387 43.821 44.2782C43.6655 44.4607 43.5101 44.6067 43.3546 44.7527C43.3157 44.7892 43.2767 44.8258 43.2378 44.8623C42.499 45.5558 41.6825 46.3223 40.9048 47.0889C40.827 47.1619 40.7105 47.2349 40.5938 47.3079C40.5549 47.3079 40.4772 47.3809 40.4383 47.4174C40.4383 48.0014 40.6327 48.5854 41.1381 49.1695C41.9158 50.0455 43.2378 50.5565 44.6376 50.4835C45.9985 50.4105 47.204 49.863 47.865 48.9505C48.0983 48.6584 48.2538 48.2569 48.3704 47.7459C48.6426 46.7603 49.5369 46.1398 50.4701 46.3223C51.5588 46.5413 52.2976 47.5269 52.1032 48.4759L52.2198 48.5124ZM63.0294 33.4737C62.6794 34.0577 62.135 34.3497 61.3962 34.3497C60.8519 34.3497 60.2686 34.3497 59.6854 34.3497C59.4521 34.3497 59.2187 34.3497 58.9854 34.3497C59.102 36.3208 58.2857 37.8904 56.6137 39.022C55.6416 39.679 54.5528 39.971 53.3863 39.971C53.2308 39.971 53.0364 39.971 52.8809 39.971C51.3644 39.8615 50.0035 39.241 48.9926 38.2189C47.9816 37.1969 47.4372 35.8098 47.5538 34.3497H47.0484C46.6207 34.3497 46.1929 34.3497 45.7652 34.3497C44.5987 34.3497 43.7823 33.6197 43.7823 32.5612C43.7823 31.5391 44.56 30.8091 45.7265 30.8091C47.5151 30.8091 49.3814 30.8091 51.1311 30.8091C51.831 30.8091 52.5309 30.8091 53.2308 30.8091H55.4472C57.3525 30.8091 59.3355 30.8091 61.2796 30.8091C62.0184 30.8091 62.6405 31.1376 62.9905 31.6851C63.3404 32.2326 63.3404 32.8897 62.9905 33.4737H63.0294Z" fill="#C5F700"/>
<path d="M76.2883 32.0865C75.9383 29.6774 75.4718 26.8303 74.5775 24.0196C74.4219 23.5451 74.3052 23.1436 74.3441 22.7786C74.4219 21.9025 74.4998 20.99 74.4998 20.1504C74.4998 18.0698 74.5387 16.0622 74.4998 13.9816C74.4998 11.025 74.422 7.99535 73.8776 4.9657C73.6832 3.90715 73.4499 2.59309 72.4778 1.42503C71.2724 -0.0350432 69.8726 -0.0715433 69.1338 0.037962C68.3951 0.147467 67.3842 0.329976 66.4899 0.767998C63.2237 2.22807 60.463 4.30867 58.0911 6.13376C56.808 7.11931 55.5248 8.17786 54.3194 9.19991C53.7362 9.67443 53.1142 10.1855 52.5309 10.6965C42.8102 10.6965 33.3616 10.6965 24.3408 10.6965C23.5631 10.1125 22.8631 9.49192 22.2409 8.9809C18.8192 6.09726 15.8254 3.94365 12.8314 2.19157C11.7038 1.53454 10.265 0.658492 8.63191 0.256972C6.37669 -0.327056 4.58811 0.439481 3.61604 2.44708C3.46051 2.73909 3.30498 3.10411 3.22721 3.54213C3.14944 3.87065 3.11056 4.23567 3.0328 4.56418V4.63719C2.7995 5.69574 2.60512 6.79079 2.48847 7.88584C2.29406 9.92994 2.25514 11.9375 2.25514 13.4706C2.25514 15.2592 2.25514 17.0843 2.25514 18.8729C2.25514 19.4934 2.25514 20.1504 2.25514 20.771C2.25514 21.0995 2.25514 21.3915 2.25514 21.72C2.29402 22.6691 2.3329 23.5451 2.06072 24.3481C0.971998 27.8523 0.310988 31.6485 0.116573 35.6272C-7.59479e-05 37.9268 1.28724e-10 40.2629 1.28724e-10 42.5625V43.6941C1.28724e-10 46.6507 0.116649 49.0964 0.38883 51.396C0.738776 54.3161 1.39982 57.1632 2.3719 59.8644C2.87738 61.2879 3.57727 62.9305 4.89929 64.3906C6.41573 66.0697 8.39876 67.1647 11.315 67.9678C13.4924 68.5518 15.8253 68.9898 18.4305 69.2088L20.1802 69.3913C22.7854 69.6469 25.4683 69.9024 28.1123 70.0484C30.5619 70.1944 33.0116 70.2309 35.3446 70.3039H35.4224C36.3945 70.3039 37.2887 70.3404 38.183 70.3769H38.2608C39.1551 70.3769 40.0493 70.3404 40.9048 70.3039H41.177C43.3156 70.2309 45.2985 70.1944 47.3205 70.1214C48.9924 70.0849 50.5477 69.9754 51.9864 69.8659C53.3084 69.7564 54.6694 69.6104 55.9526 69.4643H56.0304C56.6136 69.3913 57.2356 69.3183 57.8189 69.2818C60.4629 69.0263 62.8349 68.6248 65.129 68.0408C69.2506 67.0187 72.1279 64.7556 73.6443 61.2879C75.0052 58.2218 75.8218 54.9001 76.2495 51.0674C76.444 49.0598 76.5606 46.8697 76.5994 44.3146V43.3291C76.6772 39.7154 76.7161 35.9557 76.1717 32.2325L76.2883 32.0865ZM73.4888 43.1831V44.1686C73.4499 46.6142 73.3333 48.7313 73.1389 50.6659C72.789 54.2066 72.0113 57.2362 70.767 60.0104C69.6005 62.6385 67.5786 64.2081 64.3902 65.0111C62.2517 65.5221 60.0353 65.9237 57.5468 66.1792C56.9247 66.2522 56.3414 66.2887 55.7192 66.3617H55.6416C54.3584 66.5077 53.0753 66.6537 51.7533 66.7632C50.3535 66.8727 48.8759 66.9822 47.2428 67.0187C45.2598 67.0917 43.2378 67.1282 41.1381 67.1647H40.866C40.0106 67.1647 39.1552 67.2012 38.2997 67.2377C37.4054 67.2377 36.5111 67.2012 35.539 67.1647H35.4612C33.1282 67.0917 30.7564 67.0552 28.3456 66.9092C25.7405 66.7632 23.0964 66.5077 20.5301 66.2522L18.7804 66.0697C16.3697 65.8507 14.2311 65.4492 12.2092 64.9016C9.954 64.2811 8.43757 63.4781 7.34884 62.2735C6.37677 61.1784 5.83241 59.8644 5.4047 58.7328C4.51039 56.2507 3.88818 53.6226 3.57712 50.9214C3.30494 48.7678 3.18829 46.3952 3.18829 43.5481V42.4165C3.18829 40.1899 3.18837 37.8903 3.26613 35.6637C3.46055 31.9405 4.08275 28.3633 5.09371 25.1147C5.48254 23.8371 5.44358 22.5961 5.4047 21.5375C5.4047 21.2455 5.4047 20.9535 5.4047 20.6615C5.4047 20.0409 5.4047 19.3839 5.4047 18.7269C5.4047 16.9748 5.36581 15.1862 5.4047 13.4341C5.4047 11.974 5.44362 10.0029 5.63803 8.10485C5.7158 7.11931 5.94902 6.13376 6.14343 5.14821V5.07521C6.2212 4.71019 6.299 4.38167 6.37677 4.01666C6.37677 3.94365 6.49338 3.76114 6.53226 3.65164C6.84333 3.03111 7.03782 2.9216 7.77659 3.10411C8.94308 3.39613 10.0707 4.05316 11.1206 4.71019C13.959 6.38927 16.7973 8.43337 20.1024 11.2075C20.8023 11.7915 21.6189 12.4851 22.5132 13.1786C22.9409 13.5071 23.5631 13.7261 24.1074 13.7261C33.2838 13.7261 42.9657 13.7261 52.8808 13.7261C53.4252 13.7261 53.9695 13.5436 54.3972 13.2151C55.0971 12.6676 55.797 12.0835 56.4969 11.4995C57.7023 10.514 58.9465 9.49192 60.1908 8.50637C62.4071 6.79079 65.0122 4.8562 67.9284 3.54213C68.4728 3.28662 69.1727 3.17711 69.7171 3.06761C69.7171 3.06761 69.8339 3.10411 70.0283 3.32312C70.4949 3.90715 70.6504 4.71019 70.8059 5.51323C71.3114 8.32387 71.3503 11.244 71.3892 14.0911C71.3892 16.0987 71.3892 18.1063 71.3892 20.1504C71.3892 20.917 71.3501 21.72 71.2335 22.5231C71.1557 23.4356 71.3503 24.2021 71.5836 24.9322C72.439 27.5603 72.8666 30.2249 73.1776 32.5245C73.6831 36.0287 73.6053 39.6789 73.5665 43.2196L73.4888 43.1831Z" fill="#C5F700"/>
</svg>
