<svg width="116" height="106" viewBox="0 0 116 106" fill="none" xmlns="http://www.w3.org/2000/svg">
<path d="M103.029 38.3348C102.854 37.7325 102.621 37.0753 102.68 36.473C102.68 35.1587 102.796 33.8445 102.855 32.585C102.913 30.7779 103.029 28.916 103.029 27.1089C103.029 23.6042 102.971 20.0995 102.796 16.7043C102.738 15.1163 102.505 13.6377 102.271 11.9949C102.155 11.3378 102.096 10.6806 102.038 9.96875C102.038 9.96875 101.979 9.96875 101.921 9.96875C101.804 10.0235 101.688 10.0783 101.629 10.133C97.7212 12.4877 93.9879 15.0615 90.6046 17.7995C88.6213 19.3876 86.6963 21.0304 84.8297 22.6185C84.2463 23.1113 83.663 23.6042 83.0797 24.097C82.3797 24.6994 81.5631 24.9732 80.5131 24.9732C65.5798 24.9732 50.7047 24.9732 35.7715 24.9732C34.7798 24.9732 33.9632 24.6994 33.2049 24.0423C31.3382 22.4542 29.4716 20.8661 28.0133 19.6614C23.8716 16.1567 19.4965 13.0901 15.0048 10.4616C14.8298 10.3521 14.5965 10.2426 14.4215 10.133C14.3632 10.133 14.3049 10.0783 14.2466 10.0235C14.2466 10.0235 14.2466 10.0235 14.2466 10.0783C14.2466 10.1878 14.2465 10.2426 14.1882 10.3521C14.1299 11.1187 14.0132 11.9401 13.8966 12.7068C13.6632 14.4591 13.4883 16.321 13.3716 18.1281C13.0216 23.7137 13.2548 29.4636 13.4881 34.3921C13.4881 34.5016 13.4881 34.6111 13.4881 34.7754C13.5464 35.9801 13.605 37.2396 13.1383 38.4444C13.0217 38.6634 12.9631 38.8825 12.9048 39.1015C12.9048 39.211 12.905 39.2658 12.8467 39.3753C11.7383 43.099 11.0383 46.4394 10.7466 49.6703C10.5133 52.025 10.3383 54.544 10.1633 57.6106C10.105 58.8154 10.1633 60.0201 10.1633 61.2796C10.1633 61.7725 10.1633 62.3201 10.1633 62.8677C10.1633 62.8677 10.2215 62.8677 10.2798 62.8677C10.3965 62.8677 10.5716 62.8677 10.7466 62.8677C11.7383 62.8677 12.73 62.9224 13.7217 62.9772C15.5883 63.032 17.4548 63.0867 19.3214 63.1415H19.555C20.8383 63.1415 22.1214 63.251 23.4047 63.3605C24.5131 63.4701 25.5047 64.3462 25.7381 65.3867C25.9714 66.5367 25.4466 67.5771 24.4549 68.2342C23.7549 68.6723 22.9381 68.6723 22.2381 68.6176C20.1381 68.5628 18.0966 68.508 15.9966 68.3985C14.2466 68.3438 12.4382 68.289 10.6882 68.2342C10.5716 68.2342 10.3967 68.2342 10.2217 68.2342C10.2217 68.2342 10.1048 68.2342 10.0465 68.2342L10.3966 74.2579L12.1466 73.9294C13.5466 73.6556 14.8882 73.4365 16.2299 73.1627C16.9882 72.9984 17.7464 72.8889 18.4464 72.7246C19.9047 72.4508 21.3631 72.177 22.8214 71.9032C24.2214 71.6294 25.2714 71.9032 26.0297 72.8342C26.6131 73.6008 26.7882 74.477 26.4382 75.2984C26.0882 76.1746 25.2132 76.8865 24.1632 77.1055C22.2966 77.4888 20.3715 77.8721 18.5632 78.2555C18.0965 78.365 17.5715 78.4198 17.1049 78.5293C15.7632 78.8031 14.3632 79.0221 12.9632 79.2959C12.3798 79.4054 11.7964 79.515 11.1548 79.6245C11.2714 80.0626 11.3882 80.5554 11.5048 80.9935C12.0882 83.622 12.6716 86.141 13.8966 88.5505C15.1215 91.0147 16.9883 92.548 19.555 93.2052C22.005 93.8075 24.6298 94.4647 27.2548 94.7932C31.6881 95.3956 36.0049 95.8337 40.2048 96.1075C44.5798 96.3813 49.0131 96.5456 53.3298 96.6551H54.0296C56.5963 96.7646 59.2798 96.7646 62.1381 96.6551C66.2215 96.5456 70.8296 96.4361 75.3796 96.1622C79.1129 95.9432 82.8464 95.5599 86.6381 95.1766C89.963 94.848 92.9379 94.2456 95.8546 93.479C98.8879 92.6576 100.93 91.0695 102.038 88.7148C103.438 85.7577 104.138 82.6363 104.721 79.6793C104.371 79.5697 103.963 79.515 103.613 79.4054C102.738 79.1864 101.863 79.0221 100.93 78.8031C99.4713 78.5293 97.9546 78.2007 96.4963 77.9269C94.9213 77.5983 93.2878 77.2698 91.6545 76.9412C90.8378 76.7769 90.0796 76.2841 89.7296 75.5722C89.3213 74.9151 89.263 74.0937 89.5547 73.3818C90.0797 72.1223 91.4213 71.4651 92.9963 71.7389C94.6296 72.0127 96.3212 72.3413 97.8962 72.6699C98.7129 72.8342 99.5297 72.9984 100.346 73.1627C101.571 73.3818 102.796 73.6008 104.021 73.8746L105.596 74.1484L105.888 68.1247C105.713 68.1247 105.596 68.1247 105.421 68.1247C105.071 68.1247 104.78 68.1247 104.43 68.1247C103.03 68.1247 101.688 68.1795 100.288 68.2342C97.8963 68.289 95.5047 68.3985 93.0547 68.4533C91.713 68.4533 90.6045 67.6866 90.2545 66.4271C89.9045 65.2224 90.5461 64.0177 91.6545 63.5248C92.1211 63.3058 92.7628 63.1962 93.4045 63.1962C95.3878 63.1415 97.3712 63.0867 99.2962 62.9772C100.404 62.9772 101.513 62.9224 102.621 62.8677C103.38 62.8677 104.196 62.8129 104.955 62.7582C105.246 62.7582 105.596 62.7582 105.888 62.7582C105.888 62.7034 105.888 62.6486 105.888 62.5939C105.946 58.3773 105.713 54.2155 105.246 50.1632C104.78 46.0561 103.904 42.0586 102.738 38.3348H103.029ZM34.8965 57.8297C33.0881 57.5559 31.5132 56.6797 30.5215 55.3655C29.4132 53.8321 29.0631 51.806 29.5881 49.5608C29.2964 49.5608 28.9464 49.5608 28.6547 49.506C27.8964 49.4513 27.0799 49.3965 26.2633 49.4513C25.505 49.4513 24.7466 49.2322 24.2216 48.7394C23.6966 48.2466 23.3466 47.5894 23.3466 46.9323C23.3466 45.399 24.3965 44.4681 26.1465 44.4133C27.8965 44.4133 29.7048 44.4133 31.3965 44.4133C33.8465 44.5228 35.9464 44.6323 37.988 44.7966C40.5547 45.0157 43.0632 45.399 45.2215 46.9871C47.0882 48.3561 48.1382 50.2179 48.4299 52.6822C48.4882 53.3393 48.5464 54.0512 48.5464 54.7083C48.5464 55.0916 48.5464 55.475 48.5464 55.8583C48.5464 56.2416 48.5464 56.5154 48.3131 56.6797C48.1381 56.844 47.8465 56.9535 47.4965 56.8988C46.6798 56.8988 45.9214 56.8988 45.0464 56.8988C44.6964 56.8988 44.3465 56.8988 43.9965 56.8988H43.8797V56.7892C43.8797 56.3512 43.8216 55.9131 43.7632 55.475C43.7049 53.7774 43.588 52.1893 42.363 50.7655C42.538 53.3393 41.7797 55.1464 40.0881 56.4607C38.8047 57.4464 37.3465 57.9392 35.8299 57.9392C34.3132 57.9392 35.1881 57.9392 34.8381 57.8845L34.8965 57.8297ZM77.538 73.546C76.1964 77.215 73.5129 79.6245 69.4879 80.7197C68.3212 81.0483 67.2131 81.2126 66.1631 81.2126C63.3048 81.2126 60.6797 80.1173 58.2297 77.9817C57.9964 78.146 57.7048 78.365 57.4715 78.5293C56.8298 78.9674 56.2463 79.4054 55.5463 79.7888C51.3464 82.034 45.7464 81.4316 42.1881 78.3102C40.3798 76.7222 39.3298 75.2436 38.7465 73.546C38.3965 72.5056 38.6298 71.5199 39.2715 70.7532C39.9131 70.0961 40.8464 69.7675 41.8964 69.9866C42.8298 70.1509 43.4713 70.6985 43.8213 71.7389C44.3463 73.108 45.2213 74.2579 46.4463 75.0246C47.788 75.9008 49.4215 76.2293 51.0549 75.9555C52.6299 75.6817 53.9131 74.8603 54.7881 73.7103C55.3131 72.9984 55.313 72.2318 55.2547 71.3556C55.2547 71.3556 55.1381 71.1913 54.7881 71.027C53.2131 70.2604 51.2882 69.1104 49.8882 67.3033C48.6049 65.6605 48.7213 64.3462 49.0713 63.5248C49.538 62.2653 50.8797 61.2796 52.6297 60.8963C53.213 60.7868 53.8547 60.732 54.3797 60.732H54.4381C57.0047 60.732 59.6296 60.732 62.1963 60.732C63.0129 60.732 63.8298 60.8415 64.4715 61.0606C65.9298 61.5534 66.9797 62.4844 67.3297 63.6343C67.6797 64.7843 67.3296 66.0986 66.2796 67.4128C65.2296 68.7271 63.8298 69.7675 61.7881 70.808C61.6131 70.9175 61.4381 70.9723 61.2048 71.0818L61.0296 71.1913C60.9713 72.3961 61.3796 73.546 62.1963 74.4222C63.1296 75.4079 64.4712 75.9555 65.9879 76.0103C68.7879 76.1198 71.2962 74.4222 72.4045 71.6842C72.9879 70.3152 73.9214 69.7128 75.2631 69.8771C76.0798 69.9866 76.838 70.3699 77.2464 71.027C77.713 71.7389 77.7713 72.6151 77.4796 73.4913L77.538 73.546ZM92.8795 46.9871C92.6462 48.5204 91.6547 49.3965 90.138 49.3965H90.0213C89.7296 49.3965 89.4379 49.3965 89.1463 49.3965C88.5046 49.3965 87.9212 49.4513 87.2795 49.506H86.6381C86.9881 52.2988 86.4628 54.4893 85.2378 55.9678C84.3045 57.063 83.0213 57.7202 81.3297 57.8845C81.038 57.8845 80.7464 57.8845 80.5131 57.8845C78.6464 57.8845 77.0129 57.2273 75.6129 55.9678C74.2129 54.7083 73.5713 53.0655 73.688 50.8203C72.813 51.4227 72.6963 52.1346 72.2297 56.7892V56.8988H72.1129C71.8212 56.8988 71.4714 56.8988 71.1798 56.8988C70.2464 56.8988 69.313 56.8988 68.3796 56.8988C68.088 56.8988 67.6798 56.5154 67.6798 56.2964C67.5048 53.5036 67.5047 50.5465 69.6631 48.0823C70.9464 46.6585 72.6962 45.7276 75.0295 45.2895C78.5295 44.6323 82.1463 44.5776 85.6463 44.4681C86.2879 44.4681 86.8714 44.4681 87.5131 44.4681C88.6214 44.4681 89.7295 44.4681 90.8379 44.6323C92.2379 44.8514 93.0545 45.8918 92.8795 47.0966V46.9871Z" fill="#6C00E0"/>
<path d="M114.988 48.1369C114.463 44.5227 113.763 40.2514 112.421 36.0348C112.188 35.3229 112.013 34.7205 112.071 34.1729C112.188 32.8587 112.305 31.4896 112.305 30.2301C112.305 27.1088 112.363 24.0969 112.305 20.9756C112.305 16.5399 112.188 11.9948 111.371 7.44966C111.08 5.8616 110.73 3.8902 109.271 2.13786C107.463 -0.0525726 105.363 -0.107331 104.254 0.0569515C103.146 0.221234 101.63 0.495038 100.288 1.15217C95.388 3.3426 91.2463 6.46396 87.6879 9.202C85.7629 10.6805 83.8378 12.2686 82.0295 13.8019C81.1545 14.5138 80.2214 15.2805 79.3464 16.0471C64.7631 16.0471 50.5882 16.0471 37.0549 16.0471C35.8882 15.1709 34.838 14.24 33.9047 13.4733C28.7714 9.14724 24.2799 5.91636 19.7883 3.28784C18.0966 2.30215 15.9381 0.987884 13.4881 0.385515C10.1048 -0.490657 7.42152 0.659319 5.96319 3.67116C5.72986 4.10925 5.49653 4.65686 5.37986 5.31399C5.2632 5.80683 5.20486 6.35444 5.0882 6.84729V6.95681C4.7382 8.54487 4.44659 10.1877 4.27159 11.8305C3.97993 14.8971 3.92154 17.909 3.92154 20.2089C3.92154 22.8922 3.92154 25.6302 3.92154 28.3135C3.92154 29.2445 3.92154 30.2301 3.92154 31.1611C3.92154 31.6539 3.92154 32.092 3.92154 32.5849C3.97987 34.0086 4.0382 35.3229 3.62987 36.5276C1.99654 41.7847 1.00488 47.4798 0.713215 53.4487C0.538216 56.8987 0.53833 60.4033 0.53833 63.8533V65.5509C0.53833 69.9865 0.713329 73.6555 1.12166 77.1054C1.64666 81.4863 2.63838 85.7576 4.09671 89.8099C4.85504 91.9456 5.90503 94.4098 7.88836 96.6002C10.1633 99.1192 13.1383 100.762 17.5133 101.967C20.78 102.843 24.2798 103.5 28.1882 103.829L30.8132 104.102C34.7215 104.486 38.7464 104.869 42.7131 105.088C46.388 105.307 50.0631 105.362 53.5631 105.471H53.6798C55.1382 105.471 56.4796 105.526 57.8213 105.581H57.938C59.2797 105.581 60.6213 105.526 61.9046 105.471H62.313C65.5214 105.362 68.4962 105.307 71.5295 105.198C74.0379 105.143 76.3712 104.979 78.5295 104.814C80.5128 104.65 82.5546 104.431 84.4796 104.212H84.5964C85.4714 104.102 86.4045 103.993 87.2795 103.938C91.2461 103.555 94.8046 102.952 98.2463 102.076C104.43 100.543 108.746 97.1478 111.021 91.9456C113.063 87.3457 114.288 82.3624 114.93 76.6125C115.221 73.6007 115.396 70.315 115.455 66.4818V65.0033C115.571 59.5819 115.629 53.9416 114.813 48.356L114.988 48.1369ZM110.788 64.7842V66.2628C110.73 69.9317 110.555 73.1079 110.263 76.0102C109.738 81.322 108.571 85.8671 106.705 90.0289C104.955 93.9717 101.921 96.3264 97.138 97.5312C93.9297 98.2978 90.6046 98.9002 86.8713 99.2835C85.938 99.393 85.0629 99.4478 84.1296 99.5573H84.0131C82.0881 99.7764 80.1631 99.9954 78.1797 100.16C76.0798 100.324 73.863 100.488 71.4131 100.543C68.4381 100.653 65.4046 100.707 62.2546 100.762H61.8465C60.5632 100.762 59.2798 100.817 57.9964 100.872C56.6548 100.872 55.3131 100.817 53.8547 100.762H53.7379C50.238 100.653 46.6798 100.598 43.0631 100.379C39.1548 100.16 35.1881 99.7764 31.3381 99.393L28.7131 99.1192C25.0965 98.7907 21.8882 98.1883 18.8549 97.3669C15.4715 96.436 13.1966 95.2312 11.5632 93.4241C10.1049 91.7813 9.28824 89.8099 8.64657 88.1123C7.30491 84.3886 6.37147 80.4458 5.9048 76.3935C5.49647 73.1626 5.32147 69.6032 5.32147 65.3318V63.6342C5.32147 60.2938 5.32159 56.8439 5.43825 53.5035C5.72992 47.9179 6.66336 42.5513 8.18002 37.6776C8.76336 35.761 8.70491 33.8991 8.64657 32.3111C8.64657 31.873 8.64657 31.4349 8.64657 30.9968C8.64657 30.0659 8.64657 29.0802 8.64657 28.0945C8.64657 25.466 8.58824 22.7827 8.64657 20.1542C8.64657 17.9637 8.70496 15.0066 8.99663 12.1591C9.1133 10.6805 9.46318 9.202 9.75485 7.72346V7.61394C9.87151 7.06633 9.98824 6.57349 10.1049 6.02588C10.1049 5.91636 10.2798 5.64255 10.3382 5.47827C10.8048 4.54734 11.0966 4.38306 12.205 4.65686C13.9549 5.09495 15.6467 6.08064 17.2217 7.06633C21.48 9.58533 25.7381 12.6519 30.6964 16.8138C31.7464 17.6899 32.9715 18.7304 34.3131 19.7708C34.9548 20.2637 35.8882 20.5922 36.7049 20.5922C50.4715 20.5922 64.9964 20.5922 79.8714 20.5922C80.688 20.5922 81.5046 20.3184 82.1463 19.8256C83.1963 19.0042 84.2462 18.128 85.2962 17.2518C87.1045 15.7733 88.9712 14.24 90.8379 12.7615C94.1628 10.1877 98.0711 7.28538 102.446 5.31399C103.263 4.93066 104.313 4.76638 105.129 4.60209C105.129 4.60209 105.305 4.65686 105.596 4.98542C106.296 5.8616 106.53 7.06633 106.763 8.27107C107.521 12.4877 107.58 16.8685 107.638 21.1399C107.638 24.1517 107.638 27.1635 107.638 30.2301C107.638 31.3801 107.579 32.5849 107.404 33.7896C107.288 35.1586 107.58 36.3086 107.93 37.4038C109.213 41.3466 109.854 45.3441 110.321 48.7941C111.079 54.0511 110.963 59.5272 110.904 64.839L110.788 64.7842Z" fill="#6C00E0"/>
</svg>
