<svg width="77" height="72" viewBox="0 0 77 72" fill="none" xmlns="http://www.w3.org/2000/svg">
<path d="M68.3173 26.382C68.2007 25.9805 68.0453 25.5425 68.0842 25.141C68.0842 24.2649 68.1619 23.3889 68.2007 22.5494C68.2396 21.3448 68.3173 20.1037 68.3173 18.8992C68.3173 16.5631 68.2785 14.2269 68.1618 11.9638C68.1229 10.9053 67.9674 9.91973 67.8119 8.82468C67.7341 8.38666 67.6953 7.94864 67.6564 7.47412C67.6564 7.47412 67.6175 7.47412 67.5786 7.47412C67.5008 7.51062 67.423 7.54712 67.3842 7.58362C64.779 9.1532 62.2905 10.8688 60.0353 12.6939C58.7133 13.7524 57.4302 14.8475 56.1859 15.906C55.7971 16.2346 55.4083 16.5631 55.0194 16.8916C54.5528 17.2931 54.0085 17.4756 53.3086 17.4756C43.3546 17.4756 33.4394 17.4756 23.4853 17.4756C22.8243 17.4756 22.28 17.2931 21.7745 16.8551C20.5303 15.7965 19.286 14.738 18.314 13.9349C15.5533 11.5988 12.6369 9.55472 9.64294 7.80263C9.52629 7.72963 9.37076 7.65663 9.25411 7.58362C9.21523 7.58362 9.17642 7.54713 9.13754 7.51063C9.13754 7.51063 9.13754 7.51062 9.13754 7.54712C9.13754 7.62012 9.1375 7.65662 9.09862 7.72963C9.05974 8.24065 8.98197 8.78819 8.9042 9.29921C8.74867 10.4673 8.63206 11.7083 8.5543 12.9129C8.321 16.6361 8.47642 20.4688 8.63195 23.7539C8.63195 23.8269 8.63195 23.8999 8.63195 24.0094C8.67083 24.8125 8.70987 25.652 8.3988 26.455C8.32104 26.6011 8.282 26.7471 8.24312 26.8931C8.24312 26.9661 8.24327 27.0026 8.20439 27.0756C7.46561 29.5577 6.99898 31.7843 6.80456 33.9379C6.64903 35.5075 6.53238 37.1866 6.41573 39.2307C6.37685 40.0337 6.41573 40.8367 6.41573 41.6763C6.41573 42.0048 6.41573 42.3698 6.41573 42.7348C6.41573 42.7348 6.4545 42.7348 6.49338 42.7348C6.57115 42.7348 6.68791 42.7348 6.80456 42.7348C7.46557 42.7348 8.12662 42.7713 8.78763 42.8078C10.0319 42.8443 11.276 42.8809 12.5202 42.9174H12.6759C13.5314 42.9174 14.3866 42.9904 15.2421 43.0634C15.9808 43.1364 16.6418 43.7204 16.7974 44.4139C16.9529 45.1805 16.6031 45.874 15.9421 46.312C15.4755 46.604 14.931 46.604 14.4644 46.5675C13.0646 46.531 11.7038 46.4945 10.304 46.4215C9.13754 46.385 7.93213 46.3485 6.76564 46.312C6.68788 46.312 6.5713 46.312 6.45465 46.312C6.45465 46.312 6.37677 46.312 6.33789 46.312L6.57123 50.3272L7.73772 50.1082C8.67091 49.9257 9.56522 49.7797 10.4595 49.5972C10.965 49.4877 11.4704 49.4147 11.937 49.3052C12.9091 49.1227 13.8811 48.9401 14.8532 48.7576C15.7864 48.5751 16.4863 48.7576 16.9918 49.3782C17.3806 49.8892 17.4973 50.4732 17.264 51.0207C17.0307 51.6048 16.4475 52.0793 15.7476 52.2253C14.5034 52.4808 13.2202 52.7363 12.0148 52.9918C11.7038 53.0648 11.3538 53.1013 11.0428 53.1743C10.1485 53.3569 9.21523 53.5029 8.28204 53.6854C7.89321 53.7584 7.50434 53.8314 7.07663 53.9044C7.1544 54.1964 7.2322 54.5249 7.30996 54.8169C7.69879 56.569 8.08766 58.2481 8.9042 59.8542C9.72075 61.4968 10.9651 62.5188 12.6759 62.9568C14.309 63.3584 16.0586 63.7964 17.8084 64.0154C20.7635 64.4169 23.6409 64.7089 26.4405 64.8914C29.3567 65.0739 32.3118 65.1834 35.1891 65.2564H35.6556C37.3665 65.3294 39.1552 65.3294 41.0605 65.2564C43.7823 65.1834 46.8539 65.1104 49.8868 64.9279C52.3753 64.7819 54.864 64.5264 57.3913 64.2709C59.6077 64.0519 61.5906 63.6504 63.5348 63.1393C65.5567 62.5918 66.9176 61.5333 67.6564 59.9637C68.5896 57.9926 69.0562 55.912 69.4451 53.9409C69.2118 53.8679 68.9394 53.8314 68.7061 53.7584C68.1229 53.6124 67.5398 53.5029 66.9177 53.3569C65.9456 53.1743 64.9346 52.9553 63.9625 52.7728C62.9127 52.5538 61.8239 52.3348 60.7351 52.1158C60.1908 52.0063 59.6854 51.6778 59.4521 51.2033C59.1799 50.7652 59.1411 50.2177 59.3355 49.7432C59.6854 48.9036 60.5797 48.4656 61.6296 48.6481C62.7183 48.8306 63.8458 49.0497 64.8957 49.2687C65.44 49.3782 65.9845 49.4877 66.5288 49.5972C67.3454 49.7432 68.1619 49.8892 68.9784 50.0717L70.0283 50.2542L70.2227 46.239C70.1061 46.239 70.0282 46.239 69.9115 46.239C69.6782 46.239 69.4839 46.239 69.2507 46.239C68.3175 46.239 67.4231 46.2755 66.4899 46.312C64.8957 46.3485 63.3016 46.4215 61.6685 46.458C60.7742 46.458 60.0353 45.947 59.802 45.1075C59.5687 44.3044 59.9964 43.5014 60.7351 43.1729C61.0462 43.0269 61.4739 42.9538 61.9016 42.9538C63.2236 42.9173 64.5457 42.8808 65.8288 42.8078C66.5676 42.8078 67.3065 42.7713 68.0452 42.7348C68.5507 42.7348 69.0951 42.6983 69.6006 42.6618C69.795 42.6618 70.0283 42.6618 70.2227 42.6618C70.2227 42.6253 70.2227 42.5888 70.2227 42.5523C70.2616 39.7417 70.106 36.9676 69.795 34.2664C69.4839 31.5288 68.9006 28.8642 68.1229 26.382H68.3173ZM18.7028 36.1645C17.964 36.1645 17.4585 35.982 17.0696 35.544C16.603 34.96 16.5252 34.3029 16.8363 33.6094C17.1474 32.9159 17.7307 32.5873 18.5084 32.6604C18.7417 32.6604 18.9749 32.6604 19.2471 32.6604C19.3638 32.6604 19.4804 32.6604 19.597 32.6604C23.3298 32.6238 26.7126 33.6824 29.7455 35.8725C30.1343 36.1645 30.5232 36.5295 30.912 36.9311C31.4175 37.4786 31.5729 38.1356 31.3785 38.7561C31.1841 39.3037 30.7565 39.7052 30.1343 39.8877C29.9788 39.9242 29.8232 39.9607 29.6677 39.9607C29.24 39.9607 28.8122 39.7782 28.4623 39.4132C27.0236 37.9531 25.2351 37.0041 23.0965 36.566C21.7745 36.3105 20.3748 36.1645 18.7028 36.201V36.1645ZM50.7423 49.9257C49.848 52.3348 48.0982 53.9044 45.4542 54.6344C44.7154 54.8534 43.9766 54.9629 43.2378 54.9629C42.499 54.9629 42.0326 54.8899 41.4493 54.7439V55.2184C41.4493 57.08 39.855 58.6131 37.8331 58.6131H37.7554C35.7724 58.6131 34.1392 57.1165 34.1392 55.2184V54.8169C31.8062 55.2915 29.2401 54.6709 27.4515 53.1013C26.285 52.0793 25.5461 51.0938 25.1961 49.9622C24.9628 49.3052 25.1183 48.6116 25.546 48.1371C25.9738 47.6991 26.596 47.5166 27.257 47.6261C27.8792 47.7356 28.2679 48.1006 28.5012 48.7576C28.8511 49.6702 29.3955 50.4002 30.212 50.9112C31.1063 51.4953 32.1951 51.7143 33.245 51.5318C34.2559 51.3493 35.1502 50.8382 35.6945 50.0352C36.0445 49.5607 36.0446 49.0862 36.0057 48.5021C36.0057 48.5021 35.9278 48.3926 35.6945 48.2831C34.6836 47.7721 33.4005 47.0421 32.4673 45.8375C31.6119 44.7424 31.6897 43.9029 31.923 43.3554C32.2341 42.5158 33.1284 41.8953 34.256 41.6398C34.6448 41.5668 35.0725 41.5303 35.4225 41.5303H35.4612C37.1332 41.5303 38.8829 41.5303 40.5549 41.5303C41.0993 41.5303 41.6436 41.6033 42.0713 41.7493C43.0434 42.0778 43.7434 42.6983 43.9767 43.4284C44.21 44.1949 43.9766 45.0345 43.3156 45.9105C42.6157 46.75 41.6825 47.4801 40.3605 48.1371C40.2438 48.2101 40.1272 48.2466 40.0106 48.3196L39.894 48.3926C39.8551 49.1957 40.1273 49.9622 40.6717 50.5462C41.2938 51.2033 42.1881 51.5683 43.1991 51.6048C45.0654 51.6778 46.6596 50.5827 47.4373 48.7576C47.8261 47.8451 48.4093 47.4801 49.3036 47.5896C49.8479 47.6626 50.3146 47.9181 50.5868 48.3561C50.8979 48.7941 50.9367 49.4147 50.7423 49.9622V49.9257ZM58.0133 35.544C57.6634 35.982 57.1191 36.201 56.3803 36.1645C54.7084 36.1645 53.3085 36.2375 51.9865 36.5295C49.8868 36.9676 48.0594 37.9166 46.6207 39.3767C46.2707 39.7417 45.843 39.9242 45.4153 39.9242C44.9876 39.9242 45.1043 39.9242 44.9488 39.8512C44.3267 39.6687 43.86 39.2672 43.7045 38.7197C43.51 38.1356 43.7045 37.4421 44.1711 36.8946C44.56 36.493 44.9488 36.128 45.3376 35.836C48.3316 33.6459 51.7532 32.5508 55.4859 32.6238C55.6026 32.6238 55.7194 32.6238 55.836 32.6238C56.0693 32.6238 56.3026 32.6238 56.5748 32.6238C57.3524 32.5873 57.9356 32.9159 58.2467 33.5729C58.5577 34.2664 58.4799 34.9235 58.0133 35.5075V35.544Z" fill="#C5F700"/>
<path d="M76.2883 33.0255C75.9383 30.6164 75.4718 27.7692 74.5775 24.9586C74.4219 24.4841 74.3052 24.0826 74.3441 23.7175C74.4219 22.8415 74.4998 21.9289 74.4998 21.0894C74.4998 19.0088 74.5387 17.0012 74.4998 14.9206C74.4998 11.964 74.422 8.93431 73.8776 5.90467C73.6832 4.84611 73.4499 3.53206 72.4778 2.364C71.2724 0.903929 69.8726 0.867421 69.1338 0.976926C68.3951 1.08643 67.3842 1.26894 66.4899 1.70696C63.2237 3.16703 60.463 5.24764 58.0911 7.07273C56.808 8.05828 55.5248 9.11683 54.3194 10.1389C53.7362 10.6134 53.1142 11.1244 52.5309 11.6355C42.8102 11.6355 33.3616 11.6355 24.3408 11.6355C23.5631 11.0514 22.8631 10.4309 22.2409 9.91986C18.8192 7.03622 15.8254 4.88263 12.8314 3.13054C11.7038 2.47351 10.265 1.59746 8.63191 1.19594C6.37669 0.61191 4.58811 1.37845 3.61604 3.38605C3.46051 3.67806 3.30498 4.04308 3.22721 4.4811C3.14944 4.80962 3.11056 5.17464 3.0328 5.50316V5.57615C2.7995 6.6347 2.60512 7.72976 2.48847 8.82481C2.29406 10.8689 2.25514 12.8765 2.25514 14.4096C2.25514 16.1982 2.25514 18.0233 2.25514 19.8118C2.25514 20.4324 2.25514 21.0894 2.25514 21.7099C2.25514 22.0385 2.25514 22.3305 2.25514 22.659C2.29402 23.608 2.3329 24.4841 2.06072 25.2871C0.971998 28.7913 0.310988 32.5875 0.116573 36.5662C-7.59479e-05 38.8658 1.28371e-10 41.2019 1.28371e-10 43.5015V44.6331C1.28371e-10 47.5897 0.116649 50.0353 0.38883 52.3349C0.738776 55.2551 1.39982 58.1022 2.3719 60.8034C2.87738 62.2269 3.57727 63.8695 4.89929 65.3296C6.41573 67.0087 8.39876 68.1037 11.315 68.9067C13.4924 69.4908 15.8253 69.9288 18.4305 70.1478L20.1802 70.3303C22.7854 70.5858 25.4683 70.8413 28.1123 70.9874C30.5619 71.1334 33.0116 71.1699 35.3446 71.2429H35.4224C36.3945 71.2429 37.2887 71.2794 38.183 71.3159H38.2608C39.1551 71.3159 40.0493 71.2794 40.9048 71.2429H41.177C43.3156 71.1699 45.2985 71.1333 47.3205 71.0603C48.9924 71.0238 50.5477 70.9143 51.9864 70.8048C53.3084 70.6953 54.6694 70.5493 55.9526 70.4033H56.0304C56.6136 70.3303 57.2356 70.2573 57.8189 70.2208C60.4629 69.9653 62.8349 69.5638 65.129 68.9798C69.2506 67.9577 72.1279 65.6946 73.6443 62.2269C75.0052 59.1608 75.8218 55.8391 76.2495 52.0064C76.444 49.9988 76.5606 47.8087 76.5994 45.2536V44.268C76.6772 40.6544 76.7161 36.8947 76.1717 33.1715L76.2883 33.0255ZM73.4888 44.122V45.1076C73.4499 47.5532 73.3333 49.6703 73.1389 51.6049C72.789 55.1456 72.0113 58.1752 70.767 60.9494C69.6005 63.5775 67.5786 65.1471 64.3902 65.9501C62.2517 66.4611 60.0353 66.8626 57.5468 67.1182C56.9247 67.1912 56.3414 67.2277 55.7192 67.3007H55.6416C54.3584 67.4467 53.0753 67.5927 51.7533 67.7022C50.3535 67.8117 48.8759 67.9212 47.2428 67.9577C45.2598 68.0307 43.2378 68.0672 41.1381 68.1037H40.866C40.0106 68.1037 39.1552 68.1402 38.2997 68.1767C37.4054 68.1767 36.5111 68.1402 35.539 68.1037H35.4612C33.1282 68.0307 30.7564 67.9942 28.3456 67.8482C25.7405 67.7022 23.0964 67.4467 20.5301 67.1912L18.7804 67.0087C16.3697 66.7896 14.2312 66.3881 12.2481 65.8406C9.99292 65.2201 8.47649 64.417 7.38776 63.2125C6.41569 62.1174 5.87133 60.8034 5.44362 59.6718C4.54931 57.1897 3.9271 54.5616 3.61604 51.8604C3.34386 49.7068 3.22721 47.3342 3.22721 44.4871V43.3555C3.22721 41.1289 3.22729 38.8293 3.30505 36.6027C3.49947 32.8795 4.12148 29.3023 5.13244 26.0537C5.52127 24.7761 5.4825 23.535 5.44362 22.4765C5.44362 22.1845 5.44362 21.8924 5.44362 21.6004C5.44362 20.9799 5.44362 20.3229 5.44362 19.6658C5.44362 17.9138 5.40473 16.1252 5.44362 14.3731C5.44362 12.913 5.48254 10.9419 5.67695 9.04382C5.75472 8.05827 5.98794 7.07272 6.18235 6.08718V6.01418C6.26012 5.64916 6.33792 5.32065 6.41569 4.95563C6.41569 4.88263 6.5323 4.70012 6.57118 4.59061C6.88225 3.97008 7.07674 3.86058 7.81552 4.04308C8.982 4.3351 10.1095 4.99213 11.1593 5.64916C13.9978 7.32824 16.8363 9.37234 20.1413 12.1465C20.8412 12.7305 21.6578 13.424 22.5521 14.1176C22.9798 14.4461 23.602 14.6651 24.1464 14.6651C33.3227 14.6651 43.0046 14.6651 52.9198 14.6651C53.4641 14.6651 54.0084 14.4826 54.4362 14.1541C55.1361 13.6065 55.8359 13.0225 56.5358 12.4385C57.7412 11.4529 58.9854 10.4309 60.2297 9.44534C62.446 7.72976 65.0511 5.79516 67.9674 4.4811C68.5117 4.22559 69.2116 4.11609 69.756 4.00658C69.756 4.00658 69.8726 4.04308 70.067 4.26209C70.5336 4.84611 70.6891 5.64915 70.8447 6.45219C71.3501 9.26283 71.389 12.183 71.4279 15.0301C71.4279 17.0377 71.4279 19.0453 71.4279 21.0894C71.4279 21.8559 71.3891 22.659 71.2724 23.462C71.1946 24.3746 71.389 25.1411 71.6223 25.8711C72.4777 28.4993 72.9055 31.1639 73.2166 33.4635C73.722 36.9677 73.6443 40.6179 73.6054 44.1585L73.4888 44.122Z" fill="#C5F700"/>
</svg>
