<svg width="116" height="106" viewBox="0 0 116 106" fill="none" xmlns="http://www.w3.org/2000/svg">
<path d="M102.969 38.7443C102.794 38.1419 102.561 37.4848 102.619 36.8824C102.619 35.5682 102.736 34.2539 102.794 32.9944C102.853 31.1873 102.969 29.3254 102.969 27.5183C102.969 24.0136 102.911 20.5089 102.736 17.1138C102.678 15.5257 102.444 14.0472 102.211 12.4043C102.094 11.7472 102.036 11.0901 101.978 10.3782C101.978 10.3782 101.919 10.3782 101.861 10.3782C101.744 10.4329 101.628 10.4877 101.569 10.5425C97.661 12.8972 93.9277 15.4709 90.5444 18.209C88.5611 19.797 86.6361 21.4399 84.7695 23.0279C84.1862 23.5208 83.6028 24.0136 83.0195 24.5065C82.3195 25.1088 81.5029 25.3826 80.4529 25.3826C65.5196 25.3826 50.6446 25.3826 35.7113 25.3826C34.7196 25.3826 33.903 25.1088 33.1447 24.4517C31.278 22.8636 29.4114 21.2756 27.9531 20.0708C23.8114 16.5662 19.4363 13.4996 14.9446 10.871C14.7696 10.7615 14.5363 10.652 14.3613 10.5425C14.303 10.5425 14.2448 10.4877 14.1864 10.4329C14.1864 10.4329 14.1864 10.4329 14.1864 10.4877C14.1864 10.5972 14.1864 10.652 14.128 10.7615C14.0697 11.5282 13.953 12.3496 13.8364 13.1162C13.603 14.8686 13.4281 16.7304 13.3114 18.5375C12.9614 24.1231 13.1946 29.873 13.4279 34.8015C13.4279 34.911 13.4279 35.0205 13.4279 35.1848C13.4863 36.3896 13.5448 37.6491 13.0782 38.8538C12.9615 39.0728 12.9029 39.2919 12.8446 39.5109C12.8446 39.6204 12.8448 39.6752 12.7865 39.7847C11.6782 43.5085 10.9781 46.8489 10.6864 50.0798C10.4531 52.4345 10.2781 54.9535 10.1031 58.0201C10.0448 59.2248 10.1031 60.4296 10.1031 61.6891C10.1031 62.1819 10.1031 62.7295 10.1031 63.2771C10.1031 63.2771 10.1613 63.2771 10.2196 63.2771C10.3363 63.2771 10.5114 63.2771 10.6864 63.2771C11.6781 63.2771 12.6698 63.3319 13.6615 63.3866C15.5281 63.4414 17.3946 63.4962 19.2612 63.5509H19.4948C20.7781 63.5509 22.0612 63.6604 23.3446 63.77C24.4529 63.8795 25.4445 64.7557 25.6779 65.7961C25.9112 66.9461 25.3864 67.9865 24.3947 68.6437C23.6947 69.0818 22.8779 69.0818 22.1779 69.027C20.0779 68.9722 18.0364 68.9175 15.9364 68.808C14.1864 68.7532 12.378 68.6984 10.628 68.6437C10.5114 68.6437 10.3365 68.6437 10.1615 68.6437C10.1615 68.6437 10.0447 68.6437 9.98633 68.6437L10.3364 74.6674L12.0864 74.3388C13.4864 74.065 14.828 73.846 16.1697 73.5722C16.928 73.4079 17.6862 73.2983 18.3862 73.1341C19.8446 72.8603 21.3029 72.5864 22.7612 72.3126C24.1612 72.0388 25.2112 72.3126 25.9695 73.2436C26.5529 74.0102 26.728 74.8864 26.378 75.7078C26.028 76.584 25.1531 77.2959 24.1031 77.5149C22.2364 77.8982 20.3113 78.2816 18.503 78.6649C18.0364 78.7744 17.5114 78.8292 17.0447 78.9387C15.703 79.2125 14.303 79.4315 12.903 79.7054C12.3197 79.8149 11.7363 79.9244 11.0946 80.0339C11.2113 80.472 11.328 80.9649 11.4447 81.4029C12.028 84.0315 12.6114 86.5504 13.8364 88.9599C15.0614 91.4242 16.9281 92.9575 19.4948 93.6146C21.9448 94.217 24.5696 94.8741 27.1946 95.2027C31.6279 95.805 35.9447 96.2431 40.1447 96.5169C44.5196 96.7907 48.953 96.955 53.2696 97.0645H53.9694C56.5361 97.1741 59.2196 97.1741 62.078 97.0645C66.1613 96.955 70.7694 96.8455 75.3194 96.5717C79.0527 96.3526 82.7862 95.9693 86.5779 95.586C89.9029 95.2574 92.8777 94.655 95.7944 93.8884C98.8277 93.067 100.869 91.4789 101.978 89.1242C103.378 86.1671 104.078 83.0458 104.661 80.0887C104.311 79.9792 103.903 79.9244 103.553 79.8149C102.678 79.5958 101.803 79.4315 100.869 79.2125C99.4112 78.9387 97.8944 78.6101 96.4361 78.3363C94.8611 78.0078 93.2276 77.6792 91.5943 77.3506C90.7776 77.1864 90.0194 76.6935 89.6694 75.9816C89.2611 75.3245 89.2029 74.5031 89.4945 73.7912C90.0195 72.5317 91.3611 71.8746 92.9361 72.1484C94.5695 72.4222 96.2611 72.7507 97.8361 73.0793C98.6527 73.2436 99.4695 73.4079 100.286 73.5722C101.511 73.7912 102.736 74.0102 103.961 74.284L105.536 74.5578L105.828 68.5342C105.653 68.5342 105.536 68.5342 105.361 68.5342C105.011 68.5342 104.719 68.5342 104.369 68.5342C102.969 68.5342 101.628 68.5889 100.228 68.6437C97.8361 68.6984 95.4445 68.808 92.9945 68.8627C91.6529 68.8627 90.5444 68.0961 90.1944 66.8366C89.8444 65.6318 90.486 64.4271 91.5943 63.9342C92.061 63.7152 92.7026 63.6057 93.3443 63.6057C95.3276 63.5509 97.311 63.4962 99.236 63.3866C100.344 63.3866 101.453 63.3319 102.561 63.2771C103.319 63.2771 104.136 63.2224 104.894 63.1676C105.186 63.1676 105.536 63.1676 105.828 63.1676C105.828 63.1128 105.828 63.0581 105.828 63.0033C105.886 58.7867 105.653 54.6249 105.186 50.5726C104.719 46.4656 103.844 42.468 102.678 38.7443H102.969ZM28.478 53.4202C27.3697 53.4202 26.6113 53.1464 26.0279 52.4892C25.3279 51.6131 25.2112 50.6274 25.6779 49.5869C26.1445 48.5465 27.0197 48.0536 28.1864 48.1631C28.5364 48.1631 28.8863 48.1631 29.2946 48.1631C29.4696 48.1631 29.6446 48.1631 29.8196 48.1631C35.4196 48.1084 40.4946 49.6964 45.0446 52.9821C45.6279 53.4202 46.2112 53.9678 46.7946 54.5701C47.5529 55.3916 47.7864 56.3773 47.4947 57.3082C47.203 58.1296 46.5612 58.732 45.6279 59.0058C45.3946 59.0605 45.1611 59.1153 44.9278 59.1153C44.2861 59.1153 43.6447 58.8415 43.1197 58.2939C40.9614 56.1034 38.2779 54.6797 35.0696 54.0225C33.0862 53.6392 30.9864 53.4202 28.478 53.4749V53.4202ZM76.6029 74.065C75.2612 77.6792 72.6361 80.0339 68.6695 81.1291C67.5612 81.4577 66.4527 81.622 65.3444 81.622C62.5444 81.622 59.9195 80.5815 57.5278 78.4459C57.2945 78.6101 57.0029 78.8292 56.7696 78.9935C56.1863 79.4316 55.5444 79.8696 54.8444 80.253C50.7028 82.4982 45.1614 81.841 41.6614 78.7744C39.9114 77.2411 38.8029 75.7626 38.2779 74.065C37.9279 73.0793 38.1612 72.0388 38.8028 71.327C39.4445 70.6698 40.378 70.396 41.3697 70.5603C42.303 70.7246 42.8862 71.2722 43.2362 72.2579C43.7612 73.6269 44.5778 74.7221 45.8028 75.4888C47.1445 76.365 48.778 76.6935 50.353 76.4197C51.8696 76.1459 53.2112 75.3792 54.0278 74.1745C54.5528 73.4626 54.553 72.7507 54.4947 71.8746C54.4947 71.8746 54.3778 71.7103 54.0278 71.546C52.5112 70.7793 50.5863 69.6841 49.1863 67.877C47.903 66.2342 48.0197 64.9747 48.3697 64.1533C48.8363 62.8938 50.178 61.9628 51.8697 61.5795C52.453 61.47 53.0947 61.4152 53.6197 61.4152H53.6778C56.1861 61.4152 58.8111 61.4152 61.3195 61.4152C62.1361 61.4152 62.9527 61.5248 63.5944 61.7438C65.0527 62.2367 66.103 63.1676 66.4529 64.2628C66.8029 65.4128 66.4528 66.6723 65.4612 67.9865C64.4112 69.246 63.0111 70.3413 61.0278 71.327C60.8528 71.4365 60.6779 71.4912 60.5029 71.6008L60.328 71.7103C60.2696 72.915 60.678 74.065 61.4946 74.9412C62.428 75.9269 63.7696 76.4745 65.2863 76.5292C68.0863 76.6388 70.4779 74.9959 71.6445 72.2579C72.2279 70.8889 73.1028 70.3413 74.4444 70.5055C75.2611 70.6151 75.9613 70.9984 76.3696 71.6555C76.8362 72.3127 76.8945 73.2436 76.6029 74.065ZM90.6028 47.1227C90.3695 48.2727 89.6695 49.0393 88.5611 49.2583C88.0361 49.3679 87.4526 49.2584 86.9276 49.1488C86.1693 48.9846 85.411 48.7655 84.5943 48.6012C84.3027 48.5465 84.011 48.4369 83.7193 48.3822C84.3027 50.1345 84.5361 51.9416 84.4194 53.8035C84.3028 55.7749 83.7194 57.1987 82.6111 58.2939C81.8527 59.0058 80.8028 59.3891 79.8112 59.3891C78.8195 59.3891 77.8277 59.0605 77.011 58.3486C75.1444 56.7058 75.1446 54.5701 75.2029 52.6535C75.2029 51.9416 75.3195 51.2845 75.4362 50.5726C75.4362 50.3536 75.4944 50.0798 75.5527 49.8607C73.861 51.175 72.8113 52.9821 72.2863 55.282C72.2863 55.5558 72.1694 55.8296 72.1111 56.1034C72.1111 56.3772 71.9945 56.7058 71.9362 57.0344C71.5862 58.5129 70.361 59.3891 68.8444 59.1153C67.5027 58.8962 66.5696 57.6368 66.7446 56.2677C67.3279 52.544 68.9027 49.4226 71.4694 47.0132C73.686 44.9323 76.6029 43.6727 80.1028 43.3442C82.6695 43.0704 85.2945 43.3442 88.0362 44.1108C88.4445 44.2204 88.8529 44.3846 89.2029 44.6037C90.2529 45.2608 90.7194 46.137 90.5444 47.1774L90.6028 47.1227Z" fill="#6C00E0"/>
<path d="M114.927 48.3276C114.402 44.7134 113.702 40.4421 112.361 36.2255C112.127 35.5136 111.952 34.9112 112.011 34.3636C112.127 33.0494 112.244 31.6803 112.244 30.4208C112.244 27.2995 112.303 24.2876 112.244 21.1663C112.244 16.7306 112.128 12.1855 111.311 7.64033C111.019 6.05227 110.669 4.08089 109.211 2.32854C107.403 0.138112 105.303 0.0833416 104.194 0.247624C103.086 0.411906 101.569 0.68571 100.228 1.34284C95.3277 3.53327 91.186 6.65464 87.6276 9.39268C85.7026 10.8712 83.7775 12.4593 81.9692 13.9926C81.0942 14.7045 80.1611 15.4711 79.2861 16.2378C64.7028 16.2378 50.5279 16.2378 36.9946 16.2378C35.8279 15.3616 34.7777 14.4307 33.8444 13.664C28.7111 9.33792 24.2196 6.10704 19.728 3.47852C18.0363 2.49283 15.8778 1.17856 13.4278 0.576192C10.0445 -0.299981 7.36122 0.849996 5.90289 3.86184C5.66956 4.29993 5.43623 4.84753 5.31956 5.50466C5.20289 5.99751 5.14456 6.54513 5.0279 7.03798V7.14749C4.6779 8.73555 4.38629 10.3784 4.21129 12.0212C3.91962 15.0878 3.86123 18.0997 3.86123 20.3996C3.86123 23.0829 3.86123 25.8209 3.86123 28.5042C3.86123 29.4351 3.86123 30.4208 3.86123 31.3518C3.86123 31.8446 3.86123 32.2827 3.86123 32.7756C3.91957 34.1993 3.9779 35.5136 3.56957 36.7183C1.93624 41.9754 0.944578 47.6705 0.652913 53.6394C0.477913 57.0893 0.478027 60.594 0.478027 64.044V65.7415C0.478027 70.1772 0.653027 73.8462 1.06136 77.2961C1.58636 81.6769 2.57808 85.9483 4.0364 90.0006C4.79473 92.1363 5.84473 94.6005 7.82806 96.7909C10.103 99.3099 13.078 100.953 17.453 102.157C20.7197 103.034 24.2195 103.691 28.1279 104.019L30.7529 104.293C34.6612 104.676 38.6861 105.06 42.6527 105.279C46.3277 105.498 50.0028 105.553 53.5028 105.662H53.6195C55.0779 105.662 56.4193 105.717 57.761 105.772H57.8777C59.2194 105.772 60.561 105.717 61.8443 105.662H62.2527C65.4611 105.553 68.4359 105.498 71.4692 105.388C73.9776 105.334 76.3109 105.169 78.4692 105.005C80.4525 104.841 82.4943 104.622 84.4193 104.403H84.5361C85.4111 104.293 86.3442 104.184 87.2192 104.129C91.1858 103.746 94.7443 103.143 98.186 102.267C104.369 100.734 108.686 97.3385 110.961 92.1363C113.003 87.5364 114.228 82.5531 114.869 76.8032C115.161 73.7914 115.336 70.5057 115.394 66.6725V65.1939C115.511 59.7726 115.569 54.1323 114.753 48.5467L114.927 48.3276ZM110.728 64.9749V66.4534C110.669 70.1224 110.494 73.2985 110.203 76.2009C109.678 81.5127 108.511 86.0578 106.644 90.2196C104.894 94.1624 101.861 96.5171 97.0777 97.7219C93.8694 98.4885 90.5443 99.0909 86.811 99.4742C85.8777 99.5837 85.0026 99.6385 84.0693 99.748H83.9528C82.0278 99.9671 80.1028 100.186 78.1194 100.35C76.0195 100.515 73.8027 100.679 71.3528 100.734C68.3778 100.843 65.3443 100.898 62.1943 100.953H61.7862C60.5028 100.953 59.2195 101.008 57.9361 101.062C56.5945 101.062 55.2528 101.008 53.7944 100.953H53.6776C50.1777 100.843 46.6195 100.788 43.0028 100.569C39.0945 100.35 35.1278 99.9671 31.2778 99.5837L28.6528 99.3099C25.0361 98.9814 21.8279 98.379 18.7946 97.5576C15.4112 96.6266 13.1363 95.4219 11.5029 93.6148C10.0446 91.972 9.22794 90.0006 8.58627 88.303C7.24461 84.5793 6.31117 80.6365 5.8445 76.5842C5.43617 73.3533 5.26117 69.7938 5.26117 65.5225V63.8249C5.26117 60.4845 5.26128 57.0346 5.37795 53.6942C5.66962 48.1086 6.60306 42.742 8.11972 37.8683C8.70305 35.9517 8.6446 34.0898 8.58627 32.5017C8.58627 32.0637 8.58627 31.6256 8.58627 31.1875C8.58627 30.2565 8.58627 29.2709 8.58627 28.2852C8.58627 25.6566 8.52794 22.9734 8.58627 20.3448C8.58627 18.1544 8.64466 15.1973 8.93633 12.3498C9.05299 10.8712 9.40288 9.39268 9.69454 7.91414V7.80462C9.81121 7.25702 9.92793 6.76417 10.0446 6.21656C10.0446 6.10704 10.2195 5.83324 10.2779 5.66896C10.7445 4.73802 11.0363 4.57374 12.1446 4.84754C13.8946 5.28563 15.5864 6.27132 17.1614 7.25702C21.4197 9.77601 25.6778 12.8426 30.6361 17.0044C31.6861 17.8806 32.9112 18.9211 34.2528 19.9615C34.8945 20.4544 35.8279 20.7829 36.6446 20.7829C50.4112 20.7829 64.9361 20.7829 79.8111 20.7829C80.6277 20.7829 81.4443 20.5091 82.086 20.0163C83.136 19.1949 84.1859 18.3187 85.2359 17.4425C87.0442 15.964 88.9109 14.4307 90.7776 12.9521C94.1025 10.3784 98.0108 7.47605 102.386 5.50466C103.202 5.12134 104.253 4.95706 105.069 4.79278C105.069 4.79278 105.244 4.84753 105.536 5.1761C106.236 6.05227 106.469 7.25701 106.703 8.46174C107.461 12.6783 107.519 17.0592 107.578 21.3305C107.578 24.3424 107.578 27.3542 107.578 30.4208C107.578 31.5708 107.519 32.7755 107.344 33.9803C107.227 35.3493 107.519 36.4993 107.869 37.5945C109.153 41.5373 109.794 45.5348 110.261 48.9847C111.019 54.2418 110.902 59.7179 110.844 65.0297L110.728 64.9749Z" fill="#6C00E0"/>
</svg>
