<svg width="115" height="106" viewBox="0 0 115 106" fill="none" xmlns="http://www.w3.org/2000/svg">
<path d="M102.508 38.1705C102.333 37.5682 102.099 36.911 102.158 36.3087C102.158 34.9944 102.274 33.6801 102.333 32.4206C102.391 30.6135 102.508 28.7517 102.508 26.9446C102.508 23.4399 102.449 19.9352 102.274 16.54C102.216 14.952 101.983 13.4734 101.749 11.8306C101.633 11.1735 101.574 10.5163 101.516 9.80444C101.516 9.80444 101.458 9.80444 101.399 9.80444C101.283 9.8592 101.166 9.91396 101.108 9.96872C97.1993 12.3234 93.4661 14.8972 90.0827 17.6352C88.0994 19.2233 86.1745 20.8661 84.3078 22.4542C83.7245 22.947 83.1412 23.4399 82.5578 23.9327C81.8578 24.5351 81.0412 24.8089 79.9912 24.8089C65.0579 24.8089 50.1829 24.8089 35.2496 24.8089C34.258 24.8089 33.4413 24.5351 32.683 23.878C30.8164 22.2899 28.9498 20.7018 27.4914 19.4971C23.3498 15.9924 18.9746 12.9258 14.483 10.2973C14.308 10.1878 14.0746 10.0782 13.8996 9.96872C13.8413 9.96872 13.7831 9.91397 13.7248 9.85921C13.7248 9.85921 13.7248 9.85919 13.7248 9.91395C13.7248 10.0235 13.7247 10.0782 13.6664 10.1878C13.608 10.9544 13.4914 11.7758 13.3747 12.5425C13.1414 14.2948 12.9664 16.1567 12.8498 17.9638C12.4998 23.5494 12.7329 29.2993 12.9663 34.2278C12.9663 34.3373 12.9663 34.4468 12.9663 34.6111C13.0246 35.8158 13.0831 37.0753 12.6165 38.2801C12.4998 38.4991 12.4413 38.7181 12.3829 38.9372C12.3829 39.0467 12.3832 39.1015 12.3248 39.211C11.2165 42.9347 10.5164 46.2751 10.2248 49.506C9.99144 51.8607 9.81644 54.3797 9.64144 57.4463C9.58311 58.6511 9.64144 59.8558 9.64144 61.1153C9.64144 61.6082 9.64144 62.1558 9.64144 62.7034C9.64144 62.7034 9.6996 62.7034 9.75793 62.7034C9.8746 62.7034 10.0498 62.7034 10.2248 62.7034C11.2164 62.7034 12.2082 62.7581 13.1998 62.8129C15.0665 62.8677 16.9329 62.9224 18.7996 62.9772H19.0331C20.3165 62.9772 21.5996 63.0867 22.8829 63.1962C23.9912 63.3057 24.9829 64.1819 25.2162 65.2224C25.4495 66.3723 24.9247 67.4128 23.9331 68.0699C23.2331 68.508 22.4162 68.508 21.7162 68.4533C19.6162 68.3985 17.5747 68.3437 15.4747 68.2342C13.7248 68.1794 11.9164 68.1247 10.1664 68.0699C10.0497 68.0699 9.87483 68.0699 9.69983 68.0699C9.69983 68.0699 9.58299 68.0699 9.52466 68.0699L9.87471 74.0936L11.6247 73.7651C13.0247 73.4912 14.3664 73.2722 15.708 72.9984C16.4664 72.8341 17.2246 72.7246 17.9246 72.5603C19.3829 72.2865 20.8412 72.0127 22.2996 71.7389C23.6995 71.4651 24.7495 71.7389 25.5079 72.6698C26.0912 73.4365 26.2663 74.3127 25.9163 75.1341C25.5663 76.0102 24.6914 76.7221 23.6414 76.9412C21.7747 77.3245 19.8497 77.7078 18.0413 78.0912C17.5747 78.2007 17.0497 78.2554 16.583 78.365C15.2414 78.6388 13.8413 78.8578 12.4413 79.1316C11.858 79.2411 11.2746 79.3507 10.6329 79.4602C10.7496 79.8983 10.8663 80.3911 10.983 80.8292C11.5663 83.4577 12.1497 85.9767 13.3747 88.3862C14.5997 90.8504 16.4665 92.3837 19.0331 93.0409C21.4831 93.6432 24.1079 94.3004 26.7329 94.6289C31.1662 95.2313 35.483 95.6694 39.683 95.9432C44.058 96.217 48.4913 96.3813 52.8079 96.4908H53.5078C56.0744 96.6003 58.758 96.6003 61.6163 96.4908C65.6996 96.3813 70.3078 96.2717 74.8577 95.9979C78.5911 95.7789 82.3246 95.3956 86.1162 95.0123C89.4412 94.6837 92.4161 94.0813 95.3327 93.3147C98.366 92.4933 100.408 90.9052 101.516 88.5505C102.916 85.5934 103.616 82.472 104.199 79.5149C103.849 79.4054 103.441 79.3507 103.091 79.2411C102.216 79.0221 101.341 78.8578 100.408 78.6388C98.9495 78.365 97.4328 78.0364 95.9744 77.7626C94.3994 77.434 92.766 77.1055 91.1326 76.7769C90.316 76.6126 89.5577 76.1198 89.2077 75.4079C88.7994 74.7507 88.7412 73.9293 89.0329 73.2174C89.5579 71.9579 90.8995 71.3008 92.4745 71.5746C94.1078 71.8484 95.7994 72.177 97.3744 72.5056C98.191 72.6698 99.0078 72.8341 99.8245 72.9984C101.049 73.2174 102.274 73.4365 103.499 73.7103L105.074 73.9841L105.366 67.9604C105.191 67.9604 105.074 67.9604 104.899 67.9604C104.549 67.9604 104.258 67.9604 103.908 67.9604C102.508 67.9604 101.166 68.0152 99.7661 68.0699C97.3744 68.1247 94.9828 68.2342 92.5328 68.289C91.1912 68.289 90.0827 67.5223 89.7327 66.2628C89.3827 65.0581 90.0243 63.8533 91.1326 63.3605C91.5993 63.1415 92.241 63.0319 92.8826 63.0319C94.8659 62.9772 96.8493 62.9224 98.7743 62.8129C99.8826 62.8129 100.991 62.7581 102.099 62.7034C102.858 62.7034 103.674 62.6486 104.433 62.5939C104.724 62.5939 105.074 62.5939 105.366 62.5939C105.366 62.5391 105.366 62.4843 105.366 62.4296C105.424 58.213 105.191 54.0512 104.724 49.9989C104.258 45.8918 103.383 41.8943 102.216 38.1705H102.508ZM28.0748 52.8464C26.9664 52.8464 26.208 52.5726 25.6247 51.9155C24.9247 51.0393 24.8079 50.0536 25.2746 49.0132C25.7413 47.9727 26.6164 47.4799 27.7831 47.5894C28.1331 47.5894 28.483 47.5894 28.8914 47.5894C29.0664 47.5894 29.2413 47.5894 29.4163 47.5894C35.0163 47.5346 40.0913 49.1227 44.6413 52.4083C45.2246 52.8464 45.808 53.394 46.3913 53.9964C47.1496 54.8178 47.3828 55.8035 47.0911 56.7344C46.7995 57.5559 46.158 58.1582 45.2246 58.432C44.9913 58.4868 44.7579 58.5416 44.5245 58.5416C43.8829 58.5416 43.2411 58.2678 42.7161 57.7201C40.5578 55.5297 37.8746 54.1059 34.6663 53.4488C32.683 53.0655 30.5831 52.8464 28.0748 52.9012V52.8464ZM76.1412 73.4912C74.7995 77.1055 72.1745 79.4602 68.2078 80.5554C67.0995 80.884 65.9911 81.0482 64.8827 81.0482C63.7744 81.0482 63.0746 80.9387 62.1996 80.7197V81.4316C62.1996 84.2244 59.8078 86.5243 56.7745 86.5243H56.658C53.683 86.5243 51.2328 84.2791 51.2328 81.4316V80.8292C47.7328 81.5411 43.883 80.6102 41.1997 78.2554C39.4497 76.7221 38.3412 75.2436 37.8162 73.546C37.4662 72.5603 37.6995 71.5199 38.3412 70.808C38.9828 70.1508 39.9164 69.877 40.908 70.0413C41.8414 70.2056 42.4245 70.7532 42.7745 71.7389C43.2995 73.1079 44.1161 74.2031 45.3411 74.9698C46.6828 75.846 48.3163 76.1745 49.8913 75.9007C51.4079 75.6269 52.7495 74.8603 53.5662 73.6555C54.0912 72.9436 54.0913 72.2318 54.033 71.3556C54.033 71.3556 53.9162 71.1913 53.5662 71.027C52.0495 70.2604 50.1246 69.1652 48.7246 67.358C47.4413 65.7152 47.558 64.4557 47.908 63.6343C48.3747 62.3748 49.7163 61.4439 51.408 61.0606C51.9913 60.951 52.633 60.8963 53.158 60.8963H53.2161C55.7244 60.8963 58.3495 60.8963 60.8578 60.8963C61.6745 60.8963 62.4911 61.0058 63.1327 61.2248C64.5911 61.7177 65.6413 62.6486 65.9913 63.7438C66.3413 64.8938 65.9912 66.1533 64.9995 67.4676C63.9495 68.7271 62.5495 69.8223 60.5661 70.808C60.3911 70.9175 60.2162 70.9723 60.0412 71.0818L59.8663 71.1913C59.808 72.396 60.2163 73.546 61.033 74.4222C61.9663 75.4079 63.308 75.9555 64.8246 76.0102C67.6246 76.1198 70.0162 74.477 71.1829 71.7389C71.7662 70.3699 72.6411 69.8223 73.9827 69.9866C74.7994 70.0961 75.4996 70.4794 75.9079 71.1365C76.3746 71.7937 76.4329 72.7246 76.1412 73.546V73.4912ZM87.0493 51.9155C86.5243 52.5726 85.7078 52.9012 84.5995 52.8464C82.0912 52.8464 79.991 52.956 78.0077 53.394C74.8577 54.0512 72.1161 55.4749 69.9578 57.6654C69.4328 58.213 68.7911 58.4868 68.1494 58.4868C67.5078 58.4868 67.6829 58.4868 67.4496 58.3773C66.5163 58.1035 65.8162 57.5011 65.5828 56.6797C65.2912 55.8035 65.5829 54.7631 66.2829 53.9417C66.8663 53.3393 67.4496 52.7917 68.0329 52.3536C72.5246 49.0679 77.6577 47.4251 83.2577 47.5346C83.4327 47.5346 83.6079 47.5346 83.7829 47.5346C84.1329 47.5346 84.4828 47.5346 84.8912 47.5346C86.0578 47.4799 86.9327 47.9727 87.3994 48.9584C87.866 49.9989 87.7493 50.9846 87.0493 51.8607V51.9155Z" fill="#6C00E0"/>
<path d="M114.466 48.1369C113.941 44.5227 113.241 40.2514 111.899 36.0348C111.666 35.3229 111.491 34.7205 111.549 34.1729C111.666 32.8587 111.783 31.4897 111.783 30.2302C111.783 27.1088 111.841 24.0969 111.783 20.9756C111.783 16.54 111.666 11.9948 110.849 7.44966C110.558 5.8616 110.208 3.89022 108.749 2.13787C106.941 -0.0525613 104.841 -0.107332 103.733 0.0569502C102.624 0.221233 101.108 0.495037 99.766 1.15217C94.866 3.3426 90.7243 6.46397 87.166 9.20201C85.241 10.6806 83.3159 12.2686 81.5075 13.8019C80.6325 14.5138 79.6994 15.2805 78.8244 16.0471C64.2412 16.0471 50.0662 16.0471 36.5329 16.0471C35.3663 15.1709 34.3161 14.24 33.3827 13.4733C28.2494 9.14724 23.7579 5.91637 19.2663 3.28785C17.5746 2.30216 15.4161 0.987887 12.9661 0.385518C9.58282 -0.490654 6.89955 0.659322 5.44122 3.67117C5.20789 4.10925 4.97456 4.65686 4.85789 5.31399C4.74122 5.80684 4.68289 6.35446 4.56623 6.8473V6.95681C4.21623 8.54488 3.92462 10.1877 3.74962 11.8305C3.45795 14.8971 3.39956 17.909 3.39956 20.2089C3.39956 22.8922 3.39956 25.6302 3.39956 28.3135C3.39956 29.2445 3.39956 30.2302 3.39956 31.1611C3.39956 31.6539 3.39956 32.092 3.39956 32.5849C3.4579 34.0087 3.51623 35.3229 3.1079 36.5276C1.47457 41.7847 0.482908 47.4798 0.191243 53.4487C0.0162435 56.8987 0.0163574 60.4034 0.0163574 63.8533V65.5509C0.0163574 69.9865 0.191357 73.6555 0.599688 77.1054C1.12469 81.4863 2.11641 85.7576 3.57473 89.8099C4.33306 91.9456 5.38306 94.4098 7.36639 96.6003C9.64138 99.1193 12.6164 100.762 16.9913 101.967C20.258 102.843 23.7579 103.5 27.6662 103.829L30.2912 104.102C34.1995 104.486 38.2244 104.869 42.1911 105.088C45.8661 105.307 49.5411 105.362 53.0411 105.471H53.1579C54.6162 105.471 55.9576 105.526 57.2993 105.581H57.4161C58.7577 105.581 60.0993 105.526 61.3826 105.471H61.7911C64.9994 105.362 67.9743 105.307 71.0076 105.198C73.5159 105.143 75.8492 104.979 78.0075 104.814C79.9909 104.65 82.0326 104.431 83.9576 104.212H84.0744C84.9494 104.102 85.8825 103.993 86.7575 103.938C90.7242 103.555 94.2827 102.953 97.7243 102.076C103.908 100.543 108.224 97.1479 110.499 91.9456C112.541 87.3457 113.766 82.3624 114.408 76.6126C114.699 73.6007 114.874 70.3151 114.933 66.4818V65.0033C115.049 59.5819 115.108 53.9416 114.291 48.356L114.466 48.1369ZM110.266 64.7842V66.2628C110.208 69.9317 110.033 73.1079 109.741 76.0102C109.216 81.322 108.049 85.8671 106.183 90.029C104.433 93.9717 101.399 96.3264 96.616 97.5312C93.4077 98.2978 90.0827 98.9002 86.3493 99.2835C85.416 99.3931 84.5409 99.4478 83.6076 99.5573H83.4911C81.5661 99.7764 79.6411 99.9954 77.6578 100.16C75.5578 100.324 73.3411 100.488 70.8911 100.543C67.9161 100.653 64.8827 100.707 61.7327 100.762H61.3245C60.0412 100.762 58.7578 100.817 57.4745 100.872C56.1328 100.872 54.7911 100.817 53.3328 100.762H53.216C49.716 100.653 46.1578 100.598 42.5411 100.379C38.6328 100.16 34.6661 99.7764 30.8161 99.3931L28.1911 99.1193C24.5745 98.7907 21.3663 98.1883 18.3913 97.3669C15.008 96.436 12.733 95.2312 11.0996 93.4241C9.64132 91.7813 8.82466 89.8099 8.18299 88.1123C6.84133 84.3886 5.90789 80.4458 5.44122 76.3935C5.03289 73.1626 4.85789 69.6032 4.85789 65.3318V63.6342C4.85789 60.2938 4.85801 56.8439 4.97467 53.5035C5.26634 47.9179 6.1995 42.5513 7.71616 37.6776C8.29949 35.761 8.24133 33.8991 8.18299 32.3111C8.18299 31.873 8.18299 31.4349 8.18299 30.9968C8.18299 30.0659 8.18299 29.0802 8.18299 28.0945C8.18299 25.466 8.12466 22.7827 8.18299 20.1542C8.18299 17.9637 8.24138 15.0067 8.53305 12.1591C8.64971 10.6805 8.9996 9.202 9.29126 7.72346V7.61395C9.40793 7.06634 9.52465 6.5735 9.64132 6.02589C9.64132 5.91637 9.81626 5.64257 9.8746 5.47828C10.3413 4.54735 10.633 4.38307 11.7414 4.65687C13.4914 5.09496 15.1828 6.08065 16.7578 7.06634C21.0161 9.58534 25.2745 12.6519 30.2328 16.8138C31.2828 17.6899 32.5079 18.7304 33.8496 19.7708C34.4912 20.2637 35.4246 20.5922 36.2413 20.5922C50.0079 20.5922 64.5328 20.5922 79.4078 20.5922C80.2244 20.5922 81.041 20.3184 81.6827 19.8256C82.7327 19.0042 83.7826 18.128 84.8326 17.2519C86.641 15.7733 88.5076 14.24 90.3743 12.7615C93.6993 10.1877 97.6075 7.28538 101.983 5.31399C102.799 4.93067 103.849 4.76639 104.666 4.60211C104.666 4.60211 104.841 4.65686 105.132 4.98542C105.832 5.8616 106.066 7.06633 106.299 8.27107C107.057 12.4877 107.116 16.8685 107.174 21.1399C107.174 24.1517 107.174 27.1635 107.174 30.2302C107.174 31.3801 107.116 32.5849 106.941 33.7896C106.824 35.1586 107.116 36.3086 107.466 37.4038C108.749 41.3466 109.391 45.3441 109.857 48.7941C110.616 54.0511 110.499 59.5272 110.441 64.839L110.266 64.7842Z" fill="#6C00E0"/>
</svg>
