<svg width="77" height="72" viewBox="0 0 77 72" fill="none" xmlns="http://www.w3.org/2000/svg">
<path d="M68.3173 26.3694C68.2007 25.9678 68.0453 25.5298 68.0842 25.1283C68.0842 24.2522 68.1619 23.3762 68.2007 22.5367C68.2396 21.3321 68.3173 20.091 68.3173 18.8865C68.3173 16.5504 68.2785 14.2143 68.1618 11.9511C68.1229 10.8926 67.9674 9.90704 67.8119 8.81199C67.7341 8.37397 67.6953 7.93595 67.6564 7.46143C67.6564 7.46143 67.6175 7.46143 67.5786 7.46143C67.5008 7.49793 67.423 7.53443 67.3842 7.57093C64.779 9.14051 62.2905 10.8561 60.0353 12.6812C58.7133 13.7397 57.4302 14.8348 56.1859 15.8933C55.7971 16.2219 55.4083 16.5504 55.0194 16.8789C54.5528 17.2804 54.0085 17.4629 53.3086 17.4629C43.3546 17.4629 33.4394 17.4629 23.4853 17.4629C22.8243 17.4629 22.28 17.2804 21.7745 16.8424C20.5303 15.7838 19.286 14.7253 18.314 13.9222C15.5533 11.5861 12.6369 9.54203 9.64294 7.78994C9.52629 7.71694 9.37076 7.64394 9.25411 7.57093C9.21523 7.57093 9.17642 7.53443 9.13754 7.49793C9.13754 7.49793 9.13754 7.49793 9.13754 7.53443C9.13754 7.60743 9.1375 7.64393 9.09862 7.71694C9.05974 8.22796 8.98197 8.77549 8.9042 9.28651C8.74867 10.4546 8.63206 11.6956 8.5543 12.9002C8.321 16.6234 8.47642 20.4561 8.63195 23.7412C8.63195 23.8142 8.63195 23.8872 8.63195 23.9967C8.67083 24.7998 8.70987 25.6393 8.3988 26.4424C8.32104 26.5884 8.282 26.7344 8.24312 26.8804C8.24312 26.9534 8.24327 26.9899 8.20439 27.0629C7.46561 29.545 6.99898 31.7716 6.80456 33.9252C6.64903 35.4948 6.53238 37.1739 6.41573 39.218C6.37685 40.021 6.41573 40.8241 6.41573 41.6636C6.41573 41.9921 6.41573 42.3571 6.41573 42.7221C6.41573 42.7221 6.4545 42.7221 6.49338 42.7221C6.57115 42.7221 6.68791 42.7221 6.80456 42.7221C7.46557 42.7221 8.12662 42.7587 8.78763 42.7952C10.0319 42.8317 11.276 42.8682 12.5202 42.9047H12.6759C13.5314 42.9047 14.3866 42.9777 15.2421 43.0507C15.9808 43.1237 16.6418 43.7077 16.7974 44.4012C16.9529 45.1678 16.6031 45.8613 15.9421 46.2993C15.4755 46.5913 14.931 46.5913 14.4644 46.5548C13.0646 46.5183 11.7038 46.4818 10.304 46.4088C9.13754 46.3723 7.93213 46.3358 6.76564 46.2993C6.68788 46.2993 6.5713 46.2993 6.45465 46.2993C6.45465 46.2993 6.37677 46.2993 6.33789 46.2993L6.57123 50.3145L7.73772 50.0955C8.67091 49.913 9.56522 49.767 10.4595 49.5845C10.965 49.475 11.4704 49.402 11.937 49.2925C12.9091 49.11 13.8811 48.9275 14.8532 48.7449C15.7864 48.5624 16.4863 48.7449 16.9918 49.3655C17.3806 49.8765 17.4973 50.4605 17.264 51.0081C17.0307 51.5921 16.4475 52.0666 15.7476 52.2126C14.5034 52.4681 13.2202 52.7236 12.0148 52.9791C11.7038 53.0522 11.3538 53.0887 11.0428 53.1617C10.1485 53.3442 9.21523 53.4902 8.28204 53.6727C7.89321 53.7457 7.50434 53.8187 7.07663 53.8917C7.1544 54.1837 7.2322 54.5122 7.30996 54.8042C7.69879 56.5563 8.08766 58.2354 8.9042 59.8415C9.72075 61.4841 10.9651 62.5061 12.6759 62.9441C14.309 63.3457 16.0586 63.7837 17.8084 64.0027C20.7635 64.4042 23.6409 64.6962 26.4405 64.8787C29.3567 65.0612 32.3118 65.1707 35.1891 65.2437H35.6556C37.3665 65.3168 39.1552 65.3168 41.0605 65.2437C43.7823 65.1707 46.8539 65.0977 49.8868 64.9152C52.3753 64.7692 54.864 64.5137 57.3913 64.2582C59.6077 64.0392 61.5906 63.6377 63.5348 63.1266C65.5567 62.5791 66.9176 61.5206 67.6564 59.951C68.5896 57.9799 69.0562 55.8993 69.4451 53.9282C69.2118 53.8552 68.9394 53.8187 68.7061 53.7457C68.1229 53.5997 67.5398 53.4902 66.9177 53.3442C65.9456 53.1617 64.9346 52.9426 63.9625 52.7601C62.9127 52.5411 61.8239 52.3221 60.7351 52.1031C60.1908 51.9936 59.6854 51.6651 59.4521 51.1906C59.1799 50.7525 59.1411 50.205 59.3355 49.7305C59.6854 48.8909 60.5797 48.4529 61.6296 48.6354C62.7183 48.8179 63.8458 49.037 64.8957 49.256C65.44 49.3655 65.9845 49.475 66.5288 49.5845C67.3454 49.7305 68.1619 49.8765 68.9784 50.059L70.0283 50.2415L70.2227 46.2263C70.1061 46.2263 70.0282 46.2263 69.9115 46.2263C69.6782 46.2263 69.4839 46.2263 69.2507 46.2263C68.3175 46.2263 67.4231 46.2628 66.4899 46.2993C64.8957 46.3358 63.3016 46.4088 61.6685 46.4453C60.7742 46.4453 60.0353 45.9343 59.802 45.0948C59.5687 44.2917 59.9964 43.4887 60.7351 43.1602C61.0462 43.0142 61.4739 42.9412 61.9016 42.9412C63.2236 42.9047 64.5457 42.8682 65.8288 42.7952C66.5676 42.7952 67.3065 42.7587 68.0452 42.7221C68.5507 42.7221 69.0951 42.6856 69.6006 42.6491C69.795 42.6491 70.0283 42.6491 70.2227 42.6491C70.2227 42.6126 70.2227 42.5761 70.2227 42.5396C70.2616 39.729 70.106 36.9549 69.795 34.2537C69.4839 31.5161 68.9006 28.8515 68.1229 26.3694H68.3173ZM22.9021 39.364C21.6967 39.1815 20.6469 38.5974 19.9859 37.7214C19.2471 36.6994 19.0137 35.3488 19.3637 33.8522C19.1693 33.8522 18.9359 33.8522 18.7415 33.8157C18.236 33.7792 17.6918 33.7427 17.1475 33.7792C16.642 33.7792 16.1365 33.6332 15.7866 33.3047C15.4366 32.9762 15.2033 32.5382 15.2033 32.1001C15.2033 31.0781 15.9031 30.4575 17.0696 30.421C18.2361 30.421 19.4415 30.421 20.5691 30.421C22.2022 30.494 23.6019 30.5671 24.9628 30.6766C26.6736 30.8226 28.3458 31.0781 29.7844 32.1366C31.0287 33.0492 31.7286 34.2902 31.923 35.9328C31.9619 36.3708 32.0007 36.8454 32.0007 37.2834C32.0007 37.5389 32.0007 37.7944 32.0007 38.0499C32.0007 38.3054 32.0007 38.4879 31.8452 38.5974C31.7285 38.707 31.5341 38.78 31.3008 38.7435C30.7565 38.7435 30.2509 38.7435 29.6677 38.7435C29.4344 38.7435 29.2012 38.7435 28.9679 38.7435H28.89V38.6705C28.89 38.3784 28.8512 38.0864 28.8124 37.7944C28.7735 36.6629 28.6956 35.6043 27.879 34.6553C27.9957 36.3708 27.4902 37.5754 26.3626 38.4514C25.5072 39.1085 24.5352 39.437 23.5242 39.437C22.5133 39.437 23.0965 39.437 22.8632 39.4005L22.9021 39.364ZM51.3256 49.84C50.4313 52.2856 48.6425 53.8917 45.9596 54.6217C45.1819 54.8407 44.4433 54.9502 43.7434 54.9502C41.8381 54.9502 40.0883 54.2202 38.4553 52.7966C38.2997 52.9061 38.1054 53.0522 37.9499 53.1617C37.5221 53.4537 37.1332 53.7457 36.6666 54.0012C33.867 55.4978 30.1343 55.0963 27.7624 53.0157C26.5571 51.9571 25.8572 50.9716 25.4684 49.84C25.2351 49.1465 25.3906 48.4894 25.8183 47.9784C26.246 47.5404 26.8681 47.3214 27.568 47.4674C28.1902 47.5769 28.6178 47.9419 28.8511 48.6354C29.201 49.548 29.7843 50.3145 30.6008 50.8255C31.4951 51.4096 32.584 51.6286 33.6727 51.4461C34.7226 51.2636 35.578 50.716 36.1612 49.9495C36.5112 49.475 36.5111 48.964 36.4722 48.3799C36.4722 48.3799 36.3945 48.2704 36.1612 48.1609C35.1114 47.6499 33.8283 46.8834 32.8951 45.6788C32.0396 44.5837 32.1173 43.7077 32.3506 43.1602C32.6616 42.3206 33.556 41.6636 34.7225 41.4081C35.1113 41.3351 35.539 41.2986 35.8889 41.2986H35.9279C37.6387 41.2986 39.3884 41.2986 41.0992 41.2986C41.6436 41.2986 42.1881 41.3716 42.6158 41.5176C43.5879 41.8461 44.2877 42.4666 44.521 43.2332C44.7543 43.9997 44.5209 44.8758 43.821 45.7518C43.1211 46.6278 42.1881 47.3214 40.8272 48.0149C40.7105 48.0879 40.5939 48.1244 40.4383 48.1974L40.3216 48.2704C40.2827 49.0735 40.5549 49.84 41.0992 50.424C41.7214 51.0811 42.6157 51.4461 43.6266 51.4826C45.493 51.5556 47.165 50.424 47.9037 48.5989C48.2926 47.6864 48.9149 47.2849 49.8092 47.3944C50.3535 47.4674 50.859 47.7229 51.1311 48.1609C51.4422 48.6354 51.4811 49.2195 51.2866 49.8035L51.3256 49.84ZM61.5517 32.1366C61.3962 33.1587 60.7353 33.7427 59.7243 33.7427H59.6465C59.4521 33.7427 59.2577 33.7427 59.0632 33.7427C58.6355 33.7427 58.2466 33.7792 57.8189 33.8157H57.3913C57.6246 35.6773 57.2745 37.1374 56.458 38.1229C55.8359 38.853 54.9806 39.291 53.853 39.4005C53.6585 39.4005 53.4642 39.4005 53.3086 39.4005C52.0644 39.4005 50.9755 38.9625 50.0423 38.1229C49.1091 37.2834 48.6815 36.1883 48.7593 34.6918C48.176 35.0933 48.0982 35.5678 47.7872 38.6705V38.7435H47.7093C47.5149 38.7435 47.2818 38.7435 47.0874 38.7435C46.4652 38.7435 45.843 38.7435 45.2209 38.7435C45.0264 38.7435 44.7544 38.4879 44.7544 38.3419C44.6377 36.4803 44.6377 34.5092 46.0764 32.8667C46.9318 31.9176 48.0982 31.2971 49.6535 31.0051C51.9865 30.5671 54.3973 30.5306 56.7303 30.4576C57.158 30.4576 57.5469 30.4576 57.9746 30.4576C58.7134 30.4576 59.452 30.4576 60.1908 30.5671C61.124 30.7131 61.6684 31.4066 61.5517 32.2096V32.1366Z" fill="#C5F700"/>
<path d="M76.2883 32.9029C75.9383 30.4938 75.4718 27.6467 74.5775 24.836C74.4219 24.3615 74.3052 23.96 74.3441 23.595C74.4219 22.7189 74.4998 21.8064 74.4998 20.9668C74.4998 18.8862 74.5387 16.8786 74.4998 14.798C74.4998 11.8414 74.422 8.81176 73.8776 5.78211C73.6832 4.72356 73.4499 3.40949 72.4778 2.24143C71.2724 0.781363 69.8726 0.744863 69.1338 0.854368C68.3951 0.963874 67.3842 1.14638 66.4899 1.5844C63.2237 3.04448 60.463 5.12508 58.0911 6.95016C56.808 7.93571 55.5248 8.99426 54.3194 10.0163C53.7362 10.4908 53.1142 11.0019 52.5309 11.5129C42.8102 11.5129 33.3616 11.5129 24.3408 11.5129C23.5631 10.9289 22.8631 10.3083 22.2409 9.7973C18.8192 6.91366 15.8254 4.76006 12.8314 3.00797C11.7038 2.35094 10.265 1.4749 8.63191 1.07338C6.37669 0.48935 4.58811 1.25589 3.61604 3.26349C3.46051 3.5555 3.30498 3.92052 3.22721 4.35854C3.14944 4.68705 3.11056 5.05207 3.0328 5.38059V5.45359C2.7995 6.51214 2.60512 7.6072 2.48847 8.70225C2.29406 10.7464 2.25514 12.7539 2.25514 14.287C2.25514 16.0756 2.25514 17.9007 2.25514 19.6893C2.25514 20.3098 2.25514 20.9668 2.25514 21.5874C2.25514 21.9159 2.25514 22.2079 2.25514 22.5364C2.29402 23.4855 2.3329 24.3615 2.06072 25.1646C0.971998 28.6687 0.310988 32.4649 0.116573 36.4436C-7.59479e-05 38.7432 1.28371e-10 41.0793 1.28371e-10 43.3789V44.5105C1.28371e-10 47.4671 0.116649 49.9128 0.38883 52.2124C0.738776 55.1325 1.39982 57.9797 2.3719 60.6808C2.87738 62.1044 3.57727 63.7469 4.89929 65.207C6.41573 66.8861 8.39876 67.9811 11.315 68.7842C13.4924 69.3682 15.8253 69.8062 18.4305 70.0252L20.1802 70.2077C22.7854 70.4633 25.4683 70.7188 28.1123 70.8648C30.5619 71.0108 33.0116 71.0473 35.3446 71.1203H35.4224C36.3945 71.1203 37.2887 71.1568 38.183 71.1933H38.2608C39.1551 71.1933 40.0493 71.1568 40.9048 71.1203H41.177C43.3156 71.0473 45.2985 71.0108 47.3205 70.9378C48.9924 70.9013 50.5477 70.7918 51.9864 70.6823C53.3084 70.5728 54.6694 70.4268 55.9526 70.2808H56.0304C56.6136 70.2077 57.2356 70.1348 57.8189 70.0982C60.4629 69.8427 62.8349 69.4412 65.129 68.8572C69.2506 67.8351 72.1279 65.572 73.6443 62.1044C75.0052 59.0382 75.8218 55.7165 76.2495 51.8839C76.444 49.8763 76.5606 47.6862 76.5994 45.131V44.1455C76.6772 40.5318 76.7161 36.7721 76.1717 33.0489L76.2883 32.9029ZM73.4888 43.9995V44.985C73.4499 47.4306 73.3333 49.5477 73.1389 51.4823C72.789 55.023 72.0113 58.0527 70.767 60.8268C69.6005 63.4549 67.5786 65.0245 64.3902 65.8275C62.2517 66.3386 60.0353 66.7401 57.5468 66.9956C56.9247 67.0686 56.3414 67.1051 55.7192 67.1781H55.6416C54.3584 67.3241 53.0753 67.4701 51.7533 67.5796C50.3535 67.6891 48.8759 67.7986 47.2428 67.8351C45.2598 67.9081 43.2378 67.9446 41.1381 67.9811H40.866C40.0106 67.9811 39.1552 68.0176 38.2997 68.0541C37.4054 68.0541 36.5111 68.0176 35.539 67.9811H35.4612C33.1282 67.9081 30.7564 67.8716 28.3456 67.7256C25.7405 67.5796 23.0964 67.3241 20.5301 67.0686L18.7804 66.8861C16.3697 66.6671 14.2311 66.2656 12.2092 65.718C9.954 65.0975 8.43757 64.2945 7.34884 63.0899C6.37677 61.9948 5.83241 60.6808 5.4047 59.5492C4.51039 57.0671 3.88818 54.439 3.57712 51.7379C3.30494 49.5842 3.18829 47.2116 3.18829 44.3645V43.2329C3.18829 41.0063 3.18837 38.7067 3.26613 36.4801C3.46055 32.7569 4.08275 29.1798 5.09371 25.9311C5.48254 24.6535 5.44358 23.4125 5.4047 22.3539C5.4047 22.0619 5.4047 21.7699 5.4047 21.4779C5.4047 20.8573 5.4047 20.2003 5.4047 19.5433C5.4047 17.7912 5.36581 16.0026 5.4047 14.2505C5.4047 12.7904 5.44362 10.8194 5.63803 8.92126C5.7158 7.93571 5.94902 6.95017 6.14343 5.96462V5.89161C6.2212 5.52659 6.299 5.19808 6.37677 4.83306C6.37677 4.76006 6.49338 4.57755 6.53226 4.46804C6.84333 3.84751 7.03782 3.73801 7.77659 3.92052C8.94308 4.21253 10.0707 4.86956 11.1206 5.52659C13.959 7.20568 16.7973 9.24978 20.1024 12.0239C20.8023 12.6079 21.6189 13.3015 22.5132 13.995C22.9409 14.3235 23.5631 14.5425 24.1074 14.5425C33.2838 14.5425 42.9657 14.5425 52.8808 14.5425C53.4252 14.5425 53.9695 14.36 54.3972 14.0315C55.0971 13.484 55.797 12.9 56.4969 12.3159C57.7023 11.3304 58.9465 10.3083 60.1908 9.32278C62.4071 7.6072 65.0122 5.6726 67.9284 4.35854C68.4728 4.10303 69.1727 3.99352 69.7171 3.88401C69.7171 3.88401 69.8339 3.92052 70.0283 4.13953C70.4949 4.72356 70.6504 5.5266 70.8059 6.32964C71.3114 9.14027 71.3503 12.0604 71.3892 14.9076C71.3892 16.9152 71.3892 18.9227 71.3892 20.9668C71.3892 21.7334 71.3501 22.5364 71.2335 23.3395C71.1557 24.252 71.3503 25.0185 71.5836 25.7486C72.439 28.3767 72.8666 31.0413 73.1776 33.341C73.6831 36.8451 73.6053 40.4953 73.5665 44.036L73.4888 43.9995Z" fill="#C5F700"/>
</svg>
