<svg width="77" height="72" viewBox="0 0 77 72" fill="none" xmlns="http://www.w3.org/2000/svg">
<path d="M68.3173 26.6379C68.2007 26.2364 68.0453 25.7984 68.0842 25.3969C68.0842 24.5208 68.1619 23.6448 68.2007 22.8052C68.2396 21.6007 68.3173 20.3596 68.3173 19.155C68.3173 16.8189 68.2785 14.4828 68.1618 12.2197C68.1229 11.1612 67.9674 10.1756 67.8119 9.08055C67.7341 8.64253 67.6953 8.2045 67.6564 7.72998C67.6564 7.72998 67.6175 7.72998 67.5786 7.72998C67.5008 7.76648 67.423 7.80299 67.3842 7.83949C64.779 9.40907 62.2905 11.1247 60.0353 12.9497C58.7133 14.0083 57.4302 15.1033 56.1859 16.1619C55.7971 16.4904 55.4083 16.8189 55.0194 17.1474C54.5528 17.549 54.0085 17.7315 53.3086 17.7315C43.3546 17.7315 33.4394 17.7315 23.4853 17.7315C22.8243 17.7315 22.28 17.549 21.7745 17.1109C20.5303 16.0524 19.286 14.9938 18.314 14.1908C15.5533 11.8547 12.6369 9.81059 9.64294 8.05851C9.52629 7.9855 9.37076 7.9125 9.25411 7.83949C9.21523 7.83949 9.17642 7.80299 9.13754 7.76648C9.13754 7.76648 9.13754 7.76649 9.13754 7.80299C9.13754 7.87599 9.1375 7.91249 9.09862 7.9855C9.05974 8.49652 8.98197 9.04404 8.9042 9.55507C8.74867 10.7231 8.63206 11.9642 8.5543 13.1688C8.321 16.8919 8.47642 20.7246 8.63195 24.0098C8.63195 24.0828 8.63195 24.1558 8.63195 24.2653C8.67083 25.0683 8.70987 25.9079 8.3988 26.7109C8.32104 26.8569 8.282 27.0029 8.24312 27.1489C8.24312 27.2219 8.24327 27.2584 8.20439 27.3314C7.46561 29.8136 6.99898 32.0402 6.80456 34.1938C6.64903 35.7633 6.53238 37.4424 6.41573 39.4865C6.37685 40.2896 6.41573 41.0926 6.41573 41.9322C6.41573 42.2607 6.41573 42.6257 6.41573 42.9907C6.41573 42.9907 6.4545 42.9907 6.49338 42.9907C6.57115 42.9907 6.68791 42.9907 6.80456 42.9907C7.46557 42.9907 8.12662 43.0272 8.78763 43.0637C10.0319 43.1002 11.276 43.1367 12.5202 43.1732H12.6759C13.5314 43.1732 14.3866 43.2462 15.2421 43.3192C15.9808 43.3922 16.6418 43.9763 16.7974 44.6698C16.9529 45.4363 16.6031 46.1299 15.9421 46.5679C15.4755 46.8599 14.931 46.8599 14.4644 46.8234C13.0646 46.7869 11.7038 46.7504 10.304 46.6774C9.13754 46.6409 7.93213 46.6044 6.76564 46.5679C6.68788 46.5679 6.5713 46.5679 6.45465 46.5679C6.45465 46.5679 6.37677 46.5679 6.33789 46.5679L6.57123 50.5831L7.73772 50.3641C8.67091 50.1816 9.56522 50.0356 10.4595 49.853C10.965 49.7435 11.4704 49.6705 11.937 49.561C12.9091 49.3785 13.8811 49.196 14.8532 49.0135C15.7864 48.831 16.4863 49.0135 16.9918 49.634C17.3806 50.1451 17.4973 50.7291 17.264 51.2766C17.0307 51.8606 16.4475 52.3352 15.7476 52.4812C14.5034 52.7367 13.2202 52.9922 12.0148 53.2477C11.7038 53.3207 11.3538 53.3572 11.0428 53.4302C10.1485 53.6127 9.21523 53.7587 8.28204 53.9412C7.89321 54.0142 7.50434 54.0872 7.07663 54.1603C7.1544 54.4523 7.2322 54.7808 7.30996 55.0728C7.69879 56.8249 8.08766 58.504 8.9042 60.11C9.72075 61.7526 10.9651 62.7747 12.6759 63.2127C14.309 63.6142 16.0586 64.0522 17.8084 64.2713C20.7635 64.6728 23.6409 64.9648 26.4405 65.1473C29.3567 65.3298 32.3118 65.4393 35.1891 65.5123H35.6556C37.3665 65.5853 39.1552 65.5853 41.0605 65.5123C43.7823 65.4393 46.8539 65.3663 49.8868 65.1838C52.3753 65.0378 54.864 64.7823 57.3913 64.5268C59.6077 64.3077 61.5906 63.9062 63.5348 63.3952C65.5567 62.8477 66.9176 61.7891 67.6564 60.2196C68.5896 58.2485 69.0562 56.1679 69.4451 54.1968C69.2118 54.1238 68.9394 54.0873 68.7061 54.0142C68.1229 53.8682 67.5398 53.7587 66.9177 53.6127C65.9456 53.4302 64.9346 53.2112 63.9625 53.0287C62.9127 52.8097 61.8239 52.5907 60.7351 52.3717C60.1908 52.2622 59.6854 51.9336 59.4521 51.4591C59.1799 51.0211 59.1411 50.4736 59.3355 49.9991C59.6854 49.1595 60.5797 48.7215 61.6296 48.904C62.7183 49.0865 63.8458 49.3055 64.8957 49.5245C65.44 49.634 65.9845 49.7435 66.5288 49.853C67.3454 49.9991 68.1619 50.1451 68.9784 50.3276L70.0283 50.5101L70.2227 46.4949C70.1061 46.4949 70.0282 46.4949 69.9115 46.4949C69.6782 46.4949 69.4839 46.4949 69.2507 46.4949C68.3175 46.4949 67.4231 46.5314 66.4899 46.5679C64.8957 46.6044 63.3016 46.6774 61.6685 46.7139C60.7742 46.7139 60.0353 46.2029 59.802 45.3633C59.5687 44.5603 59.9964 43.7572 60.7351 43.4287C61.0462 43.2827 61.4739 43.2097 61.9016 43.2097C63.2236 43.1732 64.5457 43.1367 65.8288 43.0637C66.5676 43.0637 67.3065 43.0272 68.0452 42.9907C68.5507 42.9907 69.0951 42.9542 69.6006 42.9177C69.795 42.9177 70.0283 42.9177 70.2227 42.9177C70.2227 42.8812 70.2227 42.8447 70.2227 42.8082C70.2616 39.9976 70.106 37.2234 69.795 34.5223C69.4839 31.7847 68.9006 29.12 68.1229 26.6379H68.3173ZM18.6639 36.4204C17.9251 36.4204 17.4195 36.2379 17.0307 35.7999C16.5641 35.2158 16.4863 34.5588 16.7974 33.8653C17.1084 33.1717 17.6918 32.8432 18.4695 32.9162C18.7028 32.9162 18.936 32.9162 19.2082 32.9162C19.3248 32.9162 19.4415 32.9162 19.5581 32.9162C23.2909 32.8797 26.6737 33.9383 29.7066 36.1284C30.0954 36.4204 30.4843 36.7854 30.8731 37.1869C31.3786 37.7345 31.5342 38.3915 31.3398 39.012C31.1453 39.5595 30.7176 39.9611 30.0954 40.1436C29.9399 40.1801 29.7843 40.2166 29.6288 40.2166C29.201 40.2166 28.7735 40.0341 28.4235 39.669C26.9849 38.209 25.1961 37.2599 23.0576 36.8219C21.7355 36.5664 20.3358 36.4204 18.6639 36.4569V36.4204ZM50.7423 50.1816C49.848 52.5907 48.0982 54.1603 45.4542 54.8903C44.7154 55.1093 43.9766 55.2188 43.2378 55.2188C41.3714 55.2188 39.6217 54.5253 38.0275 53.1017C37.872 53.2112 37.6776 53.3572 37.5221 53.4667C37.1333 53.7587 36.7055 54.0507 36.2389 54.3063C33.4782 55.8028 29.7844 55.3648 27.4515 53.3207C26.285 52.2987 25.5461 51.3131 25.1961 50.1816C24.9628 49.5245 25.1183 48.831 25.546 48.3565C25.9738 47.9184 26.596 47.7359 27.257 47.8454C27.8792 47.955 28.2679 48.32 28.5012 48.977C28.8511 49.8895 29.3955 50.6196 30.212 51.1306C31.1063 51.7146 32.1951 51.9336 33.245 51.7511C34.2559 51.5686 35.1502 51.0576 35.6945 50.2546C36.0445 49.78 36.0446 49.3055 36.0057 48.7215C36.0057 48.7215 35.9278 48.612 35.6945 48.5025C34.6836 47.9915 33.4005 47.2614 32.4673 46.0569C31.6119 44.9618 31.6897 44.1223 31.923 43.5747C32.2341 42.7352 33.1284 42.1147 34.256 41.8591C34.6448 41.7861 35.0725 41.7496 35.4225 41.7496H35.4612C37.1332 41.7496 38.8829 41.7496 40.5549 41.7496C41.0993 41.7496 41.6436 41.8227 42.0713 41.9687C43.0434 42.2972 43.7434 42.9177 43.9767 43.6477C44.21 44.4143 43.9766 45.2538 43.3156 46.1299C42.6157 46.9694 41.6825 47.6994 40.3605 48.3565C40.2438 48.4295 40.1272 48.466 40.0106 48.539L39.894 48.612C39.8551 49.415 40.1273 50.1816 40.6717 50.7656C41.2938 51.4226 42.1881 51.7876 43.1991 51.8241C45.0654 51.8971 46.6596 50.8021 47.4373 48.977C47.8261 48.0644 48.4093 47.6994 49.3036 47.8089C49.8479 47.882 50.3146 48.1375 50.5868 48.5755C50.8979 49.0135 50.9367 49.634 50.7423 50.1816ZM60.0742 32.2227C59.9187 32.9892 59.4521 33.5002 58.7133 33.6462C58.3634 33.7192 57.9744 33.6463 57.6245 33.5732C57.119 33.4637 56.6135 33.3177 56.0692 33.2082C55.8748 33.1717 55.6803 33.0987 55.4859 33.0622C55.8748 34.2303 56.0304 35.4348 55.9526 36.6759C55.8748 37.99 55.486 38.939 54.7472 39.669C54.2417 40.1436 53.5419 40.3991 52.8809 40.3991C52.2199 40.3991 51.5587 40.1801 51.0144 39.7055C49.7701 38.6105 49.7703 37.1869 49.8092 35.9094C49.8092 35.4348 49.8869 34.9968 49.9647 34.5223C49.9647 34.3763 50.0034 34.1938 50.0423 34.0478C48.9147 34.9238 48.215 36.1284 47.865 37.6614C47.865 37.844 47.7871 38.0265 47.7483 38.209C47.7483 38.3915 47.6706 38.6105 47.6317 38.8295C47.3984 39.8151 46.5817 40.3991 45.5708 40.2166C44.6765 40.0706 44.0545 39.231 44.1711 38.3185C44.56 35.8364 45.6097 33.7558 47.3205 32.1497C48.7981 30.7626 50.7423 29.9231 53.0753 29.7041C54.7861 29.5215 56.5359 29.7041 58.3634 30.2151C58.6356 30.2881 58.9078 30.3976 59.1411 30.5436C59.841 30.9816 60.152 31.5656 60.0353 32.2592L60.0742 32.2227Z" fill="#C5F700"/>
<path d="M76.2883 33.0255C75.9383 30.6164 75.4718 27.7692 74.5775 24.9586C74.4219 24.4841 74.3052 24.0826 74.3441 23.7175C74.4219 22.8415 74.4998 21.9289 74.4998 21.0894C74.4998 19.0088 74.5387 17.0012 74.4998 14.9206C74.4998 11.964 74.422 8.93431 73.8776 5.90467C73.6832 4.84611 73.4499 3.53206 72.4778 2.364C71.2724 0.903929 69.8726 0.867421 69.1338 0.976926C68.3951 1.08643 67.3842 1.26894 66.4899 1.70696C63.2237 3.16703 60.463 5.24764 58.0911 7.07273C56.808 8.05828 55.5248 9.11683 54.3194 10.1389C53.7362 10.6134 53.1142 11.1244 52.5309 11.6355C42.8102 11.6355 33.3616 11.6355 24.3408 11.6355C23.5631 11.0514 22.8631 10.4309 22.2409 9.91986C18.8192 7.03622 15.8254 4.88263 12.8314 3.13054C11.7038 2.47351 10.265 1.59746 8.63191 1.19594C6.37669 0.61191 4.58811 1.37845 3.61604 3.38605C3.46051 3.67806 3.30498 4.04308 3.22721 4.4811C3.14944 4.80962 3.11056 5.17464 3.0328 5.50316V5.57615C2.7995 6.6347 2.60512 7.72976 2.48847 8.82481C2.29406 10.8689 2.25514 12.8765 2.25514 14.4096C2.25514 16.1982 2.25514 18.0233 2.25514 19.8118C2.25514 20.4324 2.25514 21.0894 2.25514 21.7099C2.25514 22.0385 2.25514 22.3305 2.25514 22.659C2.29402 23.608 2.3329 24.4841 2.06072 25.2871C0.971998 28.7913 0.310988 32.5875 0.116573 36.5662C-7.59479e-05 38.8658 1.28724e-10 41.2019 1.28724e-10 43.5015V44.6331C1.28724e-10 47.5897 0.116649 50.0353 0.38883 52.3349C0.738776 55.2551 1.39982 58.1022 2.3719 60.8034C2.87738 62.2269 3.57727 63.8695 4.89929 65.3296C6.41573 67.0087 8.39876 68.1037 11.315 68.9067C13.4924 69.4908 15.8253 69.9288 18.4305 70.1478L20.1802 70.3303C22.7854 70.5858 25.4683 70.8413 28.1123 70.9874C30.5619 71.1334 33.0116 71.1699 35.3446 71.2429H35.4224C36.3945 71.2429 37.2887 71.2794 38.183 71.3159H38.2608C39.1551 71.3159 40.0493 71.2794 40.9048 71.2429H41.177C43.3156 71.1699 45.2985 71.1333 47.3205 71.0603C48.9924 71.0238 50.5477 70.9143 51.9864 70.8048C53.3084 70.6953 54.6694 70.5493 55.9526 70.4033H56.0304C56.6136 70.3303 57.2356 70.2573 57.8189 70.2208C60.4629 69.9653 62.8349 69.5638 65.129 68.9798C69.2506 67.9577 72.1279 65.6946 73.6443 62.2269C75.0052 59.1608 75.8218 55.8391 76.2495 52.0064C76.444 49.9988 76.5606 47.8087 76.5994 45.2536V44.268C76.6772 40.6544 76.7161 36.8947 76.1717 33.1715L76.2883 33.0255ZM73.4888 44.122V45.1076C73.4499 47.5532 73.3333 49.6703 73.1389 51.6049C72.789 55.1456 72.0113 58.1752 70.767 60.9494C69.6005 63.5775 67.5786 65.1471 64.3902 65.9501C62.2517 66.4611 60.0353 66.8626 57.5468 67.1182C56.9247 67.1912 56.3414 67.2277 55.7192 67.3007H55.6416C54.3584 67.4467 53.0753 67.5927 51.7533 67.7022C50.3535 67.8117 48.8759 67.9212 47.2428 67.9577C45.2598 68.0307 43.2378 68.0672 41.1381 68.1037H40.866C40.0106 68.1037 39.1552 68.1402 38.2997 68.1767C37.4054 68.1767 36.5111 68.1402 35.539 68.1037H35.4612C33.1282 68.0307 30.7564 67.9942 28.3456 67.8482C25.7405 67.7022 23.0964 67.4467 20.5301 67.1912L18.7804 67.0087C16.3697 66.7896 14.2311 66.3881 12.2092 65.8406C9.954 65.2201 8.43757 64.417 7.34884 63.2125C6.37677 62.1174 5.83241 60.8034 5.4047 59.6718C4.51039 57.1897 3.88818 54.5616 3.57712 51.8604C3.30494 49.7068 3.18829 47.3342 3.18829 44.4871V43.3555C3.18829 41.1289 3.18837 38.8293 3.26613 36.6027C3.46055 32.8795 4.08275 29.3023 5.09371 26.0537C5.48254 24.7761 5.44358 23.535 5.4047 22.4765C5.4047 22.1845 5.4047 21.8924 5.4047 21.6004C5.4047 20.9799 5.4047 20.3229 5.4047 19.6658C5.4047 17.9138 5.36581 16.1252 5.4047 14.3731C5.4047 12.913 5.44362 10.9419 5.63803 9.04382C5.7158 8.05827 5.94902 7.07272 6.14343 6.08718V6.01418C6.2212 5.64916 6.299 5.32065 6.37677 4.95563C6.37677 4.88263 6.49338 4.70012 6.53226 4.59061C6.84333 3.97008 7.03782 3.86058 7.77659 4.04308C8.94308 4.3351 10.0707 4.99213 11.1206 5.64916C13.959 7.32824 16.7973 9.37234 20.1024 12.1465C20.8023 12.7305 21.6189 13.424 22.5132 14.1176C22.9409 14.4461 23.5631 14.6651 24.1074 14.6651C33.2838 14.6651 42.9657 14.6651 52.8808 14.6651C53.4252 14.6651 53.9695 14.4826 54.3972 14.1541C55.0971 13.6065 55.797 13.0225 56.4969 12.4385C57.7023 11.4529 58.9465 10.4309 60.1908 9.44534C62.4071 7.72976 65.0122 5.79516 67.9284 4.4811C68.4728 4.22559 69.1727 4.11609 69.7171 4.00658C69.7171 4.00658 69.8339 4.04308 70.0283 4.26209C70.4949 4.84611 70.6504 5.64915 70.8059 6.45219C71.3114 9.26283 71.3503 12.183 71.3892 15.0301C71.3892 17.0377 71.3892 19.0453 71.3892 21.0894C71.3892 21.8559 71.3501 22.659 71.2335 23.462C71.1557 24.3746 71.3503 25.1411 71.5836 25.8711C72.439 28.4993 72.8666 31.1639 73.1776 33.4635C73.6831 36.9677 73.6053 40.6179 73.5665 44.1585L73.4888 44.122Z" fill="#C5F700"/>
</svg>
