<svg width="115" height="106" viewBox="0 0 115 106" fill="none" xmlns="http://www.w3.org/2000/svg">
<path d="M102.491 38.4989C102.316 37.8965 102.083 37.2394 102.141 36.637C102.141 35.3228 102.258 34.0085 102.316 32.749C102.375 30.9419 102.491 29.08 102.491 27.2729C102.491 23.7682 102.433 20.2636 102.258 16.8684C102.199 15.2803 101.966 13.8018 101.733 12.159C101.616 11.5018 101.558 10.8447 101.5 10.1328C101.5 10.1328 101.441 10.1328 101.383 10.1328C101.266 10.1876 101.149 10.2423 101.091 10.2971C97.1828 12.6518 93.4496 15.2256 90.0663 17.9636C88.0829 19.5517 86.158 21.1945 84.2913 22.7826C83.708 23.2754 83.1247 23.7682 82.5413 24.2611C81.8413 24.8635 81.0247 25.1373 79.9747 25.1373C65.0415 25.1373 50.1664 25.1373 35.2331 25.1373C34.2415 25.1373 33.4249 24.8635 32.6665 24.2063C30.7999 22.6183 28.9333 21.0302 27.4749 19.8255C23.3333 16.3208 18.9581 13.2542 14.4665 10.6257C14.2915 10.5161 14.0582 10.4066 13.8832 10.2971C13.8248 10.2971 13.7666 10.2423 13.7083 10.1876C13.7083 10.1876 13.7083 10.1876 13.7083 10.2423C13.7083 10.3519 13.7082 10.4066 13.6499 10.5161C13.5916 11.2828 13.4749 12.1042 13.3582 12.8709C13.1249 14.6232 12.9499 16.4851 12.8333 18.2922C12.4833 23.8778 12.7164 29.6277 12.9498 34.5561C12.9498 34.6657 12.9498 34.7752 12.9498 34.9395C13.0081 36.1442 13.0667 37.4037 12.6 38.6084C12.4833 38.8275 12.4248 39.0465 12.3664 39.2656C12.3664 39.3751 12.3667 39.4298 12.3083 39.5394C11.2 43.2631 10.5 46.6035 10.2083 49.8344C9.97496 52.1891 9.79996 54.7081 9.62496 57.7747C9.56663 58.9794 9.62496 60.1842 9.62496 61.4437C9.62496 61.9365 9.62496 62.4841 9.62496 63.0317C9.62496 63.0317 9.68312 63.0317 9.74145 63.0317C9.85812 63.0317 10.0333 63.0317 10.2083 63.0317C11.2 63.0317 12.1917 63.0865 13.1833 63.1413C15.05 63.196 16.9164 63.2508 18.7831 63.3055H19.0166C20.3 63.3055 21.5831 63.4151 22.8664 63.5246C23.9747 63.6341 24.9664 64.5103 25.1997 65.5507C25.4331 66.7007 24.9082 67.7412 23.9166 68.3983C23.2166 68.8364 22.3997 68.8364 21.6997 68.7816C19.5997 68.7269 17.5583 68.6721 15.4583 68.5626C13.7083 68.5078 11.8999 68.4531 10.1499 68.3983C10.0332 68.3983 9.85835 68.3983 9.68335 68.3983C9.68335 68.3983 9.56651 68.3983 9.50818 68.3983L9.85823 74.422L11.6082 74.0934C13.0082 73.8196 14.3499 73.6006 15.6915 73.3268C16.4499 73.1625 17.2081 73.053 17.9081 72.8887C19.3664 72.6149 20.8247 72.3411 22.2831 72.0673C23.6831 71.7935 24.7331 72.0673 25.4914 72.9982C26.0747 73.7649 26.2498 74.641 25.8998 75.4624C25.5498 76.3386 24.6749 77.0505 23.6249 77.2696C21.7582 77.6529 19.8332 78.0362 18.0249 78.4195C17.5582 78.5291 17.0332 78.5838 16.5665 78.6933C15.2249 78.9671 13.8248 79.1862 12.4248 79.46C11.8415 79.5695 11.2581 79.679 10.6165 79.7886C10.7331 80.2266 10.8498 80.7195 10.9665 81.1576C11.5498 83.7861 12.1332 86.3051 13.3582 88.7146C14.5832 91.1788 16.45 92.7121 19.0166 93.3692C21.4666 93.9716 24.0915 94.6287 26.7164 94.9573C31.1498 95.5597 35.4665 95.9977 39.6665 96.2716C44.0415 96.5454 48.4748 96.7096 52.7915 96.8192H53.4913C56.0579 96.9287 58.7415 96.9287 61.5998 96.8192C65.6831 96.7096 70.2913 96.6001 74.8413 96.3263C78.5746 96.1073 82.3081 95.7239 86.0997 95.3406C89.4247 95.012 92.3996 94.4097 95.3162 93.643C98.3496 92.8216 100.391 91.2336 101.5 88.8788C102.9 85.9218 103.6 82.8004 104.183 79.8433C103.833 79.7338 103.424 79.679 103.074 79.5695C102.199 79.3505 101.325 79.1862 100.391 78.9671C98.933 78.6933 97.4163 78.3648 95.958 78.091C94.383 77.7624 92.7495 77.4338 91.1161 77.1053C90.2995 76.941 89.5413 76.4481 89.1913 75.7363C88.7829 75.0791 88.7247 74.2577 89.0164 73.5458C89.5414 72.2863 90.883 71.6292 92.458 71.903C94.0913 72.1768 95.7829 72.5054 97.3579 72.8339C98.1746 72.9982 98.9913 73.1625 99.808 73.3268C101.033 73.5458 102.258 73.7649 103.483 74.0387L105.058 74.3125L105.35 68.2888C105.175 68.2888 105.058 68.2888 104.883 68.2888C104.533 68.2888 104.241 68.2888 103.891 68.2888C102.491 68.2888 101.15 68.3435 99.7496 68.3983C97.358 68.4531 94.9664 68.5626 92.5164 68.6174C91.1747 68.6174 90.0662 67.8507 89.7162 66.5912C89.3662 65.3865 90.0078 64.1817 91.1161 63.6889C91.5828 63.4698 92.2245 63.3603 92.8661 63.3603C94.8495 63.3055 96.8328 63.2508 98.7578 63.1413C99.8662 63.1413 100.975 63.0865 102.083 63.0317C102.841 63.0317 103.658 62.977 104.416 62.9222C104.708 62.9222 105.058 62.9222 105.35 62.9222C105.35 62.8675 105.35 62.8127 105.35 62.7579C105.408 58.5414 105.175 54.3795 104.708 50.3272C104.241 46.2202 103.366 42.2226 102.199 38.4989H102.491ZM35.0583 60.0199C31.0916 60.0199 27.7665 57.6104 26.7748 54.051C26.5998 53.3938 26.6 52.7367 26.6 52.0248C26.6 51.8605 26.5998 51.6963 26.4832 51.6415C26.4248 51.5867 26.3081 51.5867 26.0747 51.5867C25.2581 51.5867 24.5 51.5867 23.6833 51.5867C23.5083 51.5867 23.275 51.5867 23.1 51.5867C22.225 51.5867 21.4665 51.3129 20.9415 50.7653C20.4165 50.2725 20.1249 49.6153 20.1249 48.8487C20.1249 47.4249 21.4082 46.2749 23.0416 46.2749C31.3249 46.2749 39.0832 46.2749 46.6665 46.2749C47.4248 46.2749 48.1831 46.5487 48.7081 47.0416C49.2331 47.5344 49.4664 48.1916 49.4664 48.8487C49.4664 50.3272 48.2415 51.532 46.6665 51.532C45.9665 51.532 45.2664 51.532 44.5664 51.532C44.2748 51.532 44.0415 51.532 43.7498 51.532C43.7498 51.8058 43.7498 52.0248 43.6914 52.2986C43.6914 52.901 43.5748 53.5034 43.4582 54.051C42.5832 57.3914 39.6664 59.6913 35.7581 59.9651C35.5247 59.9651 35.2332 59.9651 34.9999 59.9651L35.0583 60.0199ZM78.3412 72.7792C77.4663 76.941 74.7247 79.6243 70.233 80.7742C68.9497 81.1028 67.7247 81.2671 66.4997 81.2671C63.2331 81.2671 60.3164 80.0624 57.6914 77.5981C57.6914 77.5981 57.6329 77.5434 57.5746 77.4886C56.1163 78.9671 54.3663 80.0076 52.3246 80.61C49.8163 81.3766 47.0747 81.3766 44.508 80.6647C41.9414 79.9528 39.7831 78.4743 38.3831 76.6124C37.3331 75.1886 36.7497 73.8196 36.6331 72.3958C36.5164 71.0816 37.5081 69.8221 39.0248 69.5483C40.3081 69.2745 41.7081 70.0411 42.2331 71.2459C42.2914 71.4649 42.3497 71.6292 42.408 71.8482C42.4663 72.0673 42.5249 72.2863 42.6416 72.5054C43.3999 74.2577 44.8582 75.2982 47.0165 75.6815C49.5832 76.1196 51.5665 75.5172 53.1415 73.9839C53.8998 73.2173 54.3082 72.3958 54.3082 71.4649C54.3082 71.3006 54.1915 71.0268 54.0165 70.8625C53.3165 70.2054 52.6749 69.603 51.9749 69.0007C51.1582 68.234 50.283 67.4674 49.408 66.646C48.183 65.496 47.8913 64.0722 48.533 62.5389C49.1163 61.1699 50.5165 60.3485 52.2081 60.3485H54.4247C57.1663 60.3485 59.9664 60.3485 62.7081 60.3485C64.4581 60.3485 65.6829 61.0604 66.3246 62.4294C67.0246 63.7984 66.8496 65.1674 65.7412 66.4269C65.5079 66.7007 65.2747 66.9198 65.0414 67.1388C64.9831 67.1936 64.9246 67.2483 64.8662 67.3031C63.7579 68.3435 62.5329 69.4935 61.3663 70.6435C61.2496 70.753 61.0747 70.8625 60.8997 70.9721C60.8414 70.9721 60.7248 71.0816 60.6664 71.1363C60.6664 72.0125 60.958 72.8887 61.7163 73.7649C62.883 75.0791 64.8663 75.8458 66.9663 75.7363C69.0079 75.6267 70.8164 74.8053 71.8081 73.4363C72.1581 72.9982 72.3913 72.3958 72.5663 71.6292C72.9747 70.1507 74.3163 69.2197 75.7163 69.4935C77.3496 69.8221 78.458 71.3006 78.1664 72.7244L78.3412 72.7792ZM94.558 50.2177C94.033 51.0939 93.2162 51.532 92.1079 51.532C91.2913 51.532 90.4163 51.532 89.5413 51.532C89.1913 51.532 88.8412 51.532 88.4912 51.532C88.6662 54.4891 87.4414 56.8438 84.9331 58.5414C83.4747 59.5271 81.8412 59.9651 80.0912 59.9651C79.8579 59.9651 79.5664 59.9651 79.333 59.9651C77.058 59.8009 75.0164 58.8699 73.4997 57.3366C71.9831 55.8033 71.1663 53.7224 71.3413 51.532H70.5831C69.9414 51.532 69.2996 51.532 68.6579 51.532C66.9079 51.532 65.6831 50.4368 65.6831 48.8487C65.6831 47.3154 66.8498 46.2202 68.5998 46.2202C71.2831 46.2202 74.083 46.2202 76.708 46.2202C77.758 46.2202 78.808 46.2202 79.858 46.2202H83.1831C86.0414 46.2202 89.0164 46.2202 91.933 46.2202C93.0414 46.2202 93.9746 46.713 94.4996 47.5344C95.0246 48.3559 95.0246 49.3415 94.4996 50.2177H94.558Z" fill="#6C00E0"/>
<path d="M114.449 48.1369C113.924 44.5227 113.224 40.2514 111.883 36.0348C111.649 35.3229 111.474 34.7205 111.533 34.1729C111.649 32.8587 111.766 31.4896 111.766 30.2301C111.766 27.1088 111.825 24.0969 111.766 20.9756C111.766 16.5399 111.65 11.9948 110.833 7.44966C110.541 5.8616 110.191 3.8902 108.733 2.13786C106.925 -0.0525726 104.824 -0.107331 103.716 0.0569515C102.608 0.221234 101.091 0.495038 99.7496 1.15217C94.8496 3.3426 90.7079 6.46396 87.1496 9.202C85.2246 10.6805 83.2995 12.2686 81.4912 13.8019C80.6162 14.5138 79.6831 15.2805 78.8081 16.0471C64.2248 16.0471 50.0499 16.0471 36.5166 16.0471C35.3499 15.1709 34.2997 14.24 33.3664 13.4733C28.2331 9.14724 23.7416 5.91636 19.2499 3.28784C17.5583 2.30215 15.3998 0.987884 12.9498 0.385515C9.56646 -0.490657 6.88319 0.659319 5.42486 3.67116C5.19153 4.10925 4.9582 4.65686 4.84153 5.31399C4.72487 5.80683 4.66653 6.35444 4.54987 6.84729V6.95681C4.19987 8.54487 3.90826 10.1877 3.73326 11.8305C3.4416 14.8971 3.38321 17.909 3.38321 20.2089C3.38321 22.8922 3.38321 25.6302 3.38321 28.3135C3.38321 29.2445 3.38321 30.2301 3.38321 31.1611C3.38321 31.6539 3.38321 32.092 3.38321 32.5849C3.44154 34.0086 3.49987 35.3229 3.09154 36.5276C1.45821 41.7847 0.466551 47.4798 0.174885 53.4487C-0.000113939 56.8987 1.93115e-10 60.4033 1.93115e-10 63.8533V65.5509C1.93115e-10 69.9865 0.174999 73.6555 0.583331 77.1054C1.10833 81.4863 2.10005 85.7576 3.55838 89.8099C4.31671 91.9456 5.3667 94.4098 7.35003 96.6002C9.62502 99.1192 12.6 100.762 16.975 101.967C20.2416 102.843 23.7415 103.5 27.6498 103.829L30.2748 104.102C34.1831 104.486 38.2081 104.869 42.1747 105.088C45.8497 105.307 49.5247 105.362 53.0247 105.471H53.1415C54.5998 105.471 55.9413 105.526 57.2829 105.581H57.3997C58.7414 105.581 60.0829 105.526 61.3663 105.471H61.7747C64.983 105.362 67.9579 105.307 70.9912 105.198C73.4995 105.143 75.8329 104.979 77.9912 104.814C79.9745 104.65 82.0163 104.431 83.9413 104.212H84.0581C84.9331 104.102 85.8662 103.993 86.7412 103.938C90.7078 103.555 94.2663 102.952 97.708 102.076C103.891 100.543 108.208 97.1478 110.483 91.9456C112.525 87.3457 113.75 82.3624 114.391 76.6125C114.683 73.6007 114.858 70.315 114.916 66.4818V65.0033C115.033 59.5819 115.091 53.9416 114.274 48.356L114.449 48.1369ZM110.25 64.7842V66.2628C110.191 69.9317 110.016 73.1079 109.725 76.0102C109.2 81.322 108.033 85.8671 106.166 90.0289C104.416 93.9717 101.383 96.3264 96.5997 97.5312C93.3914 98.2978 90.0663 98.9002 86.333 99.2835C85.3997 99.393 84.5246 99.4478 83.5912 99.5573H83.4747C81.5497 99.7764 79.6247 99.9954 77.6414 100.16C75.5414 100.324 73.3247 100.488 70.8747 100.543C67.8997 100.653 64.8663 100.707 61.7163 100.762H61.3082C60.0248 100.762 58.7414 100.817 57.4581 100.872C56.1164 100.872 54.7747 100.817 53.3164 100.762H53.1996C49.6996 100.653 46.1414 100.598 42.5248 100.379C38.6165 100.16 34.6497 99.7764 30.7998 99.393L28.1748 99.1192C24.5581 98.7907 21.3499 98.1883 18.3165 97.3669C14.9332 96.436 12.6582 95.2312 11.0249 93.4241C9.56657 91.7813 8.74991 89.8099 8.10824 88.1123C6.76658 84.3886 5.83314 80.4458 5.36647 76.3935C4.95814 73.1626 4.78314 69.6032 4.78314 65.3318V63.6342C4.78314 60.2938 4.78326 56.8439 4.89992 53.5035C5.19159 47.9179 6.12503 42.5513 7.64169 37.6776C8.22503 35.761 8.16658 33.8991 8.10824 32.3111C8.10824 31.873 8.10824 31.4349 8.10824 30.9968C8.10824 30.0659 8.10824 29.0802 8.10824 28.0945C8.10824 25.466 8.04991 22.7827 8.10824 20.1542C8.10824 17.9637 8.16663 15.0066 8.4583 12.1591C8.57497 10.6805 8.92485 9.202 9.21652 7.72346V7.61394C9.33318 7.06633 9.44991 6.57349 9.56657 6.02588C9.56657 5.91636 9.74151 5.64255 9.79985 5.47827C10.2665 4.54734 10.5583 4.38306 11.6666 4.65686C13.4166 5.09495 15.1083 6.08064 16.6833 7.06633C20.9416 9.58533 25.1997 12.6519 30.158 16.8138C31.208 17.6899 32.4332 18.7304 33.7748 19.7708C34.4165 20.2637 35.3499 20.5922 36.1665 20.5922C49.9331 20.5922 64.4581 20.5922 79.333 20.5922C80.1497 20.5922 80.9663 20.3184 81.608 19.8256C82.658 19.0042 83.7079 18.128 84.7579 17.2518C86.5662 15.7733 88.4329 14.24 90.2995 12.7615C93.6245 10.1877 97.5328 7.28538 101.908 5.31399C102.724 4.93066 103.774 4.76638 104.591 4.60209C104.591 4.60209 104.766 4.65686 105.058 4.98542C105.758 5.8616 105.991 7.06633 106.225 8.27107C106.983 12.4877 107.041 16.8685 107.1 21.1399C107.1 24.1517 107.1 27.1635 107.1 30.2301C107.1 31.3801 107.041 32.5849 106.866 33.7896C106.749 35.1586 107.041 36.3086 107.391 37.4038C108.675 41.3466 109.316 45.3441 109.783 48.7941C110.541 54.0511 110.424 59.5272 110.366 64.839L110.25 64.7842Z" fill="#6C00E0"/>
</svg>
