<svg width="141" height="24" viewBox="0 0 141 24" fill="none" xmlns="http://www.w3.org/2000/svg">
<path d="M140.583 2.62489C140.356 2.1627 140.015 1.77159 139.599 1.45161C139.182 1.13163 138.69 0.847221 138.16 0.669454C137.591 0.456134 136.985 0.38501 136.379 0.38501H120.738C120.094 0.38501 119.526 0.491687 118.958 0.669454C118.39 0.882774 117.936 1.13163 117.519 1.45161C117.102 1.77159 116.761 2.19825 116.534 2.62489C116.307 3.08708 116.193 3.54927 116.193 4.08257V19.9394C116.193 20.4371 116.307 20.9349 116.534 21.3971C116.761 21.8593 117.102 22.2503 117.519 22.5703C117.936 22.8903 118.428 23.1747 118.996 23.3525C119.564 23.5303 120.17 23.6369 120.776 23.6369H136.417C137.023 23.6369 137.629 23.5303 138.197 23.3525C138.765 23.1747 139.258 22.8903 139.674 22.5703C140.091 22.2503 140.432 21.8237 140.659 21.3971C140.886 20.9349 141 20.4727 141 19.9394V4.08257C141 3.58482 140.886 3.08708 140.659 2.62489H140.583ZM135.698 4.61587V19.3705H121.42V4.61587H135.698Z" fill="#6C00E0"/>
<path d="M33.5173 23.6725L34.4262 21.4326H45.8637L46.7727 23.6725H52.1127L42.531 0.38501H37.6832L28.1014 23.6725H33.4415H33.5173ZM40.145 7.53125L43.8186 16.4551H36.4334L40.145 7.53125Z" fill="#6C00E0"/>
<path d="M5.26431 23.5302V14.4996H19.2772V23.5302H24.5794V0.456055H19.2772V9.52216H5.26431V0.456055H0V23.5302H5.26431Z" fill="#6C00E0"/>
<path d="M59.9904 23.5657V6.99788L73.6624 23.5657H80.0629V0.456055H74.7986V17.0239L61.1266 0.456055H54.7261V23.5657H59.9904Z" fill="#6C00E0"/>
<path d="M90.8566 23.5657V6.99788L104.529 23.5657H110.929V0.456055H105.627V17.0239L91.9549 0.456055H85.5544V23.5657H90.8566Z" fill="#6C00E0"/>
</svg>
