<svg width="648" height="1163" viewBox="0 0 648 1163" fill="none" xmlns="http://www.w3.org/2000/svg">
<mask id="mask0_7_6241" style="mask-type:alpha" maskUnits="userSpaceOnUse" x="0" y="0" width="648" height="1163">
<path d="M0 0H548C603.228 0 648 44.7715 648 100V1163H0V0Z" fill="#D9D9D9"/>
</mask>
<g mask="url(#mask0_7_6241)">
<path d="M77.56 0H29.9609V44.6842H77.56V0Z" fill="#350066" fill-opacity="0.5"/>
<path d="M172.758 0H125.159V44.6842H172.758V0Z" fill="#350066" fill-opacity="0.5"/>
<path d="M268.1 0H220.501V44.6842H268.1V0Z" fill="#350066" fill-opacity="0.5"/>
<path d="M363.442 0H315.843V44.6842H363.442V0Z" fill="#350066" fill-opacity="0.5"/>
<path d="M458.783 0H411.184V44.6842H458.783V0Z" fill="#350066" fill-opacity="0.5"/>
<path d="M553.981 0H506.382V44.6842H553.981V0Z" fill="#350066" fill-opacity="0.5"/>
<path d="M649.323 0H601.724V44.6842H649.323V0Z" fill="#350066" fill-opacity="0.5"/>
<path d="M77.56 179.006H29.9609V223.69H77.56V179.006Z" fill="#350066" fill-opacity="0.5"/>
<path d="M172.758 179.006H125.159V223.69H172.758V179.006Z" fill="#350066" fill-opacity="0.5"/>
<path d="M268.1 179.006H220.501V223.69H268.1V179.006Z" fill="#350066" fill-opacity="0.5"/>
<path d="M363.442 179.006H315.843V223.69H363.442V179.006Z" fill="#350066" fill-opacity="0.5"/>
<path d="M458.783 179.006H411.184V223.69H458.783V179.006Z" fill="#350066" fill-opacity="0.5"/>
<path d="M553.981 179.006H506.382V223.69H553.981V179.006Z" fill="#350066" fill-opacity="0.5"/>
<path d="M649.323 179.006H601.724V223.69H649.323V179.006Z" fill="#350066" fill-opacity="0.5"/>
<path d="M77.56 89.5029H29.9609V134.187H77.56V89.5029Z" fill="#350066" fill-opacity="0.5"/>
<path d="M172.758 89.5029H125.159V134.187H172.758V89.5029Z" fill="#350066" fill-opacity="0.5"/>
<path d="M268.1 89.5029H220.501V134.187H268.1V89.5029Z" fill="#350066" fill-opacity="0.5"/>
<path d="M363.442 89.5029H315.843V134.187H363.442V89.5029Z" fill="#350066" fill-opacity="0.5"/>
<path d="M458.783 89.5029H411.184V134.187H458.783V89.5029Z" fill="#350066" fill-opacity="0.5"/>
<path d="M553.981 89.5029H506.382V134.187H553.981V89.5029Z" fill="#350066" fill-opacity="0.5"/>
<path d="M649.323 89.5029H601.724V134.187H649.323V89.5029Z" fill="#350066" fill-opacity="0.5"/>
<path d="M48.5991 44.8191H1V89.5033H48.5991V44.8191Z" fill="#350066" fill-opacity="0.5"/>
<path d="M143.941 44.8193H96.3418V89.5035H143.941V44.8193Z" fill="#350066" fill-opacity="0.5"/>
<path d="M239.139 44.8193H191.54V89.5035H239.139V44.8193Z" fill="#350066" fill-opacity="0.5"/>
<path d="M334.481 44.8193H286.881V89.5035H334.481V44.8193Z" fill="#350066" fill-opacity="0.5"/>
<path d="M429.823 44.8193H382.223V89.5035H429.823V44.8193Z" fill="#350066" fill-opacity="0.5"/>
<path d="M525.164 44.8193H477.565V89.5035H525.164V44.8193Z" fill="#350066" fill-opacity="0.5"/>
<path d="M620.362 44.8193H572.763V89.5035H620.362V44.8193Z" fill="#350066" fill-opacity="0.5"/>
<path d="M48.5991 223.69H1V268.374H48.5991V223.69Z" fill="#350066" fill-opacity="0.5"/>
<path d="M143.941 223.69H96.3418V268.374H143.941V223.69Z" fill="#350066" fill-opacity="0.5"/>
<path d="M239.139 223.69H191.54V268.374H239.139V223.69Z" fill="#350066" fill-opacity="0.5"/>
<path d="M334.481 223.69H286.881V268.374H334.481V223.69Z" fill="#350066" fill-opacity="0.5"/>
<path d="M429.823 223.69H382.223V268.374H429.823V223.69Z" fill="#350066" fill-opacity="0.5"/>
<path d="M525.164 223.69H477.565V268.374H525.164V223.69Z" fill="#350066" fill-opacity="0.5"/>
<path d="M620.362 223.69H572.763V268.374H620.362V223.69Z" fill="#350066" fill-opacity="0.5"/>
<path d="M101.36 134.322H53.7605V179.006H101.36V134.322Z" fill="#350066" fill-opacity="0.5"/>
<path d="M196.701 134.322H149.102V179.006H196.701V134.322Z" fill="#350066" fill-opacity="0.5"/>
<path d="M291.899 134.322H244.3V179.006H291.899V134.322Z" fill="#350066" fill-opacity="0.5"/>
<path d="M387.241 134.322H339.642V179.006H387.241V134.322Z" fill="#350066" fill-opacity="0.5"/>
<path d="M482.583 134.322H434.984V179.006H482.583V134.322Z" fill="#350066" fill-opacity="0.5"/>
<path d="M577.781 134.322H530.182V179.006H577.781V134.322Z" fill="#350066" fill-opacity="0.5"/>
<path d="M673.123 134.322H625.524V179.006H673.123V134.322Z" fill="#350066" fill-opacity="0.5"/>
<path d="M77.56 357.877H29.9609V402.561H77.56V357.877Z" fill="#350066" fill-opacity="0.5"/>
<path d="M172.758 357.877H125.159V402.561H172.758V357.877Z" fill="#350066" fill-opacity="0.5"/>
<path d="M268.1 357.877H220.501V402.561H268.1V357.877Z" fill="#350066" fill-opacity="0.5"/>
<path d="M363.442 357.877H315.843V402.561H363.442V357.877Z" fill="#350066" fill-opacity="0.5"/>
<path d="M458.783 357.877H411.184V402.561H458.783V357.877Z" fill="#350066" fill-opacity="0.5"/>
<path d="M553.981 357.877H506.382V402.561H553.981V357.877Z" fill="#350066" fill-opacity="0.5"/>
<path d="M649.323 357.877H601.724V402.561H649.323V357.877Z" fill="#350066" fill-opacity="0.5"/>
<path d="M77.56 268.509H29.9609V313.193H77.56V268.509Z" fill="#350066" fill-opacity="0.5"/>
<path d="M172.758 268.509H125.159V313.193H172.758V268.509Z" fill="#350066" fill-opacity="0.5"/>
<path d="M268.1 268.509H220.501V313.193H268.1V268.509Z" fill="#350066" fill-opacity="0.5"/>
<path d="M363.442 268.509H315.843V313.193H363.442V268.509Z" fill="#350066" fill-opacity="0.5"/>
<path d="M458.783 268.509H411.184V313.193H458.783V268.509Z" fill="#350066" fill-opacity="0.5"/>
<path d="M553.981 268.509H506.382V313.193H553.981V268.509Z" fill="#350066" fill-opacity="0.5"/>
<path d="M649.323 268.509H601.724V313.193H649.323V268.509Z" fill="#350066" fill-opacity="0.5"/>
<path d="M48.5991 402.696H1V447.38H48.5991V402.696Z" fill="#350066" fill-opacity="0.5"/>
<path d="M143.941 402.696H96.3418V447.38H143.941V402.696Z" fill="#350066" fill-opacity="0.5"/>
<path d="M239.139 402.696H191.54V447.38H239.139V402.696Z" fill="#350066" fill-opacity="0.5"/>
<path d="M334.481 402.696H286.881V447.38H334.481V402.696Z" fill="#350066" fill-opacity="0.5"/>
<path d="M429.823 402.696H382.223V447.38H429.823V402.696Z" fill="#350066" fill-opacity="0.5"/>
<path d="M525.164 402.696H477.565V447.38H525.164V402.696Z" fill="#350066" fill-opacity="0.5"/>
<path d="M620.362 402.696H572.763V447.38H620.362V402.696Z" fill="#350066" fill-opacity="0.5"/>
<path d="M101.36 313.193H53.7605V357.877H101.36V313.193Z" fill="#350066" fill-opacity="0.5"/>
<path d="M196.701 313.193H149.102V357.877H196.701V313.193Z" fill="#350066" fill-opacity="0.5"/>
<path d="M291.899 313.193H244.3V357.877H291.899V313.193Z" fill="#350066" fill-opacity="0.5"/>
<path d="M387.241 313.193H339.642V357.877H387.241V313.193Z" fill="#350066" fill-opacity="0.5"/>
<path d="M482.583 313.193H434.984V357.877H482.583V313.193Z" fill="#350066" fill-opacity="0.5"/>
<path d="M577.781 313.193H530.182V357.877H577.781V313.193Z" fill="#350066" fill-opacity="0.5"/>
<path d="M673.123 313.193H625.524V357.877H673.123V313.193Z" fill="#350066" fill-opacity="0.5"/>
<path d="M77.56 536.883H29.9609V581.567H77.56V536.883Z" fill="#350066" fill-opacity="0.5"/>
<path d="M172.758 536.883H125.159V581.567H172.758V536.883Z" fill="#350066" fill-opacity="0.5"/>
<path d="M268.1 536.883H220.501V581.567H268.1V536.883Z" fill="#350066" fill-opacity="0.5"/>
<path d="M363.442 536.883H315.843V581.567H363.442V536.883Z" fill="#350066" fill-opacity="0.5"/>
<path d="M458.783 536.883H411.184V581.567H458.783V536.883Z" fill="#350066" fill-opacity="0.5"/>
<path d="M553.981 536.883H506.382V581.567H553.981V536.883Z" fill="#350066" fill-opacity="0.5"/>
<path d="M649.323 536.883H601.724V581.567H649.323V536.883Z" fill="#350066" fill-opacity="0.5"/>
<path d="M77.56 447.38H29.9609V492.064H77.56V447.38Z" fill="#350066" fill-opacity="0.5"/>
<path d="M172.758 447.38H125.159V492.064H172.758V447.38Z" fill="#350066" fill-opacity="0.5"/>
<path d="M268.1 447.38H220.501V492.064H268.1V447.38Z" fill="#350066" fill-opacity="0.5"/>
<path d="M363.442 447.38H315.843V492.064H363.442V447.38Z" fill="#350066" fill-opacity="0.5"/>
<path d="M458.783 447.38H411.184V492.064H458.783V447.38Z" fill="#350066" fill-opacity="0.5"/>
<path d="M553.981 447.38H506.382V492.064H553.981V447.38Z" fill="#350066" fill-opacity="0.5"/>
<path d="M649.323 447.38H601.724V492.064H649.323V447.38Z" fill="#350066" fill-opacity="0.5"/>
<path d="M48.5991 581.567H1V626.251H48.5991V581.567Z" fill="#350066" fill-opacity="0.5"/>
<path d="M143.941 581.567H96.3418V626.251H143.941V581.567Z" fill="#350066" fill-opacity="0.5"/>
<path d="M239.139 581.567H191.54V626.251H239.139V581.567Z" fill="#350066" fill-opacity="0.5"/>
<path d="M334.481 581.567H286.881V626.251H334.481V581.567Z" fill="#350066" fill-opacity="0.5"/>
<path d="M429.823 581.567H382.223V626.251H429.823V581.567Z" fill="#350066" fill-opacity="0.5"/>
<path d="M525.164 581.567H477.565V626.251H525.164V581.567Z" fill="#350066" fill-opacity="0.5"/>
<path d="M620.362 581.567H572.763V626.251H620.362V581.567Z" fill="#350066" fill-opacity="0.5"/>
<path d="M101.36 492.064H53.7605V536.748H101.36V492.064Z" fill="#350066" fill-opacity="0.5"/>
<path d="M196.701 492.064H149.102V536.748H196.701V492.064Z" fill="#350066" fill-opacity="0.5"/>
<path d="M291.899 492.064H244.3V536.748H291.899V492.064Z" fill="#350066" fill-opacity="0.5"/>
<path d="M387.241 492.064H339.642V536.748H387.241V492.064Z" fill="#350066" fill-opacity="0.5"/>
<path d="M482.583 492.064H434.984V536.748H482.583V492.064Z" fill="#350066" fill-opacity="0.5"/>
<path d="M577.781 492.064H530.182V536.748H577.781V492.064Z" fill="#350066" fill-opacity="0.5"/>
<path d="M673.123 492.064H625.524V536.748H673.123V492.064Z" fill="#350066" fill-opacity="0.5"/>
<path d="M77.56 715.754H29.9609V760.438H77.56V715.754Z" fill="#350066" fill-opacity="0.5"/>
<path d="M172.758 715.754H125.159V760.438H172.758V715.754Z" fill="#350066" fill-opacity="0.5"/>
<path d="M268.1 715.754H220.501V760.438H268.1V715.754Z" fill="#350066" fill-opacity="0.5"/>
<path d="M363.442 715.754H315.843V760.438H363.442V715.754Z" fill="#350066" fill-opacity="0.5"/>
<path d="M458.783 715.754H411.184V760.438H458.783V715.754Z" fill="#350066" fill-opacity="0.5"/>
<path d="M553.981 715.754H506.382V760.438H553.981V715.754Z" fill="#350066" fill-opacity="0.5"/>
<path d="M649.323 715.754H601.724V760.438H649.323V715.754Z" fill="#350066" fill-opacity="0.5"/>
<path d="M77.56 626.251H29.9609V670.935H77.56V626.251Z" fill="#350066" fill-opacity="0.5"/>
<path d="M172.758 626.251H125.159V670.936H172.758V626.251Z" fill="#350066" fill-opacity="0.5"/>
<path d="M268.1 626.251H220.501V670.936H268.1V626.251Z" fill="#350066" fill-opacity="0.5"/>
<path d="M363.442 626.251H315.843V670.936H363.442V626.251Z" fill="#350066" fill-opacity="0.5"/>
<path d="M458.783 626.251H411.184V670.936H458.783V626.251Z" fill="#350066" fill-opacity="0.5"/>
<path d="M553.981 626.251H506.382V670.936H553.981V626.251Z" fill="#350066" fill-opacity="0.5"/>
<path d="M649.323 626.251H601.724V670.936H649.323V626.251Z" fill="#350066" fill-opacity="0.5"/>
<path d="M48.5991 760.438H1V805.122H48.5991V760.438Z" fill="#350066" fill-opacity="0.5"/>
<path d="M143.941 760.438H96.3418V805.122H143.941V760.438Z" fill="#350066" fill-opacity="0.5"/>
<path d="M239.139 760.438H191.54V805.122H239.139V760.438Z" fill="#350066" fill-opacity="0.5"/>
<path d="M334.481 760.438H286.881V805.122H334.481V760.438Z" fill="#350066" fill-opacity="0.5"/>
<path d="M429.823 760.438H382.223V805.122H429.823V760.438Z" fill="#350066" fill-opacity="0.5"/>
<path d="M525.164 760.438H477.565V805.122H525.164V760.438Z" fill="#350066" fill-opacity="0.5"/>
<path d="M620.362 760.438H572.763V805.122H620.362V760.438Z" fill="#350066" fill-opacity="0.5"/>
<path d="M101.36 671.07H53.7605V715.754H101.36V671.07Z" fill="#350066" fill-opacity="0.5"/>
<path d="M196.701 671.07H149.102V715.754H196.701V671.07Z" fill="#350066" fill-opacity="0.5"/>
<path d="M291.899 671.07H244.3V715.754H291.899V671.07Z" fill="#350066" fill-opacity="0.5"/>
<path d="M387.241 671.07H339.642V715.754H387.241V671.07Z" fill="#350066" fill-opacity="0.5"/>
<path d="M482.583 671.07H434.984V715.754H482.583V671.07Z" fill="#350066" fill-opacity="0.5"/>
<path d="M577.781 671.07H530.182V715.754H577.781V671.07Z" fill="#350066" fill-opacity="0.5"/>
<path d="M673.123 671.07H625.524V715.754H673.123V671.07Z" fill="#350066" fill-opacity="0.5"/>
<path d="M77.56 894.76H29.9609V939.444H77.56V894.76Z" fill="#350066" fill-opacity="0.5"/>
<path d="M172.758 894.76H125.159V939.444H172.758V894.76Z" fill="#350066" fill-opacity="0.5"/>
<path d="M268.1 894.76H220.501V939.444H268.1V894.76Z" fill="#350066" fill-opacity="0.5"/>
<path d="M363.442 894.76H315.843V939.444H363.442V894.76Z" fill="#350066" fill-opacity="0.5"/>
<path d="M458.783 894.76H411.184V939.444H458.783V894.76Z" fill="#350066" fill-opacity="0.5"/>
<path d="M553.981 894.76H506.382V939.444H553.981V894.76Z" fill="#350066" fill-opacity="0.5"/>
<path d="M649.323 894.76H601.724V939.444H649.323V894.76Z" fill="#350066" fill-opacity="0.5"/>
<path d="M77.56 805.257H29.9609V849.941H77.56V805.257Z" fill="#350066" fill-opacity="0.5"/>
<path d="M172.758 805.257H125.159V849.941H172.758V805.257Z" fill="#350066" fill-opacity="0.5"/>
<path d="M268.1 805.257H220.501V849.941H268.1V805.257Z" fill="#350066" fill-opacity="0.5"/>
<path d="M363.442 805.257H315.843V849.941H363.442V805.257Z" fill="#350066" fill-opacity="0.5"/>
<path d="M458.783 805.257H411.184V849.941H458.783V805.257Z" fill="#350066" fill-opacity="0.5"/>
<path d="M553.981 805.257H506.382V849.941H553.981V805.257Z" fill="#350066" fill-opacity="0.5"/>
<path d="M649.323 805.257H601.724V849.941H649.323V805.257Z" fill="#350066" fill-opacity="0.5"/>
<path d="M48.5991 939.445H1V984.129H48.5991V939.445Z" fill="#350066" fill-opacity="0.5"/>
<path d="M143.941 939.444H96.3418V984.128H143.941V939.444Z" fill="#350066" fill-opacity="0.5"/>
<path d="M239.139 939.444H191.54V984.128H239.139V939.444Z" fill="#350066" fill-opacity="0.5"/>
<path d="M334.481 939.444H286.881V984.128H334.481V939.444Z" fill="#350066" fill-opacity="0.5"/>
<path d="M429.823 939.444H382.223V984.128H429.823V939.444Z" fill="#350066" fill-opacity="0.5"/>
<path d="M525.164 939.444H477.565V984.128H525.164V939.444Z" fill="#350066" fill-opacity="0.5"/>
<path d="M620.362 939.444H572.763V984.128H620.362V939.444Z" fill="#350066" fill-opacity="0.5"/>
<path d="M101.36 849.941H53.7605V894.626H101.36V849.941Z" fill="#350066" fill-opacity="0.5"/>
<path d="M196.701 849.941H149.102V894.625H196.701V849.941Z" fill="#350066" fill-opacity="0.5"/>
<path d="M291.899 849.941H244.3V894.625H291.899V849.941Z" fill="#350066" fill-opacity="0.5"/>
<path d="M387.241 849.941H339.642V894.625H387.241V849.941Z" fill="#350066" fill-opacity="0.5"/>
<path d="M482.583 849.941H434.984V894.625H482.583V849.941Z" fill="#350066" fill-opacity="0.5"/>
<path d="M577.781 849.941H530.182V894.625H577.781V849.941Z" fill="#350066" fill-opacity="0.5"/>
<path d="M673.123 849.941H625.524V894.625H673.123V849.941Z" fill="#350066" fill-opacity="0.5"/>
<path d="M77.56 1073.63H29.9609V1118.32H77.56V1073.63Z" fill="#350066" fill-opacity="0.5"/>
<path d="M172.758 1073.63H125.159V1118.32H172.758V1073.63Z" fill="#350066" fill-opacity="0.5"/>
<path d="M268.1 1073.63H220.501V1118.32H268.1V1073.63Z" fill="#350066" fill-opacity="0.5"/>
<path d="M363.442 1073.63H315.843V1118.32H363.442V1073.63Z" fill="#350066" fill-opacity="0.5"/>
<path d="M458.783 1073.63H411.184V1118.32H458.783V1073.63Z" fill="#350066" fill-opacity="0.5"/>
<path d="M553.981 1073.63H506.382V1118.32H553.981V1073.63Z" fill="#350066" fill-opacity="0.5"/>
<path d="M649.323 1073.63H601.724V1118.32H649.323V1073.63Z" fill="#350066" fill-opacity="0.5"/>
<path d="M77.56 984.128H29.9609V1028.81H77.56V984.128Z" fill="#350066" fill-opacity="0.5"/>
<path d="M172.758 984.128H125.159V1028.81H172.758V984.128Z" fill="#350066" fill-opacity="0.5"/>
<path d="M268.1 984.128H220.501V1028.81H268.1V984.128Z" fill="#350066" fill-opacity="0.5"/>
<path d="M363.442 984.128H315.843V1028.81H363.442V984.128Z" fill="#350066" fill-opacity="0.5"/>
<path d="M458.783 984.128H411.184V1028.81H458.783V984.128Z" fill="#350066" fill-opacity="0.5"/>
<path d="M553.981 984.128H506.382V1028.81H553.981V984.128Z" fill="#350066" fill-opacity="0.5"/>
<path d="M649.323 984.128H601.724V1028.81H649.323V984.128Z" fill="#350066" fill-opacity="0.5"/>
<path d="M48.5991 1118.32H1V1163H48.5991V1118.32Z" fill="#350066" fill-opacity="0.5"/>
<path d="M143.941 1118.32H96.3418V1163H143.941V1118.32Z" fill="#350066" fill-opacity="0.5"/>
<path d="M239.139 1118.32H191.54V1163H239.139V1118.32Z" fill="#350066" fill-opacity="0.5"/>
<path d="M334.481 1118.32H286.881V1163H334.481V1118.32Z" fill="#350066" fill-opacity="0.5"/>
<path d="M429.823 1118.32H382.223V1163H429.823V1118.32Z" fill="#350066" fill-opacity="0.5"/>
<path d="M525.164 1118.32H477.565V1163H525.164V1118.32Z" fill="#350066" fill-opacity="0.5"/>
<path d="M620.362 1118.32H572.763V1163H620.362V1118.32Z" fill="#350066" fill-opacity="0.5"/>
<path d="M101.36 1028.95H53.7605V1073.63H101.36V1028.95Z" fill="#350066" fill-opacity="0.5"/>
<path d="M196.701 1028.95H149.102V1073.63H196.701V1028.95Z" fill="#350066" fill-opacity="0.5"/>
<path d="M291.899 1028.95H244.3V1073.63H291.899V1028.95Z" fill="#350066" fill-opacity="0.5"/>
<path d="M387.241 1028.95H339.642V1073.63H387.241V1028.95Z" fill="#350066" fill-opacity="0.5"/>
<path d="M482.583 1028.95H434.984V1073.63H482.583V1028.95Z" fill="#350066" fill-opacity="0.5"/>
<path d="M577.781 1028.95H530.182V1073.63H577.781V1028.95Z" fill="#350066" fill-opacity="0.5"/>
<path d="M673.123 1028.95H625.524V1073.63H673.123V1028.95Z" fill="#350066" fill-opacity="0.5"/>
</g>
</svg>
