<svg width="712" height="917" viewBox="0 0 712 917" fill="none" xmlns="http://www.w3.org/2000/svg">
<path d="M16.1863 0H-21.3448V35.2325H16.1863V0Z" fill="#350066" fill-opacity="0.2"/>
<path d="M91.3611 0H53.83V35.2325H91.3611V0Z" fill="#350066" fill-opacity="0.2"/>
<path d="M166.423 0H128.892V35.2325H166.423V0Z" fill="#350066" fill-opacity="0.2"/>
<path d="M241.598 0H204.067V35.2325H241.598V0Z" fill="#350066" fill-opacity="0.2"/>
<path d="M316.772 0H279.242V35.2325H316.772V0Z" fill="#350066" fill-opacity="0.2"/>
<path d="M391.834 0H354.304V35.2325H391.834V0Z" fill="#350066" fill-opacity="0.2"/>
<path d="M467.009 0H429.478V35.2325H467.009V0Z" fill="#350066" fill-opacity="0.2"/>
<path d="M542.184 0H504.653V35.2325H542.184V0Z" fill="#350066" fill-opacity="0.2"/>
<path d="M617.359 0H579.828V35.2325H617.359V0Z" fill="#350066" fill-opacity="0.2"/>
<path d="M692.421 0H654.889V35.2325H692.421V0Z" fill="#350066" fill-opacity="0.2"/>
<path d="M16.1863 141.143H-21.3448V176.375H16.1863V141.143Z" fill="#350066" fill-opacity="0.2"/>
<path d="M91.3611 141.143H53.83V176.375H91.3611V141.143Z" fill="#350066" fill-opacity="0.2"/>
<path d="M166.423 141.143H128.892V176.375H166.423V141.143Z" fill="#350066" fill-opacity="0.2"/>
<path d="M241.598 141.143H204.067V176.375H241.598V141.143Z" fill="#350066" fill-opacity="0.2"/>
<path d="M316.772 141.143H279.242V176.375H316.772V141.143Z" fill="#350066" fill-opacity="0.2"/>
<path d="M391.834 141.143H354.304V176.375H391.834V141.143Z" fill="#350066" fill-opacity="0.2"/>
<path d="M467.009 141.143H429.478V176.375H467.009V141.143Z" fill="#350066" fill-opacity="0.2"/>
<path d="M542.184 141.143H504.653V176.375H542.184V141.143Z" fill="#350066" fill-opacity="0.2"/>
<path d="M617.359 141.143H579.828V176.375H617.359V141.143Z" fill="#350066" fill-opacity="0.2"/>
<path d="M692.421 141.143H654.889V176.375H692.421V141.143Z" fill="#350066" fill-opacity="0.2"/>
<path d="M16.1863 70.5708H-21.3448V105.803H16.1863V70.5708Z" fill="#350066" fill-opacity="0.2"/>
<path d="M91.3611 70.5708H53.83V105.803H91.3611V70.5708Z" fill="#350066" fill-opacity="0.2"/>
<path d="M166.423 70.5708H128.892V105.803H166.423V70.5708Z" fill="#350066" fill-opacity="0.2"/>
<path d="M241.598 70.5708H204.067V105.803H241.598V70.5708Z" fill="#350066" fill-opacity="0.2"/>
<path d="M316.772 70.5708H279.242V105.803H316.772V70.5708Z" fill="#350066" fill-opacity="0.2"/>
<path d="M391.834 70.5708H354.304V105.803H391.834V70.5708Z" fill="#350066" fill-opacity="0.2"/>
<path d="M467.009 70.5708H429.478V105.803H467.009V70.5708Z" fill="#350066" fill-opacity="0.2"/>
<path d="M542.184 70.5708H504.653V105.803H542.184V70.5708Z" fill="#350066" fill-opacity="0.2"/>
<path d="M617.359 70.5708H579.828V105.803H617.359V70.5708Z" fill="#350066" fill-opacity="0.2"/>
<path d="M692.421 70.5708H654.889V105.803H692.421V70.5708Z" fill="#350066" fill-opacity="0.2"/>
<path d="M68.5258 35.3384H30.9952V70.5709H68.5258V35.3384Z" fill="#350066" fill-opacity="0.2"/>
<path d="M143.7 35.3384H106.17V70.5709H143.7V35.3384Z" fill="#350066" fill-opacity="0.2"/>
<path d="M218.763 35.3384H181.232V70.5709H218.763V35.3384Z" fill="#350066" fill-opacity="0.2"/>
<path d="M293.938 35.3384H256.407V70.5709H293.938V35.3384Z" fill="#350066" fill-opacity="0.2"/>
<path d="M369.113 35.3384H331.581V70.5709H369.113V35.3384Z" fill="#350066" fill-opacity="0.2"/>
<path d="M444.174 35.3384H406.643V70.5709H444.174V35.3384Z" fill="#350066" fill-opacity="0.2"/>
<path d="M519.349 35.3384H481.818V70.5709H519.349V35.3384Z" fill="#350066" fill-opacity="0.2"/>
<path d="M594.524 35.3384H556.993V70.5709H594.524V35.3384Z" fill="#350066" fill-opacity="0.2"/>
<path d="M669.699 35.3384H632.168V70.5709H669.699V35.3384Z" fill="#350066" fill-opacity="0.2"/>
<path d="M68.5258 176.375H30.9952V211.607H68.5258V176.375Z" fill="#350066" fill-opacity="0.2"/>
<path d="M143.7 176.375H106.17V211.607H143.7V176.375Z" fill="#350066" fill-opacity="0.2"/>
<path d="M218.763 176.375H181.232V211.607H218.763V176.375Z" fill="#350066" fill-opacity="0.2"/>
<path d="M293.938 176.375H256.407V211.607H293.938V176.375Z" fill="#350066" fill-opacity="0.2"/>
<path d="M369.113 176.375H331.581V211.607H369.113V176.375Z" fill="#350066" fill-opacity="0.2"/>
<path d="M444.174 176.375H406.643V211.607H444.174V176.375Z" fill="#350066" fill-opacity="0.2"/>
<path d="M519.349 176.375H481.818V211.607H519.349V176.375Z" fill="#350066" fill-opacity="0.2"/>
<path d="M594.524 176.375H556.993V211.607H594.524V176.375Z" fill="#350066" fill-opacity="0.2"/>
<path d="M669.699 176.375H632.168V211.607H669.699V176.375Z" fill="#350066" fill-opacity="0.2"/>
<path d="M34.9519 105.91H-2.57922V141.142H34.9519V105.91Z" fill="#350066" fill-opacity="0.2"/>
<path d="M110.127 105.91H72.5955V141.142H110.127V105.91Z" fill="#350066" fill-opacity="0.2"/>
<path d="M185.302 105.91H147.771V141.142H185.302V105.91Z" fill="#350066" fill-opacity="0.2"/>
<path d="M260.363 105.91H222.832V141.142H260.363V105.91Z" fill="#350066" fill-opacity="0.2"/>
<path d="M335.538 105.91H298.007V141.142H335.538V105.91Z" fill="#350066" fill-opacity="0.2"/>
<path d="M410.713 105.91H373.182V141.142H410.713V105.91Z" fill="#350066" fill-opacity="0.2"/>
<path d="M485.774 105.91H448.244V141.142H485.774V105.91Z" fill="#350066" fill-opacity="0.2"/>
<path d="M560.949 105.91H523.419V141.142H560.949V105.91Z" fill="#350066" fill-opacity="0.2"/>
<path d="M636.124 105.91H598.593V141.142H636.124V105.91Z" fill="#350066" fill-opacity="0.2"/>
<path d="M711.186 105.91H673.655V141.142H711.186V105.91Z" fill="#350066" fill-opacity="0.2"/>
<path d="M16.1863 282.178H-21.3448V317.41H16.1863V282.178Z" fill="#350066" fill-opacity="0.2"/>
<path d="M91.3611 282.178H53.83V317.41H91.3611V282.178Z" fill="#350066" fill-opacity="0.2"/>
<path d="M166.423 282.178H128.892V317.41H166.423V282.178Z" fill="#350066" fill-opacity="0.2"/>
<path d="M241.598 282.178H204.067V317.41H241.598V282.178Z" fill="#350066" fill-opacity="0.2"/>
<path d="M316.772 282.178H279.242V317.41H316.772V282.178Z" fill="#350066" fill-opacity="0.2"/>
<path d="M391.834 282.178H354.304V317.41H391.834V282.178Z" fill="#350066" fill-opacity="0.2"/>
<path d="M467.009 282.178H429.478V317.41H467.009V282.178Z" fill="#350066" fill-opacity="0.2"/>
<path d="M542.184 282.178H504.653V317.41H542.184V282.178Z" fill="#350066" fill-opacity="0.2"/>
<path d="M617.359 282.178H579.828V317.41H617.359V282.178Z" fill="#350066" fill-opacity="0.2"/>
<path d="M692.421 282.178H654.889V317.41H692.421V282.178Z" fill="#350066" fill-opacity="0.2"/>
<path d="M16.1863 211.713H-21.3448V246.946H16.1863V211.713Z" fill="#350066" fill-opacity="0.2"/>
<path d="M91.3611 211.713H53.83V246.946H91.3611V211.713Z" fill="#350066" fill-opacity="0.2"/>
<path d="M166.423 211.713H128.892V246.946H166.423V211.713Z" fill="#350066" fill-opacity="0.2"/>
<path d="M241.598 211.713H204.067V246.946H241.598V211.713Z" fill="#350066" fill-opacity="0.2"/>
<path d="M316.772 211.713H279.242V246.946H316.772V211.713Z" fill="#350066" fill-opacity="0.2"/>
<path d="M391.834 211.713H354.304V246.946H391.834V211.713Z" fill="#350066" fill-opacity="0.2"/>
<path d="M467.009 211.713H429.478V246.946H467.009V211.713Z" fill="#350066" fill-opacity="0.2"/>
<path d="M542.184 211.713H504.653V246.946H542.184V211.713Z" fill="#350066" fill-opacity="0.2"/>
<path d="M617.359 211.713H579.828V246.946H617.359V211.713Z" fill="#350066" fill-opacity="0.2"/>
<path d="M692.421 211.713H654.889V246.946H692.421V211.713Z" fill="#350066" fill-opacity="0.2"/>
<path d="M68.5258 317.517H30.9952V352.749H68.5258V317.517Z" fill="#350066" fill-opacity="0.2"/>
<path d="M143.7 317.517H106.17V352.749H143.7V317.517Z" fill="#350066" fill-opacity="0.2"/>
<path d="M218.763 317.517H181.232V352.749H218.763V317.517Z" fill="#350066" fill-opacity="0.2"/>
<path d="M293.938 317.517H256.407V352.749H293.938V317.517Z" fill="#350066" fill-opacity="0.2"/>
<path d="M369.113 317.517H331.581V352.749H369.113V317.517Z" fill="#350066" fill-opacity="0.2"/>
<path d="M444.174 317.517H406.643V352.749H444.174V317.517Z" fill="#350066" fill-opacity="0.2"/>
<path d="M519.349 317.517H481.818V352.749H519.349V317.517Z" fill="#350066" fill-opacity="0.2"/>
<path d="M594.524 317.517H556.993V352.749H594.524V317.517Z" fill="#350066" fill-opacity="0.2"/>
<path d="M669.699 317.517H632.168V352.749H669.699V317.517Z" fill="#350066" fill-opacity="0.2"/>
<path d="M34.9519 246.946H-2.57922V282.178H34.9519V246.946Z" fill="#350066" fill-opacity="0.2"/>
<path d="M110.127 246.946H72.5955V282.178H110.127V246.946Z" fill="#350066" fill-opacity="0.2"/>
<path d="M185.302 246.946H147.771V282.178H185.302V246.946Z" fill="#350066" fill-opacity="0.2"/>
<path d="M260.363 246.946H222.832V282.178H260.363V246.946Z" fill="#350066" fill-opacity="0.2"/>
<path d="M335.538 246.946H298.007V282.178H335.538V246.946Z" fill="#350066" fill-opacity="0.2"/>
<path d="M410.713 246.946H373.182V282.178H410.713V246.946Z" fill="#350066" fill-opacity="0.2"/>
<path d="M485.774 246.946H448.244V282.178H485.774V246.946Z" fill="#350066" fill-opacity="0.2"/>
<path d="M560.949 246.946H523.419V282.178H560.949V246.946Z" fill="#350066" fill-opacity="0.2"/>
<path d="M636.124 246.946H598.593V282.178H636.124V246.946Z" fill="#350066" fill-opacity="0.2"/>
<path d="M711.186 246.946H673.655V282.178H711.186V246.946Z" fill="#350066" fill-opacity="0.2"/>
<path d="M16.1863 423.321H-21.3448V458.553H16.1863V423.321Z" fill="#350066" fill-opacity="0.2"/>
<path d="M91.3611 423.321H53.83V458.553H91.3611V423.321Z" fill="#350066" fill-opacity="0.2"/>
<path d="M166.423 423.321H128.892V458.553H166.423V423.321Z" fill="#350066" fill-opacity="0.2"/>
<path d="M241.598 423.321H204.067V458.553H241.598V423.321Z" fill="#350066" fill-opacity="0.2"/>
<path d="M316.772 423.321H279.242V458.553H316.772V423.321Z" fill="#350066" fill-opacity="0.2"/>
<path d="M391.834 423.321H354.304V458.553H391.834V423.321Z" fill="#350066" fill-opacity="0.2"/>
<path d="M467.009 423.321H429.478V458.553H467.009V423.321Z" fill="#350066" fill-opacity="0.2"/>
<path d="M542.184 423.321H504.653V458.553H542.184V423.321Z" fill="#350066" fill-opacity="0.2"/>
<path d="M617.359 423.321H579.828V458.553H617.359V423.321Z" fill="#350066" fill-opacity="0.2"/>
<path d="M692.421 423.321H654.889V458.553H692.421V423.321Z" fill="#350066" fill-opacity="0.2"/>
<path d="M16.1863 352.75H-21.3448V387.982H16.1863V352.75Z" fill="#350066" fill-opacity="0.2"/>
<path d="M91.3611 352.75H53.83V387.982H91.3611V352.75Z" fill="#350066" fill-opacity="0.2"/>
<path d="M166.423 352.75H128.892V387.982H166.423V352.75Z" fill="#350066" fill-opacity="0.2"/>
<path d="M241.598 352.75H204.067V387.982H241.598V352.75Z" fill="#350066" fill-opacity="0.2"/>
<path d="M316.772 352.75H279.242V387.982H316.772V352.75Z" fill="#350066" fill-opacity="0.2"/>
<path d="M391.834 352.75H354.304V387.982H391.834V352.75Z" fill="#350066" fill-opacity="0.2"/>
<path d="M467.009 352.75H429.478V387.982H467.009V352.75Z" fill="#350066" fill-opacity="0.2"/>
<path d="M542.184 352.75H504.653V387.982H542.184V352.75Z" fill="#350066" fill-opacity="0.2"/>
<path d="M617.359 352.75H579.828V387.982H617.359V352.75Z" fill="#350066" fill-opacity="0.2"/>
<path d="M692.421 352.75H654.889V387.982H692.421V352.75Z" fill="#350066" fill-opacity="0.2"/>
<path d="M68.5258 458.553H30.9952V493.785H68.5258V458.553Z" fill="#350066" fill-opacity="0.2"/>
<path d="M143.7 458.553H106.17V493.785H143.7V458.553Z" fill="#350066" fill-opacity="0.2"/>
<path d="M218.763 458.553H181.232V493.785H218.763V458.553Z" fill="#350066" fill-opacity="0.2"/>
<path d="M293.938 458.553H256.407V493.785H293.938V458.553Z" fill="#350066" fill-opacity="0.2"/>
<path d="M369.113 458.553H331.581V493.785H369.113V458.553Z" fill="#350066" fill-opacity="0.2"/>
<path d="M444.174 458.553H406.643V493.785H444.174V458.553Z" fill="#350066" fill-opacity="0.2"/>
<path d="M519.349 458.553H481.818V493.785H519.349V458.553Z" fill="#350066" fill-opacity="0.2"/>
<path d="M594.524 458.553H556.993V493.785H594.524V458.553Z" fill="#350066" fill-opacity="0.2"/>
<path d="M669.699 458.553H632.168V493.785H669.699V458.553Z" fill="#350066" fill-opacity="0.2"/>
<path d="M34.9519 387.982H-2.57922V423.214H34.9519V387.982Z" fill="#350066" fill-opacity="0.2"/>
<path d="M110.127 387.982H72.5955V423.214H110.127V387.982Z" fill="#350066" fill-opacity="0.2"/>
<path d="M185.302 387.982H147.771V423.214H185.302V387.982Z" fill="#350066" fill-opacity="0.2"/>
<path d="M260.363 387.982H222.832V423.214H260.363V387.982Z" fill="#350066" fill-opacity="0.2"/>
<path d="M335.538 387.982H298.007V423.214H335.538V387.982Z" fill="#350066" fill-opacity="0.2"/>
<path d="M410.713 387.982H373.182V423.214H410.713V387.982Z" fill="#350066" fill-opacity="0.2"/>
<path d="M485.774 387.982H448.244V423.214H485.774V387.982Z" fill="#350066" fill-opacity="0.2"/>
<path d="M560.949 387.982H523.419V423.214H560.949V387.982Z" fill="#350066" fill-opacity="0.2"/>
<path d="M636.124 387.982H598.593V423.214H636.124V387.982Z" fill="#350066" fill-opacity="0.2"/>
<path d="M711.186 387.982H673.655V423.214H711.186V387.982Z" fill="#350066" fill-opacity="0.2"/>
<path d="M16.1863 564.356H-21.3448V599.589H16.1863V564.356Z" fill="#350066" fill-opacity="0.2"/>
<path d="M91.3611 564.356H53.83V599.589H91.3611V564.356Z" fill="#350066" fill-opacity="0.2"/>
<path d="M166.423 564.356H128.892V599.589H166.423V564.356Z" fill="#350066" fill-opacity="0.2"/>
<path d="M241.598 564.356H204.067V599.589H241.598V564.356Z" fill="#350066" fill-opacity="0.2"/>
<path d="M316.772 564.356H279.242V599.589H316.772V564.356Z" fill="#350066" fill-opacity="0.2"/>
<path d="M391.834 564.356H354.304V599.589H391.834V564.356Z" fill="#350066" fill-opacity="0.2"/>
<path d="M467.009 564.356H429.478V599.589H467.009V564.356Z" fill="#350066" fill-opacity="0.2"/>
<path d="M542.184 564.356H504.653V599.589H542.184V564.356Z" fill="#350066" fill-opacity="0.2"/>
<path d="M617.359 564.356H579.828V599.589H617.359V564.356Z" fill="#350066" fill-opacity="0.2"/>
<path d="M692.421 564.356H654.889V599.589H692.421V564.356Z" fill="#350066" fill-opacity="0.2"/>
<path d="M16.1863 493.786H-21.3448V529.018H16.1863V493.786Z" fill="#350066" fill-opacity="0.2"/>
<path d="M91.3611 493.786H53.83V529.018H91.3611V493.786Z" fill="#350066" fill-opacity="0.2"/>
<path d="M166.423 493.786H128.892V529.018H166.423V493.786Z" fill="#350066" fill-opacity="0.2"/>
<path d="M241.598 493.786H204.067V529.018H241.598V493.786Z" fill="#350066" fill-opacity="0.2"/>
<path d="M316.772 493.786H279.242V529.018H316.772V493.786Z" fill="#350066" fill-opacity="0.2"/>
<path d="M391.834 493.786H354.304V529.018H391.834V493.786Z" fill="#350066" fill-opacity="0.2"/>
<path d="M467.009 493.786H429.478V529.018H467.009V493.786Z" fill="#350066" fill-opacity="0.2"/>
<path d="M542.184 493.786H504.653V529.018H542.184V493.786Z" fill="#350066" fill-opacity="0.2"/>
<path d="M617.359 493.786H579.828V529.018H617.359V493.786Z" fill="#350066" fill-opacity="0.2"/>
<path d="M692.421 493.786H654.889V529.018H692.421V493.786Z" fill="#350066" fill-opacity="0.2"/>
<path d="M68.5258 599.589H30.9952V634.822H68.5258V599.589Z" fill="#350066" fill-opacity="0.2"/>
<path d="M143.7 599.589H106.17V634.822H143.7V599.589Z" fill="#350066" fill-opacity="0.2"/>
<path d="M218.763 599.589H181.232V634.822H218.763V599.589Z" fill="#350066" fill-opacity="0.2"/>
<path d="M293.938 599.589H256.407V634.822H293.938V599.589Z" fill="#350066" fill-opacity="0.2"/>
<path d="M369.113 599.589H331.581V634.822H369.113V599.589Z" fill="#350066" fill-opacity="0.2"/>
<path d="M444.174 599.589H406.643V634.822H444.174V599.589Z" fill="#350066" fill-opacity="0.2"/>
<path d="M519.349 599.589H481.818V634.822H519.349V599.589Z" fill="#350066" fill-opacity="0.2"/>
<path d="M594.524 599.589H556.993V634.822H594.524V599.589Z" fill="#350066" fill-opacity="0.2"/>
<path d="M669.699 599.589H632.168V634.822H669.699V599.589Z" fill="#350066" fill-opacity="0.2"/>
<path d="M34.9519 529.125H-2.57922V564.357H34.9519V529.125Z" fill="#350066" fill-opacity="0.2"/>
<path d="M110.127 529.125H72.5955V564.357H110.127V529.125Z" fill="#350066" fill-opacity="0.2"/>
<path d="M185.302 529.125H147.771V564.357H185.302V529.125Z" fill="#350066" fill-opacity="0.2"/>
<path d="M260.363 529.125H222.832V564.357H260.363V529.125Z" fill="#350066" fill-opacity="0.2"/>
<path d="M335.538 529.125H298.007V564.357H335.538V529.125Z" fill="#350066" fill-opacity="0.2"/>
<path d="M410.713 529.125H373.182V564.357H410.713V529.125Z" fill="#350066" fill-opacity="0.2"/>
<path d="M485.774 529.125H448.244V564.357H485.774V529.125Z" fill="#350066" fill-opacity="0.2"/>
<path d="M560.949 529.125H523.419V564.357H560.949V529.125Z" fill="#350066" fill-opacity="0.2"/>
<path d="M636.124 529.125H598.593V564.357H636.124V529.125Z" fill="#350066" fill-opacity="0.2"/>
<path d="M711.186 529.125H673.655V564.357H711.186V529.125Z" fill="#350066" fill-opacity="0.2"/>
<path d="M16.1864 705.499H-21.3447V740.731H16.1864V705.499Z" fill="#350066" fill-opacity="0.2"/>
<path d="M91.3612 705.499H53.8301V740.731H91.3612V705.499Z" fill="#350066" fill-opacity="0.2"/>
<path d="M166.423 705.499H128.893V740.731H166.423V705.499Z" fill="#350066" fill-opacity="0.2"/>
<path d="M241.598 705.499H204.067V740.731H241.598V705.499Z" fill="#350066" fill-opacity="0.2"/>
<path d="M316.772 705.499H279.242V740.731H316.772V705.499Z" fill="#350066" fill-opacity="0.2"/>
<path d="M391.834 705.499H354.304V740.731H391.834V705.499Z" fill="#350066" fill-opacity="0.2"/>
<path d="M467.009 705.499H429.478V740.731H467.009V705.499Z" fill="#350066" fill-opacity="0.2"/>
<path d="M542.184 705.499H504.653V740.731H542.184V705.499Z" fill="#350066" fill-opacity="0.2"/>
<path d="M617.359 705.499H579.828V740.731H617.359V705.499Z" fill="#350066" fill-opacity="0.2"/>
<path d="M692.421 705.499H654.889V740.731H692.421V705.499Z" fill="#350066" fill-opacity="0.2"/>
<path d="M16.1863 634.928H-21.3448V670.161H16.1863V634.928Z" fill="#350066" fill-opacity="0.2"/>
<path d="M91.3611 634.928H53.83V670.161H91.3611V634.928Z" fill="#350066" fill-opacity="0.2"/>
<path d="M166.423 634.928H128.892V670.161H166.423V634.928Z" fill="#350066" fill-opacity="0.2"/>
<path d="M241.598 634.928H204.067V670.161H241.598V634.928Z" fill="#350066" fill-opacity="0.2"/>
<path d="M316.772 634.928H279.242V670.161H316.772V634.928Z" fill="#350066" fill-opacity="0.2"/>
<path d="M391.834 634.928H354.304V670.161H391.834V634.928Z" fill="#350066" fill-opacity="0.2"/>
<path d="M467.009 634.928H429.478V670.161H467.009V634.928Z" fill="#350066" fill-opacity="0.2"/>
<path d="M542.184 634.928H504.653V670.161H542.184V634.928Z" fill="#350066" fill-opacity="0.2"/>
<path d="M617.359 634.928H579.828V670.161H617.359V634.928Z" fill="#350066" fill-opacity="0.2"/>
<path d="M692.421 634.928H654.889V670.161H692.421V634.928Z" fill="#350066" fill-opacity="0.2"/>
<path d="M68.5258 740.731H30.9952V775.963H68.5258V740.731Z" fill="#350066" fill-opacity="0.2"/>
<path d="M143.7 740.731H106.17V775.963H143.7V740.731Z" fill="#350066" fill-opacity="0.2"/>
<path d="M218.763 740.731H181.232V775.963H218.763V740.731Z" fill="#350066" fill-opacity="0.2"/>
<path d="M293.938 740.731H256.407V775.963H293.938V740.731Z" fill="#350066" fill-opacity="0.2"/>
<path d="M369.113 740.731H331.581V775.963H369.113V740.731Z" fill="#350066" fill-opacity="0.2"/>
<path d="M444.174 740.731H406.643V775.963H444.174V740.731Z" fill="#350066" fill-opacity="0.2"/>
<path d="M519.349 740.731H481.818V775.963H519.349V740.731Z" fill="#350066" fill-opacity="0.2"/>
<path d="M594.524 740.731H556.993V775.963H594.524V740.731Z" fill="#350066" fill-opacity="0.2"/>
<path d="M669.699 740.731H632.168V775.963H669.699V740.731Z" fill="#350066" fill-opacity="0.2"/>
<path d="M34.9519 670.16H-2.57922V705.393H34.9519V670.16Z" fill="#350066" fill-opacity="0.2"/>
<path d="M110.127 670.16H72.5955V705.393H110.127V670.16Z" fill="#350066" fill-opacity="0.2"/>
<path d="M185.302 670.16H147.771V705.393H185.302V670.16Z" fill="#350066" fill-opacity="0.2"/>
<path d="M260.363 670.16H222.832V705.393H260.363V670.16Z" fill="#350066" fill-opacity="0.2"/>
<path d="M335.538 670.16H298.007V705.393H335.538V670.16Z" fill="#350066" fill-opacity="0.2"/>
<path d="M410.713 670.16H373.182V705.393H410.713V670.16Z" fill="#350066" fill-opacity="0.2"/>
<path d="M485.774 670.16H448.244V705.393H485.774V670.16Z" fill="#350066" fill-opacity="0.2"/>
<path d="M560.949 670.16H523.419V705.393H560.949V670.16Z" fill="#350066" fill-opacity="0.2"/>
<path d="M636.124 670.16H598.593V705.393H636.124V670.16Z" fill="#350066" fill-opacity="0.2"/>
<path d="M711.186 670.16H673.655V705.393H711.186V670.16Z" fill="#350066" fill-opacity="0.2"/>
<path d="M16.1863 846.535H-21.3448V881.767H16.1863V846.535Z" fill="#350066" fill-opacity="0.2"/>
<path d="M91.3611 846.535H53.83V881.767H91.3611V846.535Z" fill="#350066" fill-opacity="0.2"/>
<path d="M166.423 846.535H128.892V881.767H166.423V846.535Z" fill="#350066" fill-opacity="0.2"/>
<path d="M241.598 846.535H204.067V881.767H241.598V846.535Z" fill="#350066" fill-opacity="0.2"/>
<path d="M316.772 846.535H279.242V881.767H316.772V846.535Z" fill="#350066" fill-opacity="0.2"/>
<path d="M391.834 846.535H354.304V881.767H391.834V846.535Z" fill="#350066" fill-opacity="0.2"/>
<path d="M467.009 846.535H429.478V881.767H467.009V846.535Z" fill="#350066" fill-opacity="0.2"/>
<path d="M542.184 846.535H504.653V881.767H542.184V846.535Z" fill="#350066" fill-opacity="0.2"/>
<path d="M617.359 846.535H579.828V881.767H617.359V846.535Z" fill="#350066" fill-opacity="0.2"/>
<path d="M692.421 846.535H654.889V881.767H692.421V846.535Z" fill="#350066" fill-opacity="0.2"/>
<path d="M16.1863 775.963H-21.3448V811.196H16.1863V775.963Z" fill="#350066" fill-opacity="0.2"/>
<path d="M91.3611 775.963H53.83V811.196H91.3611V775.963Z" fill="#350066" fill-opacity="0.2"/>
<path d="M166.423 775.963H128.892V811.196H166.423V775.963Z" fill="#350066" fill-opacity="0.2"/>
<path d="M241.598 775.963H204.067V811.196H241.598V775.963Z" fill="#350066" fill-opacity="0.2"/>
<path d="M316.772 775.963H279.242V811.196H316.772V775.963Z" fill="#350066" fill-opacity="0.2"/>
<path d="M391.834 775.963H354.304V811.196H391.834V775.963Z" fill="#350066" fill-opacity="0.2"/>
<path d="M467.009 775.963H429.478V811.196H467.009V775.963Z" fill="#350066" fill-opacity="0.2"/>
<path d="M542.184 775.963H504.653V811.196H542.184V775.963Z" fill="#350066" fill-opacity="0.2"/>
<path d="M617.359 775.963H579.828V811.196H617.359V775.963Z" fill="#350066" fill-opacity="0.2"/>
<path d="M692.421 775.963H654.889V811.196H692.421V775.963Z" fill="#350066" fill-opacity="0.2"/>
<path d="M68.5258 881.767H30.9952V917H68.5258V881.767Z" fill="#350066" fill-opacity="0.2"/>
<path d="M143.7 881.767H106.17V917H143.7V881.767Z" fill="#350066" fill-opacity="0.2"/>
<path d="M218.763 881.767H181.232V917H218.763V881.767Z" fill="#350066" fill-opacity="0.2"/>
<path d="M293.938 881.767H256.407V917H293.938V881.767Z" fill="#350066" fill-opacity="0.2"/>
<path d="M369.113 881.767H331.581V917H369.113V881.767Z" fill="#350066" fill-opacity="0.2"/>
<path d="M444.174 881.767H406.643V917H444.174V881.767Z" fill="#350066" fill-opacity="0.2"/>
<path d="M519.349 881.767H481.818V917H519.349V881.767Z" fill="#350066" fill-opacity="0.2"/>
<path d="M594.524 881.767H556.993V917H594.524V881.767Z" fill="#350066" fill-opacity="0.2"/>
<path d="M669.699 881.767H632.168V917H669.699V881.767Z" fill="#350066" fill-opacity="0.2"/>
<path d="M34.9519 811.303H-2.57922V846.535H34.9519V811.303Z" fill="#350066" fill-opacity="0.2"/>
<path d="M110.127 811.303H72.5955V846.535H110.127V811.303Z" fill="#350066" fill-opacity="0.2"/>
<path d="M185.302 811.303H147.771V846.535H185.302V811.303Z" fill="#350066" fill-opacity="0.2"/>
<path d="M260.363 811.303H222.832V846.535H260.363V811.303Z" fill="#350066" fill-opacity="0.2"/>
<path d="M335.538 811.303H298.007V846.535H335.538V811.303Z" fill="#350066" fill-opacity="0.2"/>
<path d="M410.713 811.303H373.182V846.535H410.713V811.303Z" fill="#350066" fill-opacity="0.2"/>
<path d="M485.774 811.303H448.244V846.535H485.774V811.303Z" fill="#350066" fill-opacity="0.2"/>
<path d="M560.949 811.303H523.419V846.535H560.949V811.303Z" fill="#350066" fill-opacity="0.2"/>
<path d="M636.124 811.303H598.593V846.535H636.124V811.303Z" fill="#350066" fill-opacity="0.2"/>
<path d="M711.186 811.303H673.655V846.535H711.186V811.303Z" fill="#350066" fill-opacity="0.2"/>
<path d="M489.161 445.308C488.737 444.035 488.312 442.621 488.454 441.207C488.454 438.378 488.595 435.549 488.736 432.862C488.878 429.043 489.02 424.942 489.161 421.123C489.161 413.627 489.161 406.13 488.595 398.776C488.454 395.381 488.029 392.128 487.605 388.592C487.464 387.178 487.181 385.764 487.039 384.208C487.039 384.208 487.039 384.208 486.898 384.208C486.615 384.208 486.474 384.349 486.332 384.491C478.412 389.582 470.915 395.098 464.126 400.897C460.166 404.292 456.206 407.828 452.388 411.222C451.256 412.354 449.983 413.344 448.852 414.334C447.437 415.607 445.74 416.173 443.76 416.173C413.634 416.173 383.65 416.173 353.524 416.173C351.543 416.173 349.846 415.465 348.432 414.192C344.613 410.656 340.936 407.262 337.966 404.716C329.621 397.22 320.852 390.572 311.8 384.915C311.376 384.632 310.951 384.491 310.668 384.208C310.668 384.208 310.385 384.208 310.244 384.066C310.244 384.349 310.244 384.491 310.244 384.632C310.102 386.329 309.82 388.027 309.678 389.724C309.254 393.543 308.829 397.503 308.546 401.322C307.839 413.344 308.405 425.649 308.83 436.256C308.83 436.539 308.83 436.822 308.83 437.105C308.83 439.651 309.112 442.48 308.122 445.025C307.981 445.45 307.839 446.016 307.698 446.44C307.698 446.581 307.698 446.864 307.557 447.006C305.294 454.926 304.021 462.281 303.314 469.07C302.889 474.161 302.465 479.536 302.182 486.184C302.182 488.729 302.182 491.417 302.182 494.104C302.182 495.235 302.182 496.367 302.182 497.498C302.182 497.498 302.182 497.498 302.323 497.498C302.606 497.498 302.889 497.498 303.172 497.498C305.152 497.498 307.273 497.498 309.254 497.64C312.931 497.64 316.891 497.923 320.568 498.064H321.134C323.68 498.064 326.367 498.206 328.913 498.488C331.176 498.771 333.157 500.61 333.581 502.732C334.005 505.136 333.015 507.54 331.035 508.813C329.62 509.803 327.923 509.662 326.509 509.662C322.266 509.662 318.164 509.379 313.921 509.238C310.385 509.238 306.849 508.955 303.172 508.813C302.889 508.813 302.606 508.813 302.323 508.813C302.323 508.813 302.182 508.813 302.04 508.813L302.747 521.825L306.283 521.118C309.112 520.553 311.8 519.987 314.487 519.421C316.043 519.138 317.457 518.855 319.013 518.431C321.841 517.865 324.953 517.158 327.923 516.592C330.752 516.027 332.874 516.592 334.288 518.572C335.561 520.128 335.844 522.108 335.137 523.947C334.43 525.927 332.732 527.342 330.611 527.766C326.792 528.614 322.973 529.463 319.296 530.17C318.306 530.312 317.315 530.595 316.325 530.736C313.497 531.302 310.809 531.867 307.981 532.433C306.849 532.716 305.576 532.858 304.303 533.14C304.586 534.13 304.728 535.121 305.01 536.111C306.283 541.768 307.415 547.143 309.819 552.376C312.224 557.609 316.043 561.003 321.276 562.418C326.226 563.691 331.459 565.105 336.834 565.812C345.744 567.085 354.513 567.934 362.999 568.641C371.768 569.348 380.821 569.631 389.448 569.772H390.863C396.096 569.914 401.471 569.914 407.269 569.772C415.473 569.49 424.807 569.348 434.001 568.782C441.497 568.358 448.993 567.509 456.772 566.661C463.42 565.954 469.501 564.681 475.3 562.984C481.382 561.145 485.484 557.892 487.747 552.8C490.575 546.435 491.99 539.788 493.263 533.423C492.555 533.282 491.707 532.999 490.999 532.858C489.302 532.433 487.464 532.009 485.625 531.585C482.655 530.877 479.684 530.312 476.714 529.746C473.461 529.039 470.208 528.332 466.955 527.624C465.258 527.2 463.844 526.21 462.995 524.796C462.147 523.381 462.146 521.684 462.712 520.128C463.702 517.441 466.531 516.027 469.642 516.592C472.895 517.3 476.29 517.865 479.543 518.572C481.24 518.855 482.796 519.28 484.493 519.563C486.898 520.128 489.444 520.553 491.848 521.118L494.96 521.825L495.526 508.955C495.243 508.955 494.96 508.955 494.677 508.955C493.97 508.955 493.263 508.955 492.697 508.955C489.868 508.955 487.181 509.096 484.352 509.238C479.543 509.379 474.593 509.521 469.784 509.662C467.097 509.662 464.834 507.965 464.126 505.277C463.419 502.732 464.692 500.044 466.955 499.054C467.945 498.63 469.218 498.347 470.491 498.347C474.451 498.206 478.411 498.064 482.372 497.923C484.635 497.923 486.756 497.923 489.019 497.64C490.575 497.64 492.131 497.64 493.687 497.357C494.394 497.357 494.96 497.357 495.667 497.357C495.667 497.216 495.667 497.074 495.667 496.933C495.667 487.881 495.384 478.97 494.394 470.343C493.404 461.432 491.707 452.946 489.303 444.884L489.161 445.308ZM351.685 487.174C348.007 486.608 344.896 484.769 342.916 481.799C340.653 478.546 339.945 474.161 341.077 469.353C340.511 469.353 339.804 469.353 339.238 469.353C337.683 469.353 335.985 469.07 334.43 469.211C332.874 469.211 331.318 468.787 330.327 467.655C329.196 466.665 328.489 465.109 328.489 463.695C328.489 460.442 330.611 458.321 334.147 458.321C337.682 458.321 341.218 458.321 344.754 458.321C349.705 458.462 353.947 458.745 358.049 459.169C363.282 459.735 368.374 460.442 372.618 463.837C376.295 466.807 378.416 470.767 379.123 476.142C379.264 477.556 379.265 479.112 379.406 480.526C379.406 481.375 379.406 482.082 379.406 482.93C379.406 483.779 379.406 484.345 378.982 484.628C378.558 485.052 378.133 485.193 377.285 485.193C375.729 485.193 374.032 485.193 372.334 485.193C371.627 485.193 370.92 485.193 370.213 485.193H369.93V484.911C369.93 483.921 369.789 482.93 369.789 482.082C369.647 478.546 369.506 475.01 366.96 472.04C367.243 477.556 365.828 481.516 362.292 484.203C359.746 486.325 356.776 487.315 353.806 487.315C350.836 487.315 352.533 487.315 351.826 487.174H351.685ZM437.678 520.835C434.991 528.756 429.475 533.848 421.413 536.252C419.15 536.959 416.887 537.242 414.624 537.242C408.825 537.242 403.451 534.979 398.642 530.312C398.076 530.736 397.651 531.16 397.086 531.443C395.813 532.433 394.54 533.423 393.126 534.13C384.64 538.939 373.325 537.666 366.111 530.877C362.575 527.483 360.313 524.23 359.181 520.694C358.474 518.572 358.898 516.309 360.312 514.754C361.585 513.339 363.566 512.632 365.546 513.056C367.384 513.339 368.657 514.612 369.364 516.734C370.354 519.704 372.193 522.108 374.597 523.806C377.285 525.644 380.679 526.352 383.932 525.786C387.044 525.22 389.731 523.523 391.428 520.977C392.418 519.421 392.419 517.865 392.419 515.885C392.419 515.885 392.277 515.461 391.428 515.178C388.317 513.481 384.356 511.076 381.528 507.258C378.982 503.722 379.123 500.893 379.83 499.196C380.82 496.508 383.508 494.387 386.902 493.538C388.175 493.255 389.448 493.255 390.438 493.255H390.58C395.671 493.255 401.046 493.255 406.279 493.255C407.976 493.255 409.532 493.538 410.946 493.963C413.916 494.953 416.038 497.074 416.745 499.479C417.452 502.024 416.745 504.712 414.624 507.54C412.502 510.369 409.674 512.632 405.572 514.895C405.148 515.037 404.865 515.319 404.441 515.461H404.016C403.875 518.29 404.723 520.835 406.421 522.674C408.259 524.796 411.088 525.927 414.058 526.069C419.716 526.21 424.666 522.674 427.071 516.734C428.202 513.764 430.04 512.491 432.869 512.915C434.566 513.056 435.981 514.047 436.83 515.319C437.82 516.875 437.961 518.714 437.254 520.694L437.678 520.835ZM468.653 463.837C468.228 467.09 466.248 468.928 463.137 468.928H462.854C462.288 468.928 461.722 468.928 461.156 468.928C459.883 468.928 458.611 469.07 457.338 469.211H456.065C456.772 475.152 455.782 479.96 453.236 483.072C451.398 485.476 448.71 486.749 445.316 487.174C444.75 487.174 444.184 487.174 443.618 487.174C439.941 487.174 436.546 485.759 433.718 483.072C430.889 480.385 429.616 476.849 429.899 471.898C428.202 473.171 427.919 474.727 426.929 484.628V484.911H426.646C426.08 484.911 425.373 484.911 424.807 484.911C422.969 484.911 420.989 484.911 419.15 484.911C418.584 484.911 417.736 484.062 417.736 483.496C417.311 477.414 417.453 471.191 421.837 465.817C424.383 462.705 427.919 460.725 432.586 459.876C439.658 458.462 447.013 458.321 453.943 458.179C455.216 458.179 456.489 458.179 457.62 458.179C459.742 458.179 462.147 458.179 464.268 458.462C467.097 459.028 468.794 461.149 468.37 463.837H468.653Z" fill="#E6E6E6"/>
<path d="M507.972 440.358C507.547 438.944 507.123 437.529 507.265 436.398C507.547 433.569 507.689 430.741 507.689 427.912C507.689 421.264 507.831 414.758 507.689 407.969C507.689 398.493 507.406 388.592 505.709 378.833C505.143 375.439 504.436 371.196 501.466 367.377C497.788 362.568 493.546 362.568 491.283 362.992C489.02 363.417 486.049 363.983 483.22 365.255C473.32 369.923 464.975 376.712 457.762 382.511C453.802 385.764 449.983 389.017 446.305 392.411C444.467 393.967 442.628 395.664 440.789 397.22C411.371 397.22 382.659 397.22 355.504 397.22C353.241 395.24 350.978 393.401 349.139 391.704C338.673 382.369 329.62 375.439 320.71 369.781C317.316 367.66 312.931 364.831 307.981 363.558C301.192 361.72 295.817 364.124 292.847 370.63C292.422 371.62 291.857 372.752 291.574 374.166C291.433 375.297 291.15 376.429 291.008 377.419C290.301 380.955 289.735 384.491 289.452 388.168C288.887 394.674 288.745 401.18 288.745 406.131C288.745 411.929 288.745 417.728 288.745 423.527C288.745 425.507 288.745 427.629 288.745 429.609C288.745 430.599 288.745 431.589 288.745 432.579C288.745 435.549 289.028 438.378 288.18 441.065C284.785 452.38 282.805 464.685 282.239 477.415C281.956 484.911 281.957 492.407 281.957 499.761V503.439C281.957 513.056 282.381 520.835 283.229 528.19C284.219 537.666 286.341 546.86 289.17 555.487C290.726 560.013 292.847 565.388 296.807 570.055C301.333 575.43 307.415 578.966 316.184 581.512C322.831 583.492 329.903 584.765 337.682 585.613L342.916 586.179C350.836 587.028 358.898 587.876 366.96 588.301C374.456 588.725 381.811 588.866 388.883 589.149H389.165C392.135 589.149 394.822 589.291 397.51 589.432H397.793C400.48 589.432 403.168 589.432 405.713 589.291H406.562C412.927 589.149 419.008 589.008 425.231 588.725C430.323 588.584 434.991 588.301 439.375 587.876C443.477 587.452 447.437 587.028 451.397 586.604H451.68C453.519 586.321 455.358 586.179 457.196 585.896C465.117 585.048 472.472 583.775 479.402 581.936C491.848 578.683 500.617 571.328 505.143 560.155C509.245 550.396 511.791 539.505 512.922 527.2C513.488 520.694 513.912 513.622 514.054 505.419V502.307C514.195 490.568 514.336 478.546 512.78 466.524C511.79 458.745 510.376 449.551 507.548 440.5L507.972 440.358ZM504.861 502.024V505.136C504.861 513.057 504.436 519.845 503.87 526.069C502.739 537.384 500.476 547.284 496.798 556.195C493.262 564.681 487.181 569.773 477.563 572.318C471.057 574.016 464.268 575.289 456.772 575.996C454.933 576.137 453.094 576.42 451.256 576.561H450.973C447.154 576.986 443.194 577.552 439.233 577.834C434.99 578.259 430.465 578.542 425.656 578.683C419.574 578.824 413.492 579.107 407.128 579.249H406.279C403.733 579.249 401.046 579.39 398.5 579.532C395.813 579.532 392.984 579.39 390.155 579.249H389.872C382.8 579.107 375.588 578.824 368.374 578.4C360.454 577.976 352.533 577.127 344.754 576.279L339.521 575.713C332.308 575.006 325.801 573.733 319.72 572.035C312.789 570.055 308.263 567.368 305.01 563.549C302.04 560.013 300.343 555.77 299.211 552.093C296.524 544.031 294.686 535.545 293.695 526.917C292.988 519.987 292.564 512.349 292.564 503.156V499.479C292.564 492.265 292.564 484.911 292.847 477.697C293.412 465.675 295.252 454.219 298.363 443.611C299.636 439.51 299.353 435.549 299.353 432.013C299.353 431.165 299.353 430.175 299.353 429.185C299.353 427.205 299.353 425.083 299.353 422.961C299.353 417.304 299.212 411.647 299.353 405.989C299.353 401.18 299.494 394.957 300.06 388.734C300.343 385.622 300.909 382.369 301.616 379.116C301.758 377.843 302.04 376.712 302.182 375.439C302.182 375.297 302.465 374.732 302.606 374.307C303.596 372.186 304.162 372.044 306.283 372.61C309.819 373.6 313.214 375.722 316.467 377.702C324.953 383.076 333.581 389.724 343.623 398.634C345.745 400.473 348.29 402.736 350.836 404.999C352.109 406.131 353.948 406.696 355.645 406.696C383.367 406.696 412.643 406.696 442.769 406.696C444.467 406.696 446.164 406.131 447.296 404.999C449.417 403.16 451.539 401.322 453.66 399.483C457.338 396.23 461.015 392.977 464.834 389.865C471.623 384.349 479.402 378.126 488.312 373.883C490.009 373.034 492.131 372.61 493.687 372.327C493.687 372.327 493.97 372.327 494.535 373.176C495.95 375.015 496.374 377.702 496.94 380.248C498.496 389.3 498.637 398.634 498.778 407.969C498.778 414.475 498.778 420.981 498.778 427.487C498.778 429.892 498.637 432.579 498.354 435.125C498.071 438.095 498.778 440.641 499.344 442.904C501.89 451.249 503.163 460.018 504.153 467.372C505.709 478.687 505.567 490.427 505.285 501.883L504.861 502.024Z" fill="#E6E6E6"/>
<path d="M611.362 490.426L621.404 487.032L611.645 482.789L611.362 490.426Z" fill="#E6E6E6"/>
<path d="M266.434 640.491L254.235 656.977L267.082 666.483L279.281 649.998L266.434 640.491Z" fill="#E6E6E6"/>
<path d="M392.958 248.712L377.285 249.615L378.449 269.807L394.122 268.903L392.958 248.712Z" fill="#E6E6E6"/>
<path d="M580.387 575.147L598.774 584.057L605.704 569.631L587.318 560.862L580.387 575.147Z" fill="#E6E6E6"/>
<path d="M601.745 536.818L610.938 539.081C611.787 539.364 612.635 539.364 613.342 539.222C614.049 539.222 614.616 538.939 615.181 538.656C615.747 538.374 616.171 537.808 616.596 537.242C617.02 536.676 617.302 535.828 617.585 534.979L620.132 524.796L600.33 519.987L597.784 530.17C597.36 532.009 597.502 533.423 598.209 534.555C598.916 535.686 600.047 536.393 601.886 536.818H601.745Z" fill="#E6E6E6"/>
<path d="M173.899 486.466L184.082 490.002L183.8 482.223L173.899 486.466Z" fill="#E6E6E6"/>
<path d="M398.5 235.7C265.974 235.7 158.058 343.474 158.058 476.142C158.058 608.809 265.833 716.584 398.5 716.584C531.167 716.584 638.942 608.809 638.942 476.142C638.942 343.474 531.167 235.7 398.5 235.7ZM623.242 459.594L614.615 453.37L605.988 459.594L609.24 449.552L600.613 443.328H611.22L614.474 433.286L617.727 443.328H628.334L619.706 449.552L622.96 459.594H623.242ZM605.139 396.089L608.957 405.989L619.565 405.423L611.362 412.071L615.181 421.972L606.27 416.173L598.067 422.82L600.754 412.637L591.844 406.838L602.452 406.272L605.139 396.089ZM594.673 476C594.673 528.473 574.306 577.693 537.249 614.749C500.193 651.806 450.973 672.173 398.5 672.173C346.027 672.173 296.807 651.806 259.751 614.749C222.694 577.693 202.327 528.473 202.327 476C202.327 423.527 222.694 374.307 259.751 337.251C296.807 300.195 346.027 279.828 398.5 279.828C450.973 279.828 500.193 300.195 537.249 337.251C574.306 374.307 594.673 423.527 594.673 476ZM587.035 356.911L591.844 366.387L602.31 364.69L594.814 372.186L599.623 381.662L590.146 376.853L582.651 384.349L584.347 373.883L574.872 369.074L585.338 367.377L587.035 356.911ZM562.283 310.944L552.383 319.996L563.132 331.594L573.032 322.542L577.417 327.351L552.949 349.839L548.564 345.03L558.323 335.978L547.574 324.38L537.815 333.432L533.43 328.623L557.899 306.135L562.283 310.944ZM519.145 280.252C519.711 279.828 520.418 279.686 521.126 279.545C521.833 279.545 522.54 279.545 523.247 279.545C523.954 279.686 524.661 279.969 525.227 280.394L538.946 290.153C539.512 290.577 540.078 291.143 540.36 291.709C540.785 292.274 540.926 292.981 541.068 293.689C541.068 294.396 541.068 295.103 541.068 295.81C540.926 296.517 540.644 297.225 540.22 297.79L537.249 301.892L532.016 298.073L534.421 294.82L522.257 286.193L510.518 302.599L522.681 311.227L524.944 307.974L530.177 311.793L527.207 315.894C526.783 316.46 526.217 317.026 525.651 317.309C525.085 317.733 524.378 317.874 523.671 318.016C523.388 318.016 523.105 318.016 522.823 318.016C522.54 318.016 521.974 318.016 521.55 318.016C520.843 317.874 520.135 317.591 519.57 317.167L505.85 307.408C505.284 306.984 504.719 306.418 504.436 305.852C504.011 305.286 503.87 304.579 503.729 303.872C503.729 303.165 503.729 302.458 503.729 301.751C503.87 301.043 504.153 300.336 504.577 299.77L517.448 281.667C517.872 281.101 518.438 280.535 519.004 280.252H519.145ZM482.372 257.905L504.86 268.089L502.173 274.029L485.483 266.533L482.655 272.756L496.798 279.262L494.111 285.202L479.968 278.696L477.139 284.92L493.828 292.416L491.141 298.356L468.653 288.173L482.372 257.905ZM440.365 245.742L466.531 252.248L464.975 258.612L455.075 256.067L448.568 281.949L442.204 280.394L448.71 254.511L438.809 251.965L440.365 245.6V245.742ZM370.496 246.59C370.779 245.883 371.061 245.317 371.627 244.752C372.051 244.186 372.617 243.762 373.325 243.479C374.032 243.196 374.739 242.913 375.446 242.913L393.267 241.923C393.974 241.923 394.681 241.923 395.388 242.206C396.095 242.489 396.661 242.772 397.227 243.337C397.793 243.762 398.217 244.327 398.5 245.035C398.783 245.742 399.066 246.449 399.066 247.156L400.338 269.362C400.338 270.069 400.339 270.776 400.056 271.483C399.773 272.19 399.49 272.756 398.924 273.322C398.5 273.888 397.934 274.312 397.227 274.595C396.52 274.878 395.813 275.161 395.106 275.161L377.285 276.151H377.001C376.436 276.151 375.729 276.151 375.163 275.868C374.456 275.585 373.89 275.302 373.325 274.736C372.759 274.312 372.334 273.746 372.051 273.039C371.768 272.332 371.485 271.625 371.485 270.917L370.213 248.712C370.213 248.005 370.213 247.298 370.496 246.59ZM327.075 252.955L349.563 269.786L343.623 248.429L349.846 246.732L358.756 278.696L352.957 280.252L330.469 263.421L336.41 284.778L330.186 286.475L321.276 254.511L327.075 252.955ZM281.532 273.039L307.132 284.637L296.807 264.977L302.606 262.007L318.164 291.426L312.931 294.254L287.331 282.657L297.656 302.316L291.857 305.286L276.299 275.868L281.532 273.039ZM252.255 293.406L283.371 310.803L278.279 315.046L271.631 311.227L261.872 319.289L264.277 326.643L259.185 330.886L247.87 297.083L252.396 293.406H252.255ZM212.228 334.847L222.695 343.191L232.595 330.886L222.128 322.542L226.231 317.45L252.113 338.241L248.012 343.333L237.546 334.988L227.645 347.293L238.111 355.638L234.01 360.73L208.126 339.938L212.228 334.847ZM201.62 370.064L206.43 360.588L208.126 371.054L218.593 372.752L209.117 377.56L210.814 388.027L203.318 380.531L193.841 385.339L198.651 375.863L191.154 368.367L201.62 370.064ZM185.78 405.989L189.598 396.089L192.286 406.272L202.894 406.838L193.983 412.637L196.67 422.82L188.467 416.173L179.557 421.972L183.375 412.071L175.172 405.423L185.78 405.989ZM178.001 443.328L181.253 433.286L184.507 443.328H195.115L186.487 449.552L189.74 459.594L181.112 453.37L172.485 459.594L175.738 449.552L167.11 443.328H177.718H178.001ZM164.139 483.779L197.236 469.636L197.519 476.425L190.305 479.536L190.73 492.266L198.084 494.811L198.367 501.6L164.281 489.861V483.921L164.139 483.779ZM167.393 518.007L200.489 511.925L201.62 518.431L168.524 524.513L167.393 518.007ZM184.931 567.934C184.224 567.934 183.517 567.651 182.809 567.368C182.244 567.085 181.678 566.661 181.112 566.095C180.546 565.53 180.264 564.964 179.981 564.257L174.323 548.133C174.04 547.426 174.04 546.719 174.04 546.011C174.04 545.304 174.323 544.597 174.606 544.031C174.889 543.324 175.313 542.758 175.879 542.334C176.021 542.334 176.162 542.051 176.303 541.91C176.727 541.627 177.152 541.344 177.718 541.202L182.526 539.505L184.648 545.728L180.829 547.143L185.78 561.286L205.015 554.498L200.065 540.354L194.831 542.193L197.66 550.254L191.437 552.376L186.487 538.091L198.933 533.706C199.64 533.423 200.347 533.423 201.055 533.423C201.762 533.423 202.469 533.706 203.176 533.989C203.883 534.272 204.449 534.696 204.874 535.262C205.298 535.828 205.722 536.394 206.005 537.101L211.662 553.225C211.945 553.932 211.945 554.639 211.945 555.346C211.945 556.053 211.663 556.76 211.38 557.468C211.097 558.175 210.672 558.741 210.106 559.165C209.541 559.731 208.975 560.014 208.268 560.296L187.052 567.793C186.345 568.075 185.638 568.075 184.931 568.075V567.934ZM208.41 610.648C207.702 610.648 206.995 610.648 206.288 610.648C205.581 610.506 205.015 610.223 204.308 609.799C203.742 609.375 203.176 608.809 202.752 608.243L193.417 592.827C192.993 592.12 192.71 591.412 192.71 590.705C192.71 589.998 192.71 589.291 192.71 588.584C192.851 587.877 193.134 587.311 193.559 586.604C193.842 586.179 194.266 585.755 194.831 585.331C194.831 585.331 195.114 585.189 195.255 585.048L214.491 573.309C215.198 572.884 215.764 572.601 216.613 572.601C217.32 572.601 218.027 572.601 218.734 572.601C219.441 572.743 220.007 573.026 220.714 573.45C221.28 573.874 221.846 574.44 222.27 575.006L231.605 590.422C232.029 591.13 232.312 591.695 232.312 592.544C232.312 593.251 232.312 593.958 232.312 594.665C232.171 595.373 231.888 595.938 231.463 596.646C231.039 597.211 230.473 597.777 229.907 598.201L210.673 609.941C209.965 610.365 209.4 610.648 208.551 610.648H208.41ZM227.079 638.369L247.021 620.124L236.131 608.102L240.94 603.717L256.215 620.548L231.322 643.178L226.938 638.369H227.079ZM272.622 669.768C272.197 670.334 271.631 670.9 270.924 671.183C270.358 671.607 269.651 671.748 268.944 671.89C268.237 671.89 267.53 671.89 266.822 671.89C266.115 671.748 265.408 671.465 264.843 670.9L250.416 660.151C249.85 659.726 249.284 659.161 249.001 658.453C248.577 657.888 248.436 657.18 248.294 656.473C248.294 655.766 248.294 655.059 248.294 654.352C248.436 653.644 248.719 652.937 249.285 652.372L262.721 634.268C263.004 633.843 263.428 633.419 263.852 633.136C263.994 633.136 264.135 632.995 264.277 632.853C264.843 632.429 265.55 632.288 266.257 632.146C266.964 632.146 267.671 632.146 268.378 632.146C269.086 632.288 269.793 632.57 270.358 633.136L284.785 643.885C285.351 644.31 285.917 644.875 286.2 645.583C286.624 646.148 286.765 646.856 286.907 647.563C286.907 648.27 286.907 648.977 286.907 649.684C286.765 650.391 286.482 651.099 285.916 651.664L272.48 669.768H272.622ZM313.921 697.065L308.405 694.52L302.04 666.798L292.706 687.165L286.765 684.478L300.767 653.927L306.283 656.473L312.648 684.195L321.983 663.828L327.923 666.515L313.921 697.065ZM365.97 682.073L361.019 703.996C360.878 704.703 360.595 705.41 360.171 705.976C359.746 706.542 359.18 707.107 358.615 707.39C358.049 707.815 357.342 707.956 356.635 708.098C355.927 708.239 355.22 708.098 354.372 708.098L337.682 704.42C336.975 704.279 336.268 703.996 335.702 703.572C335.137 703.147 334.571 702.582 334.288 702.016C333.864 701.45 333.581 700.743 333.439 700.036C333.439 699.328 333.439 698.621 333.439 697.773L334.57 692.822L340.935 694.237L340.087 698.197L354.796 701.45L359.322 681.507L344.613 678.254L343.764 682.215L337.399 680.8L338.531 675.85C338.673 675.143 338.956 674.436 339.38 673.87C339.804 673.304 340.228 672.88 340.653 672.597C340.653 672.597 340.794 672.597 340.935 672.456C341.501 672.031 342.209 671.748 342.916 671.748C343.623 671.748 344.33 671.748 345.178 671.748L361.868 675.426C362.575 675.567 363.282 675.85 363.848 676.274C364.414 676.699 364.98 677.264 365.262 677.83C365.687 678.396 365.97 679.103 365.97 679.81C365.97 680.517 365.97 681.225 365.97 682.073ZM403.309 712.199L378.275 711.633V705.127C378.416 705.127 396.944 705.552 396.944 705.552V698.621C397.085 698.621 381.386 698.197 381.386 698.197V691.691C381.527 691.691 397.369 692.115 397.369 692.115V685.185C397.51 685.185 379.123 684.76 379.123 684.76V678.254C379.264 678.254 404.299 678.82 404.299 678.82L403.45 712.341L403.309 712.199ZM420.281 711.209L419.291 704.703L429.474 703.147L425.373 676.416L431.879 675.426L435.981 702.157L446.164 700.601L447.154 707.107L420.139 711.351L420.281 711.209ZM496.233 690.135L470.067 665.525L476.148 662.555L481.806 667.93L493.404 662.414L492.838 654.635L498.92 651.664L501.749 687.589L496.374 690.135H496.233ZM546.584 658.736L542.058 653.927L555.636 641.339L550.968 636.248L539.371 646.997L534.845 642.188L546.443 631.439L541.775 626.347L528.198 638.935L523.671 634.126L542.058 617.154L564.829 641.764L546.443 658.736H546.584ZM576.568 629.176L571.336 625.216L577.559 616.871L555.918 600.889L559.879 595.656L581.519 611.638L587.742 603.293L592.975 607.253L576.71 629.176H576.568ZM612.069 571.611L604.29 587.877C604.007 588.584 603.441 589.149 602.876 589.574C602.31 589.998 601.744 590.422 601.037 590.705C600.33 590.988 599.623 590.988 598.916 590.988C598.209 590.988 597.501 590.705 596.794 590.422L576.568 580.663C575.861 580.38 575.296 579.956 574.872 579.39C574.447 578.825 574.022 578.259 573.74 577.552C573.457 576.844 573.457 576.137 573.457 575.43C573.457 574.723 573.74 574.016 574.023 573.309L581.802 557.043C582.085 556.336 582.509 555.77 583.075 555.346C583.075 555.346 583.357 555.063 583.499 555.063C583.923 554.78 584.489 554.497 584.913 554.356C585.62 554.073 586.327 554.073 587.035 554.073C587.742 554.073 588.449 554.356 589.156 554.639L609.382 564.398C610.089 564.681 610.654 565.105 611.079 565.671C611.503 566.237 611.928 566.803 612.211 567.51C612.493 568.217 612.493 568.924 612.493 569.631C612.493 570.338 612.352 571.046 611.927 571.753L612.069 571.611ZM624.091 536.535C623.667 538.232 622.96 539.788 622.111 541.061C621.263 542.334 620.131 543.466 618.858 544.173C617.585 545.021 616.171 545.446 614.474 545.587C612.918 545.728 611.221 545.587 609.523 545.304L600.33 543.041C598.633 542.617 597.077 541.91 595.804 541.061C594.531 540.212 593.399 539.081 592.692 537.808C591.985 536.535 591.419 535.121 591.278 533.565C591.136 532.009 591.278 530.312 591.561 528.615L595.662 512.067L628.334 519.987L624.233 536.535H624.091ZM597.077 502.025L597.36 495.236L604.714 492.69L605.28 479.961L598.209 476.849L598.491 470.06L631.587 484.204L631.305 490.144L597.218 501.883L597.077 502.025Z" fill="#E6E6E6"/>
<path d="M216.579 579.673L199.075 590.358L207.402 604L224.906 593.315L216.579 579.673Z" fill="#E6E6E6"/>
<path d="M265.408 307.832L256.215 302.74L259.609 312.782L265.408 307.832Z" fill="#E6E6E6"/>
<path d="M486.898 672.738L494.677 680.093L493.828 669.344L486.898 672.738Z" fill="#E6E6E6"/>
<path d="M398.5 220C257.346 220 142.5 334.846 142.5 476C142.5 617.154 257.346 732 398.5 732C539.654 732 654.5 617.154 654.5 476C654.5 334.846 539.654 220 398.5 220ZM398.5 726.484C260.458 726.484 148.157 614.183 148.157 476.141C148.157 338.099 260.458 225.799 398.5 225.799C536.542 225.799 648.843 338.099 648.843 476.141C648.843 614.183 536.542 726.484 398.5 726.484Z" fill="#E6E6E6"/>
</svg>
